<svg width="18" height="18" viewBox="0 0 18 18" fill="none" xmlns="http://www.w3.org/2000/svg">
  <path
    d="M8.01268 14.2639V3.72351C8.01268 2.72284 7.59018 2.32257 6.5228 2.32257H3.83211C2.76473 2.32257 2.34222 2.72284 2.34222 3.72351V14.2639C2.34222 15.2646 2.76473 15.6648 3.83211 15.6648H6.5228C7.59018 15.6648 8.01268 15.2646 8.01268 14.2639Z"
    fill="#B99878" />
  <path
    d="M15.6845 14.2639V3.72351C15.6845 2.72284 15.262 2.32257 14.1946 2.32257H11.5039C10.4439 2.32257 10.014 2.72284 10.014 3.72351V14.2639C10.014 15.2646 10.4365 15.6648 11.5039 15.6648H14.1946C15.262 15.6648 15.6845 15.2646 15.6845 14.2639Z"
    fill="#B99878" />
</svg>