<svg width="1581" height="388" viewBox="0 0 1581 388" fill="none" xmlns="http://www.w3.org/2000/svg">
<g clip-path="url(#clip0_137_959)">
<path d="M14.5 0C13.6705 0 13 1.91399 13 4.28211V248.718C13 251.086 13.6705 253 14.5 253C15.3295 253 16 251.086 16 248.718V4.28211C16 1.91399 15.3295 0 14.5 0Z" fill="url(#paint0_linear_137_959)"/>
<path d="M1570.5 0C1571.33 0 1572 1.91399 1572 4.28211V248.718C1572 251.086 1571.33 253 1570.5 253C1569.67 253 1569 251.086 1569 248.718V4.28211C1569 1.91399 1569.67 0 1570.5 0Z" fill="url(#paint1_linear_137_959)"/>
<path d="M1579.51 328.529C1578.29 334.079 1572.1 335.219 1568.03 335.349C1563.77 335.489 1559.72 336.829 1556.51 339.359C1545.01 348.439 1554.45 362.229 1554.45 362.229C1554.45 362.229 1551.43 344.169 1563.42 341.169C1563.42 341.169 1571.49 338.739 1579.04 345.559C1579.04 345.559 1577.82 340.349 1572.59 338.819C1575.6 338.009 1579.95 335.979 1579.51 328.519V328.529Z" fill="url(#paint2_linear_137_959)"/>
<path d="M1512.25 385.479C1517.92 385.189 1520.07 379.279 1520.87 375.279C1521.71 371.099 1523.7 367.329 1526.73 364.579C1537.58 354.729 1549.63 366.309 1549.63 366.309C1549.63 366.309 1532.31 360.359 1527.38 371.689C1527.38 371.689 1523.66 379.249 1529.14 387.819C1529.14 387.819 1524.2 385.759 1523.55 380.349C1522.26 383.189 1519.54 387.139 1512.25 385.479Z" fill="url(#paint3_linear_137_959)"/>
<path d="M1549.81 340.389C1545.21 342.969 1545.76 350.919 1546.9 356.739C1547.04 357.439 1547.19 358.109 1547.33 358.729C1546.75 358.479 1546.12 358.219 1545.47 357.989C1539.92 355.909 1532.15 354.039 1528.85 358.149C1527.86 350.729 1534.78 349.169 1544 354.799C1539.98 344.759 1542.66 338.199 1549.81 340.399V340.389Z" fill="url(#paint4_linear_137_959)"/>
<path d="M1521.15 348.709C1525.75 346.129 1525.2 338.179 1524.06 332.359C1523.92 331.659 1523.77 330.989 1523.63 330.369C1524.21 330.619 1524.84 330.879 1525.49 331.109C1531.04 333.189 1538.81 335.059 1542.11 330.949C1543.1 338.369 1536.18 339.929 1526.96 334.299C1530.98 344.339 1528.3 350.899 1521.15 348.699V348.709Z" fill="url(#paint5_linear_137_959)"/>
<path d="M1535.67 348.659C1533.19 346.649 1532.44 341.739 1532.44 341.739C1532.44 341.739 1537.16 343.289 1538.73 346.059C1539.9 348.129 1537.51 350.149 1535.66 348.659H1535.67Z" fill="url(#paint6_linear_137_959)"/>
<path d="M1551.57 384.489C1556.17 381.909 1555.62 373.959 1554.48 368.139C1554.34 367.439 1554.19 366.769 1554.05 366.149C1554.63 366.399 1555.26 366.659 1555.91 366.889C1561.46 368.969 1569.23 370.839 1572.53 366.729C1573.52 374.149 1566.6 375.709 1557.38 370.079C1561.4 380.119 1558.72 386.679 1551.57 384.479V384.489Z" fill="url(#paint7_linear_137_959)"/>
<path d="M1567.59 379.049C1570.07 381.059 1570.82 385.969 1570.82 385.969C1570.82 385.969 1566.1 384.419 1564.53 381.649C1563.36 379.579 1565.75 377.559 1567.6 379.049H1567.59Z" fill="url(#paint8_linear_137_959)"/>
<path d="M1541.54 293.449C1541.86 294.039 1542.29 294.579 1542.81 295.049C1544.01 296.139 1545.66 296.799 1547.29 296.819C1548.78 296.839 1550.64 296.249 1551.3 294.999C1551.67 294.289 1551.79 293.199 1551.42 292.429C1551.17 291.909 1550.73 291.459 1550.18 291.179C1549.16 290.639 1548.32 291.079 1547.31 290.859C1543.84 290.119 1545.68 287.739 1546.83 287.119C1547.61 286.699 1548.55 286.589 1549.47 286.629C1558.66 286.999 1555.92 297.149 1553.92 301.889C1551.88 306.729 1548.55 311.159 1547.21 316.259C1546.51 318.919 1546.68 322.519 1548.92 324.679C1549.17 324.379 1549.41 324.089 1549.66 323.789C1549.8 323.449 1549.95 323.109 1550.11 322.769C1549.54 320.959 1549.66 318.779 1549.81 317.279C1550.2 313.449 1551.97 309.949 1553.64 306.549C1555.07 303.639 1556.41 300.709 1557.23 297.559C1557.93 294.849 1558.78 291.559 1557.77 288.709C1556.22 284.359 1550.72 281.789 1546.23 283.269C1541.91 284.689 1539.3 289.289 1541.55 293.439L1541.54 293.449Z" fill="url(#paint9_linear_137_959)"/>
<path d="M1580.31 328.649C1581.05 325.849 1580.6 322.579 1578.45 320.249C1576.3 317.919 1572.25 316.949 1569.74 318.619C1567.23 320.289 1567.55 324.629 1570.56 325.899C1572.22 326.599 1574.26 326.349 1575.71 327.389C1576.94 328.279 1577.31 329.899 1576.87 331.179C1576.44 332.459 1575.36 333.449 1574.16 334.209C1565.07 339.919 1552.63 332.979 1550.72 323.349C1548.98 314.589 1555.22 307.609 1561.59 301.549C1564.95 298.349 1572.63 296.819 1575.2 302.389C1575.45 302.929 1575.81 303.619 1576.42 303.579C1576.65 303.559 1576.84 303.439 1577.01 303.299C1578.31 302.269 1578.93 300.629 1578.89 298.999C1578.83 296.909 1577.82 294.639 1576.18 293.039C1575.46 292.339 1572.9 291.509 1572.55 290.779C1572.16 289.979 1574.04 287.149 1574.41 286.379C1577.93 279.109 1582.81 271.349 1580.32 262.769C1579.78 260.919 1578.06 261.829 1577.32 262.869C1575.81 265.009 1573.46 266.649 1572.15 268.899C1571.28 268.559 1570.51 267.749 1569.54 267.379C1568.44 266.959 1567.24 266.789 1566.09 266.849C1561.72 267.089 1559.19 270.109 1558.61 273.379C1558.51 273.949 1559.23 274.349 1559.8 274.009C1563.23 271.939 1565.44 276.519 1565.6 278.519C1565.77 280.819 1565.47 283.109 1565.1 285.359C1564.37 289.809 1562.13 293.559 1559.34 297.029C1553.59 302.609 1548.59 309.079 1546.69 316.669C1545.29 322.279 1546.32 328.889 1550.9 333.319C1552.66 335.019 1554.85 336.319 1557.21 337.199C1558.36 337.629 1559.55 337.959 1560.75 338.189C1569.07 339.799 1578.37 335.899 1580.29 328.639L1580.31 328.649Z" fill="url(#paint10_linear_137_959)"/>
<path d="M1478.68 348.539C1479.27 348.859 1479.81 349.289 1480.28 349.809C1481.37 351.009 1482.03 352.659 1482.05 354.289C1482.07 355.779 1481.48 357.639 1480.23 358.299C1479.52 358.669 1478.43 358.789 1477.66 358.419C1477.14 358.169 1476.69 357.729 1476.41 357.179C1475.87 356.159 1476.31 355.319 1476.09 354.309C1475.35 350.839 1472.97 352.679 1472.35 353.829C1471.93 354.609 1471.82 355.549 1471.86 356.469C1472.23 365.659 1482.38 362.919 1487.12 360.919C1491.96 358.879 1496.39 355.549 1501.49 354.209C1504.15 353.509 1507.75 353.679 1509.91 355.919C1509.61 356.169 1509.32 356.409 1509.02 356.659C1508.68 356.799 1508.34 356.949 1508 357.109C1506.19 356.539 1504.01 356.649 1502.51 356.809C1498.68 357.199 1495.18 358.969 1491.78 360.639C1488.87 362.069 1485.94 363.409 1482.79 364.229C1480.08 364.929 1476.79 365.779 1473.94 364.769C1469.59 363.219 1467.02 357.719 1468.5 353.229C1469.92 348.909 1474.52 346.299 1478.67 348.549L1478.68 348.539Z" fill="url(#paint11_linear_137_959)"/>
<path d="M1513.88 387.309C1511.09 388.049 1507.81 387.599 1505.48 385.449C1503.15 383.299 1502.18 379.249 1503.85 376.739C1505.52 374.229 1509.86 374.549 1511.13 377.559C1511.83 379.219 1511.58 381.259 1512.62 382.709C1513.51 383.939 1515.13 384.309 1516.41 383.869C1517.69 383.439 1518.68 382.359 1519.44 381.159C1525.15 372.069 1518.21 359.629 1508.58 357.719C1499.82 355.979 1492.84 362.219 1486.78 368.589C1483.58 371.949 1482.05 379.629 1487.62 382.199C1488.16 382.449 1488.85 382.809 1488.81 383.419C1488.79 383.649 1488.67 383.839 1488.53 384.009C1487.5 385.309 1485.86 385.929 1484.23 385.889C1482.14 385.829 1479.87 384.819 1478.27 383.179C1477.57 382.459 1476.74 379.899 1476.01 379.549C1475.21 379.159 1472.38 381.039 1471.61 381.409C1464.34 384.929 1456.58 389.809 1448 387.319C1446.15 386.779 1447.06 385.059 1448.1 384.319C1450.24 382.809 1451.88 380.459 1454.13 379.149C1453.79 378.279 1452.98 377.509 1452.61 376.539C1452.19 375.439 1452.02 374.239 1452.08 373.089C1452.32 368.719 1455.34 366.189 1458.61 365.609C1459.18 365.509 1459.58 366.229 1459.24 366.799C1457.17 370.229 1461.75 372.439 1463.75 372.599C1466.05 372.769 1468.34 372.469 1470.59 372.099C1475.04 371.369 1478.79 369.129 1482.26 366.339C1487.84 360.589 1494.31 355.589 1501.9 353.689C1507.51 352.289 1514.12 353.319 1518.55 357.899C1520.26 359.659 1521.55 361.849 1522.43 364.209C1522.86 365.359 1523.19 366.549 1523.42 367.749C1525.03 376.069 1521.13 385.369 1513.87 387.289L1513.88 387.309Z" fill="url(#paint12_linear_137_959)"/>
<path d="M1493.61 351.949C1494.47 350.209 1495.91 348.749 1496.63 346.959C1497.23 347.119 1497.79 347.619 1498.45 347.789C1499.21 347.979 1500.01 347.969 1500.76 347.799C1503.63 347.139 1505.1 344.639 1505.27 342.179C1505.3 341.749 1504.8 341.539 1504.45 341.849C1502.32 343.749 1500.56 340.619 1500.33 339.179C1500.06 337.509 1500.11 335.789 1500.21 334.099C1500.4 330.749 1501.63 327.749 1503.25 324.899C1503.83 324.089 1504.4 323.269 1504.95 322.429C1504.82 323.039 1504.71 323.649 1504.62 324.269C1504.33 326.339 1503.99 328.849 1504.84 330.829C1506.15 333.859 1509.94 335.139 1512.81 333.559C1515.57 332.039 1516.99 328.379 1515.24 325.569C1514.99 325.169 1514.67 324.819 1514.3 324.529C1513.44 323.859 1512.3 323.559 1511.22 323.719C1510.23 323.869 1509.05 324.509 1508.69 325.499C1508.49 326.059 1508.48 326.869 1508.78 327.399C1508.98 327.749 1509.3 328.029 1509.68 328.179C1510.39 328.459 1510.91 328.049 1511.59 328.099C1513.93 328.269 1512.87 330.209 1512.15 330.789C1511.66 331.179 1511.05 331.369 1510.44 331.439C1504.35 332.179 1505.5 324.419 1506.51 320.719C1506.7 320.009 1506.93 319.299 1507.17 318.599C1507.28 318.379 1507.39 318.159 1507.5 317.939C1508.45 317.619 1509.38 317.259 1510.3 316.859C1511.02 316.669 1511.74 316.489 1512.46 316.339C1516.22 315.579 1524.04 314.959 1522.89 320.979C1522.78 321.579 1522.55 322.179 1522.13 322.639C1521.5 323.319 1519.49 324.239 1519.48 321.899C1519.48 321.219 1519.92 320.719 1519.69 319.999C1519.57 319.609 1519.31 319.279 1518.97 319.049C1518.46 318.719 1517.65 318.669 1517.08 318.829C1516.07 319.119 1515.35 320.259 1515.13 321.229C1514.89 322.299 1515.13 323.449 1515.73 324.349C1515.99 324.739 1516.32 325.079 1516.7 325.359C1519.38 327.299 1523.14 326.129 1524.83 323.469C1526.59 320.709 1525.57 316.839 1522.64 315.329C1520.72 314.349 1518.19 314.519 1516.11 314.669C1515.49 314.709 1514.87 314.779 1514.25 314.869C1515.12 314.379 1515.98 313.869 1516.83 313.339C1519.79 311.919 1522.86 310.889 1526.22 310.919C1527.91 310.939 1529.63 310.999 1531.28 311.379C1532.71 311.709 1535.71 313.669 1533.67 315.669C1533.33 315.999 1533.52 316.519 1533.95 316.509C1536.42 316.509 1539.01 315.199 1539.86 312.389C1540.08 311.649 1540.14 310.849 1540.01 310.079C1539.89 309.409 1539.42 308.819 1539.31 308.209C1541.15 307.619 1542.7 306.279 1544.49 305.529C1545.36 305.169 1546.29 304.149 1545.02 303.589C1539.15 300.989 1532.74 303.279 1526.91 304.739C1526.3 304.889 1523.95 305.789 1523.42 305.449C1522.95 305.139 1522.74 303.379 1522.33 302.829C1521.42 301.589 1519.92 300.659 1518.41 300.389C1517.23 300.169 1515.94 300.389 1514.99 301.119C1514.87 301.219 1514.74 301.329 1514.7 301.479C1514.58 301.879 1515.03 302.189 1515.38 302.409C1519.04 304.719 1516.75 309.549 1513.9 311.369C1512.34 312.369 1510.73 313.349 1509.08 314.189C1509.66 312.519 1510.09 310.809 1510.32 309.049C1510.88 304.779 1509.77 300.039 1506.46 297.279C1505.19 296.219 1503.66 295.509 1502.04 295.119C1501.25 294.929 1500.45 294.819 1499.64 294.779C1494.05 294.509 1488.16 298.399 1487.37 303.939C1487.29 304.509 1487.27 305.089 1487.31 305.659C1487.18 306.339 1487.1 307.019 1487.09 307.709C1487.07 308.519 1487.13 309.329 1487.27 310.129C1487.55 311.769 1488.15 313.339 1489.12 314.679C1491.65 318.169 1496.3 319.589 1500.6 319.329C1501.57 319.269 1502.53 319.139 1503.49 318.969C1502.85 319.929 1502.18 320.869 1501.5 321.789C1499.49 324.509 1494.52 326.479 1492.46 322.669C1492.26 322.299 1491.98 321.829 1491.58 321.929C1491.43 321.969 1491.31 322.079 1491.21 322.199C1490.42 323.099 1490.11 324.369 1490.25 325.559C1490.42 327.089 1491.24 328.649 1492.43 329.639C1492.95 330.079 1494.7 330.409 1494.97 330.899C1495.28 331.449 1494.22 333.729 1494.03 334.329C1492.18 340.049 1489.47 346.289 1491.67 352.319C1492.14 353.619 1493.22 352.759 1493.64 351.919L1493.61 351.949ZM1496.95 297.719C1498.25 297.599 1499.58 297.569 1500.87 297.779C1502.34 298.029 1503.77 298.679 1504.78 299.789C1506 301.139 1506.75 302.869 1507.23 304.599C1508.31 308.509 1507.27 312.249 1505.41 315.769C1504.29 316.139 1503.15 316.419 1501.98 316.559C1499.38 316.869 1496.59 316.439 1494.41 314.919C1490.31 312.059 1487.68 305.429 1490.75 300.979C1491.39 300.049 1492.16 299.179 1493.14 298.629C1493.62 298.359 1494.13 298.179 1494.66 298.049C1495.4 297.869 1496.18 297.779 1496.95 297.709V297.719Z" fill="url(#paint13_linear_137_959)"/>
<path d="M134.5 373H1444.5" stroke="#BA9979" stroke-width="2" stroke-linecap="round"/>
<path d="M1.4909 328.529C2.7109 334.079 8.9009 335.219 12.9709 335.349C17.2309 335.489 21.2809 336.829 24.4909 339.359C35.9909 348.439 26.5509 362.229 26.5509 362.229C26.5509 362.229 29.5709 344.169 17.5809 341.169C17.5809 341.169 9.5109 338.739 1.9609 345.559C1.9609 345.559 3.18089 340.349 8.41089 338.819C5.40089 338.009 1.0509 335.979 1.4909 328.519V328.529Z" fill="url(#paint14_linear_137_959)"/>
<path d="M68.7511 385.479C63.0811 385.189 60.9311 379.279 60.1311 375.279C59.2911 371.099 57.3011 367.329 54.2711 364.579C43.4211 354.729 31.3711 366.309 31.3711 366.309C31.3711 366.309 48.6911 360.359 53.6211 371.689C53.6211 371.689 57.3411 379.249 51.8611 387.819C51.8611 387.819 56.8011 385.759 57.4511 380.349C58.7411 383.189 61.4611 387.139 68.7511 385.479Z" fill="url(#paint15_linear_137_959)"/>
<path d="M31.1909 340.389C35.7909 342.969 35.2409 350.919 34.1009 356.739C33.9609 357.439 33.8109 358.109 33.6709 358.729C34.2509 358.479 34.8809 358.219 35.5309 357.989C41.0809 355.909 48.8509 354.039 52.1509 358.149C53.1409 350.729 46.2209 349.169 37.0009 354.799C41.0209 344.759 38.3409 338.199 31.1909 340.399V340.389Z" fill="url(#paint16_linear_137_959)"/>
<path d="M59.8507 348.709C55.2507 346.129 55.8007 338.179 56.9407 332.359C57.0807 331.659 57.2307 330.989 57.3707 330.369C56.7907 330.619 56.1607 330.879 55.5107 331.109C49.9607 333.189 42.1907 335.059 38.8907 330.949C37.9007 338.369 44.8207 339.929 54.0407 334.299C50.0207 344.339 52.7007 350.899 59.8507 348.699V348.709Z" fill="url(#paint17_linear_137_959)"/>
<path d="M45.3307 348.659C47.8107 346.649 48.5607 341.739 48.5607 341.739C48.5607 341.739 43.8407 343.289 42.2707 346.059C41.1007 348.129 43.4907 350.149 45.3407 348.659H45.3307Z" fill="url(#paint18_linear_137_959)"/>
<path d="M29.4308 384.489C24.8308 381.909 25.3808 373.959 26.5208 368.139C26.6608 367.439 26.8108 366.769 26.9508 366.149C26.3708 366.399 25.7408 366.659 25.0908 366.889C19.5408 368.969 11.7708 370.839 8.47082 366.729C7.48082 374.149 14.4008 375.709 23.6208 370.079C19.6008 380.119 22.2808 386.679 29.4308 384.479V384.489Z" fill="url(#paint19_linear_137_959)"/>
<path d="M13.4107 379.049C10.9307 381.059 10.1807 385.969 10.1807 385.969C10.1807 385.969 14.9007 384.419 16.4707 381.649C17.6407 379.579 15.2507 377.559 13.4007 379.049H13.4107Z" fill="url(#paint20_linear_137_959)"/>
<path d="M39.4611 293.449C39.1411 294.039 38.7111 294.579 38.1911 295.049C36.9911 296.139 35.3411 296.799 33.7111 296.819C32.2211 296.839 30.3611 296.249 29.7011 294.999C29.3311 294.289 29.2111 293.199 29.5811 292.429C29.8311 291.909 30.2711 291.459 30.8211 291.179C31.8411 290.639 32.6811 291.079 33.6911 290.859C37.1611 290.119 35.3211 287.739 34.1711 287.119C33.3911 286.699 32.4511 286.589 31.5311 286.629C22.3411 286.999 25.0811 297.149 27.0811 301.889C29.1211 306.729 32.4511 311.159 33.7911 316.259C34.4911 318.919 34.3211 322.519 32.0811 324.679C31.8311 324.379 31.5911 324.089 31.3411 323.789C31.2011 323.449 31.0511 323.109 30.8911 322.769C31.4611 320.959 31.3411 318.779 31.1911 317.279C30.8011 313.449 29.0311 309.949 27.3611 306.549C25.9311 303.639 24.5911 300.709 23.7711 297.559C23.0711 294.849 22.2211 291.559 23.2311 288.709C24.7811 284.359 30.2811 281.789 34.7711 283.269C39.0911 284.689 41.7011 289.289 39.4511 293.439L39.4611 293.449Z" fill="url(#paint21_linear_137_959)"/>
<path d="M0.691013 328.649C-0.0489871 325.849 0.401013 322.579 2.55101 320.249C4.70101 317.919 8.75101 316.949 11.261 318.619C13.771 320.289 13.451 324.629 10.441 325.899C8.78101 326.599 6.74101 326.349 5.29101 327.389C4.06101 328.279 3.69101 329.899 4.13101 331.179C4.56101 332.459 5.64101 333.449 6.84101 334.209C15.931 339.919 28.371 332.979 30.281 323.349C32.021 314.589 25.781 307.609 19.411 301.549C16.051 298.349 8.37101 296.819 5.80101 302.389C5.55101 302.929 5.19101 303.619 4.58101 303.579C4.35101 303.559 4.16101 303.439 3.99101 303.299C2.69101 302.269 2.07101 300.629 2.11101 298.999C2.17101 296.909 3.18101 294.639 4.82101 293.039C5.54101 292.339 8.10101 291.509 8.45101 290.779C8.84101 289.979 6.96101 287.149 6.59101 286.379C3.07101 279.109 -1.80899 271.349 0.681011 262.769C1.22101 260.919 2.94101 261.829 3.68101 262.869C5.19101 265.009 7.54101 266.649 8.85101 268.899C9.72101 268.559 10.491 267.749 11.461 267.379C12.561 266.959 13.761 266.789 14.911 266.849C19.281 267.089 21.811 270.109 22.391 273.379C22.491 273.949 21.771 274.349 21.201 274.009C17.771 271.939 15.561 276.519 15.401 278.519C15.231 280.819 15.531 283.109 15.901 285.359C16.631 289.809 18.871 293.559 21.661 297.029C27.411 302.609 32.411 309.079 34.311 316.669C35.711 322.279 34.681 328.889 30.101 333.319C28.341 335.019 26.151 336.319 23.791 337.199C22.641 337.629 21.451 337.959 20.251 338.189C11.931 339.799 2.63101 335.899 0.711013 328.639L0.691013 328.649Z" fill="url(#paint22_linear_137_959)"/>
<path d="M102.321 348.539C101.731 348.859 101.191 349.289 100.721 349.809C99.6308 351.009 98.9708 352.659 98.9508 354.289C98.9308 355.779 99.5208 357.639 100.771 358.299C101.481 358.669 102.571 358.789 103.341 358.419C103.861 358.169 104.311 357.729 104.591 357.179C105.131 356.159 104.691 355.319 104.911 354.309C105.651 350.839 108.031 352.679 108.651 353.829C109.071 354.609 109.181 355.549 109.141 356.469C108.771 365.659 98.6208 362.919 93.8808 360.919C89.0408 358.879 84.6108 355.549 79.5108 354.209C76.8508 353.509 73.2508 353.679 71.0908 355.919C71.3908 356.169 71.6808 356.409 71.9808 356.659C72.3208 356.799 72.6608 356.949 73.0008 357.109C74.8108 356.539 76.9908 356.649 78.4908 356.809C82.3208 357.199 85.8208 358.969 89.2208 360.639C92.1308 362.069 95.0608 363.409 98.2108 364.229C100.921 364.929 104.211 365.779 107.061 364.769C111.411 363.219 113.981 357.719 112.501 353.229C111.081 348.909 106.481 346.299 102.331 348.549L102.321 348.539Z" fill="url(#paint23_linear_137_959)"/>
<path d="M67.121 387.309C69.911 388.049 73.191 387.599 75.521 385.449C77.851 383.299 78.821 379.249 77.151 376.739C75.481 374.229 71.141 374.549 69.871 377.559C69.171 379.219 69.421 381.259 68.381 382.709C67.491 383.939 65.871 384.309 64.591 383.869C63.311 383.439 62.321 382.359 61.561 381.159C55.851 372.069 62.791 359.629 72.421 357.719C81.181 355.979 88.161 362.219 94.221 368.589C97.421 371.949 98.951 379.629 93.381 382.199C92.841 382.449 92.151 382.809 92.191 383.419C92.211 383.649 92.331 383.839 92.471 384.009C93.501 385.309 95.141 385.929 96.771 385.889C98.861 385.829 101.131 384.819 102.731 383.179C103.431 382.459 104.261 379.899 104.991 379.549C105.791 379.159 108.621 381.039 109.391 381.409C116.661 384.929 124.421 389.809 133.001 387.319C134.851 386.779 133.941 385.059 132.901 384.319C130.761 382.809 129.121 380.459 126.871 379.149C127.211 378.279 128.021 377.509 128.391 376.539C128.811 375.439 128.981 374.239 128.921 373.089C128.681 368.719 125.661 366.189 122.391 365.609C121.821 365.509 121.421 366.229 121.761 366.799C123.831 370.229 119.251 372.439 117.251 372.599C114.951 372.769 112.661 372.469 110.411 372.099C105.961 371.369 102.211 369.129 98.741 366.339C93.161 360.589 86.691 355.589 79.101 353.689C73.491 352.289 66.881 353.319 62.451 357.899C60.741 359.659 59.451 361.849 58.571 364.209C58.141 365.359 57.811 366.549 57.581 367.749C55.971 376.069 59.871 385.369 67.131 387.289L67.121 387.309Z" fill="url(#paint24_linear_137_959)"/>
<path d="M87.3908 351.949C86.5308 350.209 85.0908 348.749 84.3708 346.959C83.7708 347.119 83.2108 347.619 82.5508 347.789C81.7908 347.979 80.9908 347.969 80.2408 347.799C77.3708 347.139 75.9008 344.639 75.7308 342.179C75.7008 341.749 76.2008 341.539 76.5508 341.849C78.6808 343.749 80.4408 340.619 80.6708 339.179C80.9408 337.509 80.8908 335.789 80.7908 334.099C80.6008 330.749 79.3708 327.749 77.7508 324.899C77.1708 324.089 76.6008 323.269 76.0508 322.429C76.1808 323.039 76.2908 323.649 76.3808 324.269C76.6708 326.339 77.0108 328.849 76.1608 330.829C74.8508 333.859 71.0608 335.139 68.1908 333.559C65.4308 332.039 64.0108 328.379 65.7608 325.569C66.0108 325.169 66.3308 324.819 66.7008 324.529C67.5608 323.859 68.7008 323.559 69.7808 323.719C70.7708 323.869 71.9508 324.509 72.3108 325.499C72.5108 326.059 72.5208 326.869 72.2208 327.399C72.0208 327.749 71.7008 328.029 71.3208 328.179C70.6108 328.459 70.0908 328.049 69.4108 328.099C67.0708 328.269 68.1308 330.209 68.8508 330.789C69.3408 331.179 69.9508 331.369 70.5608 331.439C76.6508 332.179 75.5008 324.419 74.4908 320.719C74.3008 320.009 74.0708 319.299 73.8308 318.599C73.7208 318.379 73.6108 318.159 73.5008 317.939C72.5508 317.619 71.6208 317.259 70.7008 316.859C69.9808 316.669 69.2608 316.489 68.5408 316.339C64.7808 315.579 56.9608 314.959 58.1108 320.979C58.2208 321.579 58.4508 322.179 58.8708 322.639C59.5008 323.319 61.5108 324.239 61.5208 321.899C61.5208 321.219 61.0808 320.719 61.3108 319.999C61.4308 319.609 61.6908 319.279 62.0308 319.049C62.5408 318.719 63.3508 318.669 63.9208 318.829C64.9308 319.119 65.6508 320.259 65.8708 321.229C66.1108 322.299 65.8708 323.449 65.2708 324.349C65.0108 324.739 64.6808 325.079 64.3008 325.359C61.6208 327.299 57.8608 326.129 56.1708 323.469C54.4108 320.709 55.4308 316.839 58.3608 315.329C60.2808 314.349 62.8108 314.519 64.8908 314.669C65.5108 314.709 66.1308 314.779 66.7508 314.869C65.8808 314.379 65.0208 313.869 64.1708 313.339C61.2108 311.919 58.1408 310.889 54.7808 310.919C53.0908 310.939 51.3708 310.999 49.7208 311.379C48.2908 311.709 45.2908 313.669 47.3308 315.669C47.6708 315.999 47.4808 316.519 47.0508 316.509C44.5808 316.509 41.9908 315.199 41.1408 312.389C40.9208 311.649 40.8608 310.849 40.9908 310.079C41.1108 309.409 41.5808 308.819 41.6908 308.209C39.8508 307.619 38.3008 306.279 36.5108 305.529C35.6408 305.169 34.7108 304.149 35.9808 303.589C41.8508 300.989 48.2608 303.279 54.0908 304.739C54.7008 304.889 57.0508 305.789 57.5808 305.449C58.0508 305.139 58.2608 303.379 58.6708 302.829C59.5808 301.589 61.0808 300.659 62.5908 300.389C63.7708 300.169 65.0608 300.389 66.0108 301.119C66.1308 301.219 66.2608 301.329 66.3008 301.479C66.4208 301.879 65.9708 302.189 65.6208 302.409C61.9608 304.719 64.2508 309.549 67.1008 311.369C68.6608 312.369 70.2708 313.349 71.9208 314.189C71.3408 312.519 70.9108 310.809 70.6808 309.049C70.1208 304.779 71.2308 300.039 74.5408 297.279C75.8108 296.219 77.3408 295.509 78.9608 295.119C79.7508 294.929 80.5508 294.819 81.3608 294.779C86.9508 294.509 92.8408 298.399 93.6308 303.939C93.7108 304.509 93.7308 305.089 93.6908 305.659C93.8208 306.339 93.9008 307.019 93.9108 307.709C93.9308 308.519 93.8708 309.329 93.7308 310.129C93.4508 311.769 92.8508 313.339 91.8808 314.679C89.3508 318.169 84.7008 319.589 80.4008 319.329C79.4308 319.269 78.4708 319.139 77.5108 318.969C78.1508 319.929 78.8208 320.869 79.5008 321.789C81.5108 324.509 86.4808 326.479 88.5408 322.669C88.7408 322.299 89.0208 321.829 89.4208 321.929C89.5708 321.969 89.6908 322.079 89.7908 322.199C90.5808 323.099 90.8908 324.369 90.7508 325.559C90.5808 327.089 89.7608 328.649 88.5708 329.639C88.0508 330.079 86.3008 330.409 86.0308 330.899C85.7208 331.449 86.7808 333.729 86.9708 334.329C88.8208 340.049 91.5308 346.289 89.3308 352.319C88.8608 353.619 87.7808 352.759 87.3608 351.919L87.3908 351.949ZM84.0508 297.719C82.7508 297.599 81.4208 297.569 80.1308 297.779C78.6608 298.029 77.2308 298.679 76.2208 299.789C75.0008 301.139 74.2508 302.869 73.7708 304.599C72.6908 308.509 73.7308 312.249 75.5908 315.769C76.7108 316.139 77.8508 316.419 79.0208 316.559C81.6208 316.869 84.4108 316.439 86.5908 314.919C90.6908 312.059 93.3208 305.429 90.2508 300.979C89.6108 300.049 88.8408 299.179 87.8608 298.629C87.3808 298.359 86.8708 298.179 86.3408 298.049C85.6008 297.869 84.8208 297.779 84.0508 297.709V297.719Z" fill="url(#paint25_linear_137_959)"/>
</g>
<defs>
<linearGradient id="paint0_linear_137_959" x1="16" y1="260.5" x2="140.433" y2="144.637" gradientUnits="userSpaceOnUse">
<stop stop-color="#DDC5A3"/>
<stop offset="1" stop-color="#EEDEBC" stop-opacity="0"/>
</linearGradient>
<linearGradient id="paint1_linear_137_959" x1="1570" y1="253" x2="1443.82" y2="135.512" gradientUnits="userSpaceOnUse">
<stop stop-color="#DDC5A3"/>
<stop offset="1" stop-color="#EEDEBC" stop-opacity="0"/>
</linearGradient>
<linearGradient id="paint2_linear_137_959" x1="1817.45" y1="202.299" x2="763.829" y2="799.069" gradientUnits="userSpaceOnUse">
<stop stop-color="#EEDEBC"/>
<stop offset="0.06" stop-color="#DDC5A3"/>
<stop offset="0.14" stop-color="#C9A885"/>
<stop offset="0.26" stop-color="#9A7A5F"/>
<stop offset="0.36" stop-color="#C9A885"/>
<stop offset="0.49" stop-color="#EEDEBC"/>
<stop offset="0.54" stop-color="#DDC5A3"/>
<stop offset="0.61" stop-color="#C9A885"/>
<stop offset="0.72" stop-color="#9A7A5F"/>
<stop offset="0.84" stop-color="#C9A885"/>
<stop offset="1" stop-color="#EEDEBC"/>
</linearGradient>
<linearGradient id="paint3_linear_137_959" x1="1821.6" y1="209.629" x2="767.979" y2="806.399" gradientUnits="userSpaceOnUse">
<stop stop-color="#EEDEBC"/>
<stop offset="0.06" stop-color="#DDC5A3"/>
<stop offset="0.14" stop-color="#C9A885"/>
<stop offset="0.26" stop-color="#9A7A5F"/>
<stop offset="0.36" stop-color="#C9A885"/>
<stop offset="0.49" stop-color="#EEDEBC"/>
<stop offset="0.54" stop-color="#DDC5A3"/>
<stop offset="0.61" stop-color="#C9A885"/>
<stop offset="0.72" stop-color="#9A7A5F"/>
<stop offset="0.84" stop-color="#C9A885"/>
<stop offset="1" stop-color="#EEDEBC"/>
</linearGradient>
<linearGradient id="paint4_linear_137_959" x1="1814.71" y1="197.469" x2="761.099" y2="794.239" gradientUnits="userSpaceOnUse">
<stop stop-color="#EEDEBC"/>
<stop offset="0.06" stop-color="#DDC5A3"/>
<stop offset="0.14" stop-color="#C9A885"/>
<stop offset="0.26" stop-color="#9A7A5F"/>
<stop offset="0.36" stop-color="#C9A885"/>
<stop offset="0.49" stop-color="#EEDEBC"/>
<stop offset="0.54" stop-color="#DDC5A3"/>
<stop offset="0.61" stop-color="#C9A885"/>
<stop offset="0.72" stop-color="#9A7A5F"/>
<stop offset="0.84" stop-color="#C9A885"/>
<stop offset="1" stop-color="#EEDEBC"/>
</linearGradient>
<linearGradient id="paint5_linear_137_959" x1="1805.21" y1="180.699" x2="751.599" y2="777.459" gradientUnits="userSpaceOnUse">
<stop stop-color="#EEDEBC"/>
<stop offset="0.06" stop-color="#DDC5A3"/>
<stop offset="0.14" stop-color="#C9A885"/>
<stop offset="0.26" stop-color="#9A7A5F"/>
<stop offset="0.36" stop-color="#C9A885"/>
<stop offset="0.49" stop-color="#EEDEBC"/>
<stop offset="0.54" stop-color="#DDC5A3"/>
<stop offset="0.61" stop-color="#C9A885"/>
<stop offset="0.72" stop-color="#9A7A5F"/>
<stop offset="0.84" stop-color="#C9A885"/>
<stop offset="1" stop-color="#EEDEBC"/>
</linearGradient>
<linearGradient id="paint6_linear_137_959" x1="1810.23" y1="189.559" x2="756.618" y2="786.328" gradientUnits="userSpaceOnUse">
<stop stop-color="#EEDEBC"/>
<stop offset="0.06" stop-color="#DDC5A3"/>
<stop offset="0.14" stop-color="#C9A885"/>
<stop offset="0.26" stop-color="#9A7A5F"/>
<stop offset="0.36" stop-color="#C9A885"/>
<stop offset="0.49" stop-color="#EEDEBC"/>
<stop offset="0.54" stop-color="#DDC5A3"/>
<stop offset="0.61" stop-color="#C9A885"/>
<stop offset="0.72" stop-color="#9A7A5F"/>
<stop offset="0.84" stop-color="#C9A885"/>
<stop offset="1" stop-color="#EEDEBC"/>
</linearGradient>
<linearGradient id="paint7_linear_137_959" x1="1827.95" y1="220.829" x2="774.329" y2="817.599" gradientUnits="userSpaceOnUse">
<stop stop-color="#EEDEBC"/>
<stop offset="0.06" stop-color="#DDC5A3"/>
<stop offset="0.14" stop-color="#C9A885"/>
<stop offset="0.26" stop-color="#9A7A5F"/>
<stop offset="0.36" stop-color="#C9A885"/>
<stop offset="0.49" stop-color="#EEDEBC"/>
<stop offset="0.54" stop-color="#DDC5A3"/>
<stop offset="0.61" stop-color="#C9A885"/>
<stop offset="0.72" stop-color="#9A7A5F"/>
<stop offset="0.84" stop-color="#C9A885"/>
<stop offset="1" stop-color="#EEDEBC"/>
</linearGradient>
<linearGradient id="paint8_linear_137_959" x1="1834.09" y1="231.679" x2="780.47" y2="828.45" gradientUnits="userSpaceOnUse">
<stop stop-color="#EEDEBC"/>
<stop offset="0.06" stop-color="#DDC5A3"/>
<stop offset="0.14" stop-color="#C9A885"/>
<stop offset="0.26" stop-color="#9A7A5F"/>
<stop offset="0.36" stop-color="#C9A885"/>
<stop offset="0.49" stop-color="#EEDEBC"/>
<stop offset="0.54" stop-color="#DDC5A3"/>
<stop offset="0.61" stop-color="#C9A885"/>
<stop offset="0.72" stop-color="#9A7A5F"/>
<stop offset="0.84" stop-color="#C9A885"/>
<stop offset="1" stop-color="#EEDEBC"/>
</linearGradient>
<linearGradient id="paint9_linear_137_959" x1="1795.46" y1="163.479" x2="741.839" y2="760.239" gradientUnits="userSpaceOnUse">
<stop stop-color="#EEDEBC"/>
<stop offset="0.06" stop-color="#DDC5A3"/>
<stop offset="0.14" stop-color="#C9A885"/>
<stop offset="0.26" stop-color="#9A7A5F"/>
<stop offset="0.36" stop-color="#C9A885"/>
<stop offset="0.49" stop-color="#EEDEBC"/>
<stop offset="0.54" stop-color="#DDC5A3"/>
<stop offset="0.61" stop-color="#C9A885"/>
<stop offset="0.72" stop-color="#9A7A5F"/>
<stop offset="0.84" stop-color="#C9A885"/>
<stop offset="1" stop-color="#EEDEBC"/>
</linearGradient>
<linearGradient id="paint10_linear_137_959" x1="1799.69" y1="170.939" x2="746.069" y2="767.709" gradientUnits="userSpaceOnUse">
<stop stop-color="#EEDEBC"/>
<stop offset="0.06" stop-color="#DDC5A3"/>
<stop offset="0.14" stop-color="#C9A885"/>
<stop offset="0.26" stop-color="#9A7A5F"/>
<stop offset="0.36" stop-color="#C9A885"/>
<stop offset="0.49" stop-color="#EEDEBC"/>
<stop offset="0.54" stop-color="#DDC5A3"/>
<stop offset="0.61" stop-color="#C9A885"/>
<stop offset="0.72" stop-color="#9A7A5F"/>
<stop offset="0.84" stop-color="#C9A885"/>
<stop offset="1" stop-color="#EEDEBC"/>
</linearGradient>
<linearGradient id="paint11_linear_137_959" x1="1802.53" y1="175.969" x2="748.92" y2="772.729" gradientUnits="userSpaceOnUse">
<stop stop-color="#EEDEBC"/>
<stop offset="0.06" stop-color="#DDC5A3"/>
<stop offset="0.14" stop-color="#C9A885"/>
<stop offset="0.26" stop-color="#9A7A5F"/>
<stop offset="0.36" stop-color="#C9A885"/>
<stop offset="0.49" stop-color="#EEDEBC"/>
<stop offset="0.54" stop-color="#DDC5A3"/>
<stop offset="0.61" stop-color="#C9A885"/>
<stop offset="0.72" stop-color="#9A7A5F"/>
<stop offset="0.84" stop-color="#C9A885"/>
<stop offset="1" stop-color="#EEDEBC"/>
</linearGradient>
<linearGradient id="paint12_linear_137_959" x1="1811.66" y1="192.079" x2="758.049" y2="788.849" gradientUnits="userSpaceOnUse">
<stop stop-color="#EEDEBC"/>
<stop offset="0.06" stop-color="#DDC5A3"/>
<stop offset="0.14" stop-color="#C9A885"/>
<stop offset="0.26" stop-color="#9A7A5F"/>
<stop offset="0.36" stop-color="#C9A885"/>
<stop offset="0.49" stop-color="#EEDEBC"/>
<stop offset="0.54" stop-color="#DDC5A3"/>
<stop offset="0.61" stop-color="#C9A885"/>
<stop offset="0.72" stop-color="#9A7A5F"/>
<stop offset="0.84" stop-color="#C9A885"/>
<stop offset="1" stop-color="#EEDEBC"/>
</linearGradient>
<linearGradient id="paint13_linear_137_959" x1="1791.08" y1="155.739" x2="737.459" y2="752.509" gradientUnits="userSpaceOnUse">
<stop stop-color="#EEDEBC"/>
<stop offset="0.06" stop-color="#DDC5A3"/>
<stop offset="0.14" stop-color="#C9A885"/>
<stop offset="0.26" stop-color="#9A7A5F"/>
<stop offset="0.36" stop-color="#C9A885"/>
<stop offset="0.49" stop-color="#EEDEBC"/>
<stop offset="0.54" stop-color="#DDC5A3"/>
<stop offset="0.61" stop-color="#C9A885"/>
<stop offset="0.72" stop-color="#9A7A5F"/>
<stop offset="0.84" stop-color="#C9A885"/>
<stop offset="1" stop-color="#EEDEBC"/>
</linearGradient>
<linearGradient id="paint14_linear_137_959" x1="-236.449" y1="202.299" x2="817.171" y2="799.069" gradientUnits="userSpaceOnUse">
<stop stop-color="#EEDEBC"/>
<stop offset="0.06" stop-color="#DDC5A3"/>
<stop offset="0.14" stop-color="#C9A885"/>
<stop offset="0.26" stop-color="#9A7A5F"/>
<stop offset="0.36" stop-color="#C9A885"/>
<stop offset="0.49" stop-color="#EEDEBC"/>
<stop offset="0.54" stop-color="#DDC5A3"/>
<stop offset="0.61" stop-color="#C9A885"/>
<stop offset="0.72" stop-color="#9A7A5F"/>
<stop offset="0.84" stop-color="#C9A885"/>
<stop offset="1" stop-color="#EEDEBC"/>
</linearGradient>
<linearGradient id="paint15_linear_137_959" x1="-240.599" y1="209.629" x2="813.021" y2="806.399" gradientUnits="userSpaceOnUse">
<stop stop-color="#EEDEBC"/>
<stop offset="0.06" stop-color="#DDC5A3"/>
<stop offset="0.14" stop-color="#C9A885"/>
<stop offset="0.26" stop-color="#9A7A5F"/>
<stop offset="0.36" stop-color="#C9A885"/>
<stop offset="0.49" stop-color="#EEDEBC"/>
<stop offset="0.54" stop-color="#DDC5A3"/>
<stop offset="0.61" stop-color="#C9A885"/>
<stop offset="0.72" stop-color="#9A7A5F"/>
<stop offset="0.84" stop-color="#C9A885"/>
<stop offset="1" stop-color="#EEDEBC"/>
</linearGradient>
<linearGradient id="paint16_linear_137_959" x1="-233.709" y1="197.469" x2="819.901" y2="794.239" gradientUnits="userSpaceOnUse">
<stop stop-color="#EEDEBC"/>
<stop offset="0.06" stop-color="#DDC5A3"/>
<stop offset="0.14" stop-color="#C9A885"/>
<stop offset="0.26" stop-color="#9A7A5F"/>
<stop offset="0.36" stop-color="#C9A885"/>
<stop offset="0.49" stop-color="#EEDEBC"/>
<stop offset="0.54" stop-color="#DDC5A3"/>
<stop offset="0.61" stop-color="#C9A885"/>
<stop offset="0.72" stop-color="#9A7A5F"/>
<stop offset="0.84" stop-color="#C9A885"/>
<stop offset="1" stop-color="#EEDEBC"/>
</linearGradient>
<linearGradient id="paint17_linear_137_959" x1="-224.209" y1="180.699" x2="829.401" y2="777.459" gradientUnits="userSpaceOnUse">
<stop stop-color="#EEDEBC"/>
<stop offset="0.06" stop-color="#DDC5A3"/>
<stop offset="0.14" stop-color="#C9A885"/>
<stop offset="0.26" stop-color="#9A7A5F"/>
<stop offset="0.36" stop-color="#C9A885"/>
<stop offset="0.49" stop-color="#EEDEBC"/>
<stop offset="0.54" stop-color="#DDC5A3"/>
<stop offset="0.61" stop-color="#C9A885"/>
<stop offset="0.72" stop-color="#9A7A5F"/>
<stop offset="0.84" stop-color="#C9A885"/>
<stop offset="1" stop-color="#EEDEBC"/>
</linearGradient>
<linearGradient id="paint18_linear_137_959" x1="-229.229" y1="189.559" x2="824.382" y2="786.328" gradientUnits="userSpaceOnUse">
<stop stop-color="#EEDEBC"/>
<stop offset="0.06" stop-color="#DDC5A3"/>
<stop offset="0.14" stop-color="#C9A885"/>
<stop offset="0.26" stop-color="#9A7A5F"/>
<stop offset="0.36" stop-color="#C9A885"/>
<stop offset="0.49" stop-color="#EEDEBC"/>
<stop offset="0.54" stop-color="#DDC5A3"/>
<stop offset="0.61" stop-color="#C9A885"/>
<stop offset="0.72" stop-color="#9A7A5F"/>
<stop offset="0.84" stop-color="#C9A885"/>
<stop offset="1" stop-color="#EEDEBC"/>
</linearGradient>
<linearGradient id="paint19_linear_137_959" x1="-246.949" y1="220.829" x2="806.671" y2="817.599" gradientUnits="userSpaceOnUse">
<stop stop-color="#EEDEBC"/>
<stop offset="0.06" stop-color="#DDC5A3"/>
<stop offset="0.14" stop-color="#C9A885"/>
<stop offset="0.26" stop-color="#9A7A5F"/>
<stop offset="0.36" stop-color="#C9A885"/>
<stop offset="0.49" stop-color="#EEDEBC"/>
<stop offset="0.54" stop-color="#DDC5A3"/>
<stop offset="0.61" stop-color="#C9A885"/>
<stop offset="0.72" stop-color="#9A7A5F"/>
<stop offset="0.84" stop-color="#C9A885"/>
<stop offset="1" stop-color="#EEDEBC"/>
</linearGradient>
<linearGradient id="paint20_linear_137_959" x1="-253.089" y1="231.679" x2="800.53" y2="828.45" gradientUnits="userSpaceOnUse">
<stop stop-color="#EEDEBC"/>
<stop offset="0.06" stop-color="#DDC5A3"/>
<stop offset="0.14" stop-color="#C9A885"/>
<stop offset="0.26" stop-color="#9A7A5F"/>
<stop offset="0.36" stop-color="#C9A885"/>
<stop offset="0.49" stop-color="#EEDEBC"/>
<stop offset="0.54" stop-color="#DDC5A3"/>
<stop offset="0.61" stop-color="#C9A885"/>
<stop offset="0.72" stop-color="#9A7A5F"/>
<stop offset="0.84" stop-color="#C9A885"/>
<stop offset="1" stop-color="#EEDEBC"/>
</linearGradient>
<linearGradient id="paint21_linear_137_959" x1="-214.459" y1="163.479" x2="839.161" y2="760.239" gradientUnits="userSpaceOnUse">
<stop stop-color="#EEDEBC"/>
<stop offset="0.06" stop-color="#DDC5A3"/>
<stop offset="0.14" stop-color="#C9A885"/>
<stop offset="0.26" stop-color="#9A7A5F"/>
<stop offset="0.36" stop-color="#C9A885"/>
<stop offset="0.49" stop-color="#EEDEBC"/>
<stop offset="0.54" stop-color="#DDC5A3"/>
<stop offset="0.61" stop-color="#C9A885"/>
<stop offset="0.72" stop-color="#9A7A5F"/>
<stop offset="0.84" stop-color="#C9A885"/>
<stop offset="1" stop-color="#EEDEBC"/>
</linearGradient>
<linearGradient id="paint22_linear_137_959" x1="-218.689" y1="170.939" x2="834.931" y2="767.709" gradientUnits="userSpaceOnUse">
<stop stop-color="#EEDEBC"/>
<stop offset="0.06" stop-color="#DDC5A3"/>
<stop offset="0.14" stop-color="#C9A885"/>
<stop offset="0.26" stop-color="#9A7A5F"/>
<stop offset="0.36" stop-color="#C9A885"/>
<stop offset="0.49" stop-color="#EEDEBC"/>
<stop offset="0.54" stop-color="#DDC5A3"/>
<stop offset="0.61" stop-color="#C9A885"/>
<stop offset="0.72" stop-color="#9A7A5F"/>
<stop offset="0.84" stop-color="#C9A885"/>
<stop offset="1" stop-color="#EEDEBC"/>
</linearGradient>
<linearGradient id="paint23_linear_137_959" x1="-221.529" y1="175.969" x2="832.08" y2="772.729" gradientUnits="userSpaceOnUse">
<stop stop-color="#EEDEBC"/>
<stop offset="0.06" stop-color="#DDC5A3"/>
<stop offset="0.14" stop-color="#C9A885"/>
<stop offset="0.26" stop-color="#9A7A5F"/>
<stop offset="0.36" stop-color="#C9A885"/>
<stop offset="0.49" stop-color="#EEDEBC"/>
<stop offset="0.54" stop-color="#DDC5A3"/>
<stop offset="0.61" stop-color="#C9A885"/>
<stop offset="0.72" stop-color="#9A7A5F"/>
<stop offset="0.84" stop-color="#C9A885"/>
<stop offset="1" stop-color="#EEDEBC"/>
</linearGradient>
<linearGradient id="paint24_linear_137_959" x1="-230.659" y1="192.079" x2="822.951" y2="788.849" gradientUnits="userSpaceOnUse">
<stop stop-color="#EEDEBC"/>
<stop offset="0.06" stop-color="#DDC5A3"/>
<stop offset="0.14" stop-color="#C9A885"/>
<stop offset="0.26" stop-color="#9A7A5F"/>
<stop offset="0.36" stop-color="#C9A885"/>
<stop offset="0.49" stop-color="#EEDEBC"/>
<stop offset="0.54" stop-color="#DDC5A3"/>
<stop offset="0.61" stop-color="#C9A885"/>
<stop offset="0.72" stop-color="#9A7A5F"/>
<stop offset="0.84" stop-color="#C9A885"/>
<stop offset="1" stop-color="#EEDEBC"/>
</linearGradient>
<linearGradient id="paint25_linear_137_959" x1="-210.079" y1="155.739" x2="843.541" y2="752.509" gradientUnits="userSpaceOnUse">
<stop stop-color="#EEDEBC"/>
<stop offset="0.06" stop-color="#DDC5A3"/>
<stop offset="0.14" stop-color="#C9A885"/>
<stop offset="0.26" stop-color="#9A7A5F"/>
<stop offset="0.36" stop-color="#C9A885"/>
<stop offset="0.49" stop-color="#EEDEBC"/>
<stop offset="0.54" stop-color="#DDC5A3"/>
<stop offset="0.61" stop-color="#C9A885"/>
<stop offset="0.72" stop-color="#9A7A5F"/>
<stop offset="0.84" stop-color="#C9A885"/>
<stop offset="1" stop-color="#EEDEBC"/>
</linearGradient>
<clipPath id="clip0_137_959">
<rect width="1581" height="388" fill="white"/>
</clipPath>
</defs>
</svg>
