<svg width="345" height="64" viewBox="0 0 345 64" fill="none" xmlns="http://www.w3.org/2000/svg">
<g clip-path="url(#clip0_220_301)">
<path d="M344.006 33.8462C343.388 36.6573 340.253 37.2347 338.191 37.3005C336.034 37.3714 333.982 38.0501 332.356 39.3315C326.532 43.9305 331.313 50.915 331.313 50.915C331.313 50.915 329.783 41.7678 335.856 40.2483C335.856 40.2483 339.944 39.0175 343.768 42.4718C343.768 42.4718 343.15 39.833 340.501 39.058C342.025 38.6478 344.229 37.6196 344.006 33.8411V33.8462Z" fill="url(#paint0_linear_220_301)"/>
<path d="M309.939 62.691C312.811 62.5441 313.9 59.5508 314.305 57.5248C314.73 55.4077 315.738 53.4982 317.273 52.1053C322.768 47.1164 328.872 52.9815 328.872 52.9815C328.872 52.9815 320.099 49.9679 317.602 55.7065C317.602 55.7065 315.718 59.5356 318.494 63.8762C318.494 63.8762 315.991 62.8328 315.662 60.0927C315.009 61.5312 313.631 63.5318 309.939 62.691Z" fill="url(#paint1_linear_220_301)"/>
<path d="M328.966 39.8536C326.636 41.1604 326.915 45.187 327.492 48.1348C327.563 48.4893 327.639 48.8287 327.71 49.1427C327.416 49.0161 327.097 48.8844 326.768 48.7679C323.957 47.7144 320.021 46.7672 318.35 48.8489C317.848 45.0907 321.353 44.3006 326.023 47.1522C323.987 42.067 325.344 38.7444 328.966 39.8587V39.8536Z" fill="url(#paint2_linear_220_301)"/>
<path d="M314.449 44.0674C316.779 42.7606 316.501 38.734 315.923 35.7862C315.852 35.4317 315.776 35.0923 315.706 34.7783C315.999 34.9049 316.318 35.0366 316.648 35.1531C319.459 36.2066 323.394 37.1538 325.065 35.0721C325.567 38.8303 322.062 39.6204 317.392 36.7688C319.428 41.854 318.071 45.1766 314.449 44.0623V44.0674Z" fill="url(#paint3_linear_220_301)"/>
<path d="M321.804 44.0421C320.548 43.024 320.168 40.5372 320.168 40.5372C320.168 40.5372 322.559 41.3222 323.354 42.7252C323.947 43.7737 322.736 44.7968 321.799 44.0421H321.804Z" fill="url(#paint4_linear_220_301)"/>
<path d="M329.856 62.1896C332.186 60.8828 331.907 56.8562 331.33 53.9084C331.259 53.5539 331.183 53.2145 331.112 52.9005C331.406 53.0271 331.725 53.1588 332.054 53.2753C334.865 54.3288 338.801 55.276 340.472 53.1943C340.973 56.9524 337.468 57.7426 332.799 54.891C334.835 59.9762 333.477 63.2988 329.856 62.1845V62.1896Z" fill="url(#paint5_linear_220_301)"/>
<path d="M337.969 59.4342C339.225 60.4522 339.605 62.9391 339.605 62.9391C339.605 62.9391 337.215 62.154 336.419 60.751C335.827 59.7026 337.037 58.6795 337.974 59.4342H337.969Z" fill="url(#paint6_linear_220_301)"/>
<path d="M324.779 16.0788C324.941 16.3777 325.159 16.6512 325.422 16.8892C326.03 17.4413 326.866 17.7756 327.691 17.7857C328.446 17.7958 329.388 17.497 329.722 16.8639C329.91 16.5043 329.971 15.9522 329.783 15.5622C329.657 15.2988 329.434 15.0709 329.155 14.9291C328.638 14.6556 328.213 14.8785 327.701 14.767C325.944 14.3922 326.876 13.1868 327.458 12.8727C327.853 12.66 328.329 12.6043 328.795 12.6246C333.45 12.812 332.062 17.9529 331.049 20.3536C330.016 22.8051 328.329 25.0488 327.651 27.6319C327.296 28.9792 327.382 30.8026 328.517 31.8966C328.644 31.7447 328.765 31.5978 328.892 31.4458C328.963 31.2736 329.039 31.1014 329.12 30.9292C328.831 30.0125 328.892 28.9083 328.968 28.1486C329.165 26.2087 330.062 24.436 330.908 22.7139C331.632 21.24 332.311 19.756 332.726 18.1605C333.08 16.7879 333.511 15.1216 332.999 13.678C332.214 11.4748 329.429 10.1731 327.154 10.9227C324.966 11.6419 323.644 13.9718 324.784 16.0738L324.779 16.0788Z" fill="url(#paint7_linear_220_301)"/>
<path d="M344.416 33.9073C344.79 32.4891 344.563 30.8329 343.474 29.6528C342.385 28.4726 340.333 27.9813 339.062 28.8272C337.791 29.673 337.953 31.8712 339.477 32.5144C340.318 32.869 341.351 32.7424 342.086 33.2691C342.709 33.7199 342.896 34.5404 342.673 35.1887C342.456 35.837 341.908 36.3385 341.301 36.7234C336.697 39.6155 330.396 36.1004 329.429 31.2229C328.547 26.786 331.708 23.2507 334.934 20.1814C336.636 18.5606 340.526 17.7856 341.827 20.6068C341.954 20.8803 342.136 21.2298 342.445 21.2095C342.562 21.1994 342.658 21.1386 342.744 21.0677C343.403 20.546 343.717 19.7154 343.696 18.8898C343.666 17.8312 343.154 16.6815 342.324 15.8711C341.959 15.5165 340.663 15.0962 340.485 14.7264C340.288 14.3212 341.24 12.8878 341.427 12.4978C343.21 8.81564 345.682 4.88525 344.421 0.53954C344.147 -0.397472 343.276 0.0634398 342.901 0.590193C342.136 1.67409 340.946 2.50474 340.283 3.64435C339.842 3.47214 339.452 3.06188 338.961 2.87448C338.404 2.66175 337.796 2.57565 337.213 2.60604C335 2.7276 333.718 4.25721 333.425 5.91344C333.374 6.20214 333.739 6.40474 334.027 6.23253C335.765 5.18409 336.884 7.50382 336.965 8.5168C337.051 9.68174 336.899 10.8416 336.712 11.9812C336.342 14.2351 335.208 16.1345 333.794 17.892C330.882 20.7182 328.35 23.9952 327.387 27.8395C326.678 30.681 327.2 34.0289 329.52 36.2726C330.411 37.1337 331.52 37.7921 332.716 38.2378C333.298 38.4556 333.901 38.6228 334.509 38.7393C338.723 39.5547 343.433 37.5794 344.406 33.9023L344.416 33.9073Z" fill="url(#paint8_linear_220_301)"/>
<path d="M292.938 43.9813C293.237 44.1433 293.51 44.3611 293.748 44.6245C294.3 45.2323 294.635 46.068 294.645 46.8936C294.655 47.6483 294.356 48.5904 293.723 48.9246C293.363 49.112 292.811 49.1728 292.421 48.9854C292.158 48.8588 291.93 48.6359 291.788 48.3574C291.515 47.8407 291.737 47.4153 291.626 46.9037C291.251 45.1462 290.046 46.0781 289.732 46.6606C289.519 47.0557 289.463 47.5318 289.484 47.9977C289.671 52.6524 294.812 51.2646 297.213 50.2516C299.664 49.2184 301.908 47.5318 304.491 46.8531C305.838 46.4985 307.662 46.5846 308.756 47.7192C308.604 47.8458 308.457 47.9674 308.305 48.094C308.133 48.1649 307.96 48.2409 307.788 48.3219C306.871 48.0332 305.767 48.0889 305.008 48.17C303.068 48.3675 301.295 49.264 299.573 50.1098C298.099 50.8341 296.615 51.5128 295.02 51.9281C293.647 52.2827 291.981 52.7132 290.537 52.2016C288.334 51.4166 287.032 48.6309 287.782 46.3567C288.501 44.1687 290.831 42.8467 292.933 43.9863L292.938 43.9813Z" fill="url(#paint9_linear_220_301)"/>
<path d="M310.769 63.6179C309.355 63.9927 307.694 63.7648 306.514 62.6758C305.334 61.5869 304.843 59.5356 305.688 58.2643C306.534 56.993 308.732 57.155 309.376 58.6796C309.73 59.5204 309.604 60.5536 310.13 61.288C310.581 61.911 311.402 62.0984 312.05 61.8756C312.698 61.6578 313.2 61.1108 313.585 60.503C316.477 55.8989 312.962 49.5982 308.084 48.6308C303.647 47.7495 300.112 50.91 297.043 54.1363C295.422 55.8382 294.647 59.728 297.468 61.0297C297.742 61.1563 298.091 61.3387 298.071 61.6476C298.061 61.7641 298 61.8604 297.929 61.9465C297.407 62.6049 296.577 62.9189 295.751 62.8987C294.692 62.8683 293.543 62.3567 292.732 61.5261C292.378 61.1614 291.957 59.8648 291.588 59.6875C291.182 59.49 289.749 60.4422 289.359 60.6296C285.677 62.4124 281.746 64.8841 277.401 63.623C276.464 63.3495 276.925 62.4783 277.451 62.1035C278.535 61.3387 279.366 60.1484 280.506 59.4849C280.333 59.0443 279.923 58.6543 279.736 58.163C279.523 57.6058 279.437 56.998 279.467 56.4156C279.589 54.2022 281.118 52.9208 282.775 52.627C283.063 52.5764 283.266 52.941 283.094 53.2297C282.045 54.967 284.365 56.0864 285.378 56.1674C286.543 56.2535 287.703 56.1015 288.842 55.9141C291.096 55.5444 292.996 54.4099 294.753 52.9967C297.579 50.0844 300.856 47.5519 304.701 46.5896C307.542 45.8805 310.89 46.4022 313.134 48.7219C314 49.6134 314.653 50.7226 315.099 51.9179C315.317 52.5004 315.484 53.1031 315.6 53.7109C316.416 57.9249 314.441 62.6353 310.763 63.6078L310.769 63.6179Z" fill="url(#paint10_linear_220_301)"/>
<path d="M300.502 45.7084C300.937 44.8271 301.667 44.0876 302.032 43.181C302.335 43.262 302.619 43.5153 302.953 43.6014C303.338 43.6976 303.743 43.6926 304.123 43.6064C305.577 43.2722 306.322 42.0059 306.408 40.7599C306.423 40.5422 306.17 40.4358 305.992 40.5928C304.913 41.5551 304.022 39.9698 303.906 39.2405C303.769 38.3946 303.794 37.5235 303.845 36.6675C303.941 34.9707 304.564 33.4512 305.384 32.0077C305.678 31.5975 305.967 31.1822 306.246 30.7567C306.18 31.0657 306.124 31.3746 306.078 31.6887C305.932 32.7371 305.759 34.0084 306.19 35.0113C306.853 36.5459 308.773 37.1942 310.227 36.394C311.624 35.6241 312.344 33.7703 311.457 32.3471C311.331 32.1445 311.169 31.9672 310.981 31.8203C310.546 31.481 309.968 31.329 309.421 31.4101C308.92 31.4861 308.322 31.8102 308.14 32.3116C308.039 32.5953 308.033 33.0055 308.185 33.274C308.287 33.4512 308.449 33.5931 308.641 33.669C309.001 33.8109 309.264 33.6032 309.609 33.6285C310.794 33.7146 310.257 34.6972 309.892 34.991C309.644 35.1885 309.335 35.2848 309.026 35.3202C305.942 35.695 306.524 31.7646 307.036 29.8906C307.132 29.531 307.248 29.1714 307.37 28.8168C307.426 28.7054 307.481 28.594 307.537 28.4826C308.018 28.3205 308.489 28.1381 308.955 27.9356C309.32 27.8393 309.685 27.7481 310.049 27.6722C311.954 27.2872 315.914 26.9732 315.332 30.0223C315.276 30.3262 315.16 30.6301 314.947 30.8631C314.628 31.2075 313.61 31.6735 313.605 30.4883C313.605 30.1438 313.828 29.8906 313.711 29.5259C313.65 29.3284 313.519 29.1613 313.347 29.0448C313.088 28.8776 312.678 28.8523 312.389 28.9333C311.878 29.0802 311.513 29.6576 311.402 30.1489C311.28 30.6909 311.402 31.2733 311.706 31.7292C311.837 31.9267 312.004 32.0989 312.197 32.2407C313.554 33.2233 315.459 32.6307 316.315 31.2835C317.206 29.8855 316.689 27.9254 315.205 27.1606C314.233 26.6643 312.952 26.7504 311.898 26.8263C311.584 26.8466 311.27 26.882 310.956 26.9276C311.397 26.6794 311.832 26.4211 312.263 26.1527C313.762 25.4335 315.317 24.9118 317.019 24.927C317.875 24.9371 318.746 24.9675 319.581 25.16C320.306 25.3271 321.825 26.3198 320.792 27.3328C320.62 27.5 320.716 27.7633 320.934 27.7583C322.185 27.7583 323.497 27.0948 323.927 25.6715C324.039 25.2967 324.069 24.8915 324.003 24.5015C323.942 24.1622 323.704 23.8633 323.649 23.5544C324.581 23.2555 325.366 22.5768 326.272 22.197C326.713 22.0146 327.184 21.498 326.541 21.2144C323.568 19.8975 320.321 21.0574 317.368 21.7968C317.059 21.8728 315.869 22.3287 315.6 22.1565C315.362 21.9994 315.256 21.108 315.048 20.8295C314.587 20.2014 313.828 19.7304 313.063 19.5936C312.465 19.4822 311.812 19.5936 311.331 19.9633C311.27 20.014 311.204 20.0697 311.184 20.1457C311.123 20.3483 311.351 20.5053 311.528 20.6167C313.382 21.7867 312.222 24.2331 310.779 25.1549C309.989 25.6614 309.173 26.1578 308.337 26.5832C308.631 25.7374 308.849 24.8713 308.965 23.9798C309.249 21.8171 308.687 19.4163 307.01 18.0184C306.367 17.4815 305.592 17.1219 304.772 16.9244C304.372 16.8281 303.966 16.7724 303.556 16.7522C300.725 16.6154 297.742 18.5857 297.341 21.3917C297.301 21.6804 297.291 21.9741 297.311 22.2628C297.245 22.6072 297.205 22.9516 297.2 23.3011C297.189 23.7114 297.22 24.1217 297.291 24.5268C297.433 25.3575 297.736 26.1527 298.228 26.8314C299.509 28.599 301.864 29.3183 304.042 29.1866C304.534 29.1562 305.02 29.0903 305.506 29.0042C305.182 29.4905 304.843 29.9666 304.498 30.4326C303.48 31.8102 300.963 32.808 299.919 30.8783C299.818 30.6909 299.676 30.4528 299.474 30.5035C299.398 30.5237 299.337 30.5794 299.286 30.6402C298.886 31.0961 298.729 31.7393 298.8 32.342C298.886 33.117 299.302 33.9071 299.904 34.4085C300.168 34.6314 301.054 34.7985 301.191 35.0467C301.348 35.3253 300.811 36.4801 300.715 36.784C299.778 39.6811 298.405 42.8416 299.519 45.8958C299.757 46.5542 300.304 46.1187 300.517 45.6932L300.502 45.7084ZM302.194 18.2413C302.852 18.1805 303.526 18.1653 304.179 18.2717C304.924 18.3983 305.648 18.7275 306.159 19.2897C306.777 19.9735 307.157 20.8497 307.4 21.7259C307.947 23.7063 307.421 25.6006 306.479 27.3835C305.911 27.5709 305.334 27.7127 304.741 27.7836C303.424 27.9406 302.011 27.7228 300.907 26.953C298.83 25.5044 297.498 22.1463 299.053 19.8924C299.377 19.4214 299.767 18.9807 300.264 18.7022C300.507 18.5654 300.765 18.4743 301.034 18.4084C301.409 18.3172 301.804 18.2716 302.194 18.2362V18.2413Z" fill="url(#paint11_linear_220_301)"/>
<path d="M68 55.9689H277" stroke="#BA9979" stroke-width="1.01299" stroke-linecap="round"/>
<path d="M0.759809 33.8462C1.37773 36.6573 4.51292 37.2347 6.57435 37.3005C8.73201 37.3714 10.7833 38.0501 12.4092 39.3315C18.2338 43.9305 13.4525 50.915 13.4525 50.915C13.4525 50.915 14.9821 41.7678 8.90928 40.2483C8.90928 40.2483 4.82188 39.0175 0.997861 42.4718C0.997861 42.4718 1.61578 39.833 4.26474 39.058C2.7402 38.6478 0.536952 37.6196 0.759809 33.8411V33.8462Z" fill="url(#paint12_linear_220_301)"/>
<path d="M34.8268 62.691C31.9549 62.5441 30.866 59.5508 30.4608 57.5248C30.0353 55.4077 29.0274 53.4982 27.4927 52.1053C21.9973 47.1164 15.894 52.9815 15.894 52.9815C15.894 52.9815 24.6665 49.9679 27.1635 55.7065C27.1635 55.7065 29.0477 59.5356 26.2721 63.8762C26.2721 63.8762 28.7742 62.8328 29.1034 60.0927C29.7568 61.5312 31.1344 63.5318 34.8268 62.691Z" fill="url(#paint13_linear_220_301)"/>
<path d="M15.7998 39.8536C18.1297 41.1604 17.8511 45.187 17.2737 48.1348C17.2028 48.4893 17.1268 48.8287 17.0559 49.1427C17.3497 49.0161 17.6688 48.8844 17.998 48.7679C20.809 47.7144 24.7445 46.7672 26.4159 48.8489C26.9173 45.0907 23.4124 44.3006 18.7425 47.1522C20.7786 42.067 19.4212 38.7444 15.7998 39.8587V39.8536Z" fill="url(#paint14_linear_220_301)"/>
<path d="M30.3162 44.0674C27.9864 42.7606 28.2649 38.734 28.8423 35.7862C28.9132 35.4317 28.9892 35.0923 29.0601 34.7783C28.7664 34.9049 28.4473 35.0366 28.118 35.1531C25.307 36.2066 21.3716 37.1538 19.7001 35.0721C19.1987 38.8303 22.7036 39.6204 27.3735 36.7688C25.3374 41.854 26.6948 45.1766 30.3162 44.0623V44.0674Z" fill="url(#paint15_linear_220_301)"/>
<path d="M22.9612 44.0421C24.2173 43.024 24.5971 40.5372 24.5971 40.5372C24.5971 40.5372 22.2065 41.3222 21.4113 42.7252C20.8187 43.7737 22.0292 44.7968 22.9662 44.0421H22.9612Z" fill="url(#paint16_linear_220_301)"/>
<path d="M14.9097 62.1896C12.5799 60.8828 12.8584 56.8562 13.4358 53.9084C13.5067 53.5539 13.5827 53.2145 13.6536 52.9005C13.3599 53.0271 13.0408 53.1588 12.7116 53.2753C9.90051 54.3288 5.96507 55.276 4.29364 53.1943C3.79221 56.9524 7.29714 57.7426 11.967 54.891C9.9309 59.9762 11.2883 63.2988 14.9097 62.1845V62.1896Z" fill="url(#paint17_linear_220_301)"/>
<path d="M6.79637 59.4342C5.54027 60.4522 5.1604 62.9391 5.1604 62.9391C5.1604 62.9391 7.55105 62.154 8.34624 60.751C8.93884 59.7026 7.72832 58.6795 6.79131 59.4342H6.79637Z" fill="url(#paint18_linear_220_301)"/>
<path d="M19.9866 16.0788C19.8246 16.3777 19.6068 16.6512 19.3434 16.8892C18.7356 17.4413 17.8999 17.7756 17.0743 17.7857C16.3196 17.7958 15.3776 17.497 15.0433 16.8639C14.8559 16.5043 14.7951 15.9522 14.9825 15.5622C15.1091 15.2988 15.332 15.0709 15.6105 14.9291C16.1272 14.6556 16.5526 14.8785 17.0642 14.767C18.8217 14.3922 17.8898 13.1868 17.3073 12.8727C16.9122 12.66 16.4361 12.6043 15.9702 12.6246C11.3155 12.812 12.7033 17.9529 13.7163 20.3536C14.7495 22.8051 16.4361 25.0488 17.1148 27.6319C17.4694 28.9792 17.3833 30.8026 16.2487 31.8966C16.1221 31.7447 16.0005 31.5978 15.8739 31.4458C15.803 31.2736 15.727 31.1014 15.646 30.9292C15.9347 30.0125 15.8739 28.9083 15.7979 28.1486C15.6004 26.2087 14.7039 24.436 13.8581 22.7139C13.1338 21.24 12.4551 19.756 12.0398 18.1605C11.6852 16.7879 11.2547 15.1216 11.7663 13.678C12.5513 11.4748 15.337 10.1731 17.6112 10.9227C19.7992 11.6419 21.1212 13.9718 19.9816 16.0738L19.9866 16.0788Z" fill="url(#paint19_linear_220_301)"/>
<path d="M0.349993 33.9073C-0.0248116 32.4891 0.203111 30.8329 1.29207 29.6528C2.38103 28.4726 4.43233 27.9813 5.70362 28.8272C6.97492 29.673 6.81284 31.8712 5.2883 32.5144C4.44752 32.869 3.41428 32.7424 2.67986 33.2691C2.05687 33.7199 1.86947 34.5404 2.09233 35.1887C2.31012 35.837 2.85713 36.3385 3.46492 36.7234C8.06895 39.6155 14.3697 36.1004 15.3371 31.2229C16.2184 26.786 13.0579 23.2507 9.83154 20.1814C8.12973 18.5606 4.23986 17.7856 2.93817 20.6068C2.81155 20.8803 2.62921 21.2298 2.32025 21.2095C2.20376 21.1994 2.10752 21.1386 2.02142 21.0677C1.36298 20.546 1.04895 19.7154 1.06921 18.8898C1.0996 17.8312 1.61116 16.6815 2.44181 15.8711C2.80649 15.5165 4.10311 15.0962 4.28038 14.7264C4.47791 14.3212 3.5257 12.8878 3.3383 12.4978C1.55545 8.81564 -0.916241 4.88525 0.344927 0.53954C0.618434 -0.397472 1.4896 0.0634398 1.86441 0.590193C2.62921 1.67409 3.81947 2.50474 4.48298 3.64435C4.92363 3.47214 5.31363 3.06188 5.80492 2.87448C6.36207 2.66175 6.96986 2.57565 7.55232 2.60604C9.7657 2.7276 11.0471 4.25721 11.3409 5.91344C11.3915 6.20214 11.0269 6.40474 10.7382 6.23253C9.00089 5.18409 7.88155 7.50382 7.80051 8.5168C7.7144 9.68174 7.86635 10.8416 8.05375 11.9812C8.42349 14.2351 9.55804 16.1345 10.9712 17.892C13.8835 20.7182 16.416 23.9952 17.3783 27.8395C18.0874 30.681 17.5657 34.0289 15.246 36.2726C14.3545 37.1337 13.2453 37.7921 12.05 38.2378C11.4675 38.4556 10.8648 38.6228 10.257 38.7393C6.04298 39.5547 1.33259 37.5794 0.360123 33.9023L0.349993 33.9073Z" fill="url(#paint20_linear_220_301)"/>
<path d="M51.8278 43.9813C51.529 44.1433 51.2554 44.3611 51.0174 44.6245C50.4653 45.2323 50.131 46.068 50.1209 46.8936C50.1108 47.6483 50.4096 48.5904 51.0427 48.9246C51.4023 49.112 51.9544 49.1728 52.3444 48.9854C52.6078 48.8588 52.8357 48.6359 52.9775 48.3574C53.251 47.8407 53.0282 47.4153 53.1396 46.9037C53.5144 45.1462 54.7199 46.0781 55.0339 46.6606C55.2466 47.0557 55.3023 47.5318 55.2821 47.9977C55.0947 52.6524 49.9538 51.2646 47.553 50.2516C45.1016 49.2184 42.8578 47.5318 40.2747 46.8531C38.9274 46.4985 37.104 46.5846 36.01 47.7192C36.162 47.8458 36.3088 47.9674 36.4608 48.094C36.633 48.1649 36.8052 48.2409 36.9774 48.3219C37.8942 48.0332 38.9983 48.0889 39.7581 48.17C41.6979 48.3675 43.4706 49.264 45.1927 50.1098C46.6666 50.8341 48.1506 51.5128 49.7461 51.9281C51.1187 52.2827 52.7851 52.7132 54.2286 52.2016C56.4318 51.4166 57.7335 48.6309 56.9839 46.3567C56.2647 44.1687 53.9348 42.8467 51.8329 43.9863L51.8278 43.9813Z" fill="url(#paint21_linear_220_301)"/>
<path d="M33.9971 63.6179C35.4102 63.9927 37.0715 63.7648 38.2517 62.6758C39.4318 61.5869 39.9231 59.5356 39.0772 58.2643C38.2314 56.993 36.0332 57.155 35.39 58.6796C35.0354 59.5204 35.162 60.5536 34.6353 61.288C34.1845 61.911 33.364 62.0984 32.7157 61.8756C32.0674 61.6578 31.5659 61.1108 31.181 60.503C28.2889 55.8989 31.804 49.5982 36.6815 48.6308C41.1184 47.7495 44.6537 50.91 47.7231 54.1363C49.3438 55.8382 50.1188 59.728 47.2976 61.0297C47.0241 61.1563 46.6746 61.3387 46.6949 61.6476C46.705 61.7641 46.7658 61.8604 46.8367 61.9465C47.3584 62.6049 48.189 62.9189 49.0146 62.8987C50.0732 62.8683 51.2229 62.3567 52.0333 61.5261C52.3879 61.1614 52.8083 59.8648 53.178 59.6875C53.5832 59.49 55.0166 60.4422 55.4066 60.6296C59.0888 62.4124 63.0192 64.8841 67.3649 63.623C68.3019 63.3495 67.841 62.4783 67.3142 62.1035C66.2303 61.3387 65.3997 60.1484 64.2601 59.4849C64.4323 59.0443 64.8425 58.6543 65.0299 58.163C65.2427 57.6058 65.3288 56.998 65.2984 56.4156C65.1768 54.2022 63.6472 52.9208 61.991 52.627C61.7023 52.5764 61.4997 52.941 61.6719 53.2297C62.7203 54.967 60.4006 56.0864 59.3876 56.1674C58.2227 56.2535 57.0628 56.1015 55.9232 55.9141C53.6693 55.5444 51.77 54.4099 50.0124 52.9967C47.1862 50.0844 43.9092 47.5519 40.0649 46.5896C37.2235 45.8805 33.8756 46.4022 31.6318 48.7219C30.7657 49.6134 30.1123 50.7226 29.6666 51.9179C29.4488 52.5004 29.2817 53.1031 29.1652 53.7109C28.3497 57.9249 30.325 62.6353 34.0022 63.6078L33.9971 63.6179Z" fill="url(#paint22_linear_220_301)"/>
<path d="M44.2637 45.7084C43.8281 44.8271 43.0988 44.0876 42.7341 43.181C42.4302 43.262 42.1466 43.5153 41.8123 43.6014C41.4274 43.6976 41.0222 43.6926 40.6423 43.6064C39.1887 43.2722 38.4441 42.0059 38.358 40.7599C38.3428 40.5422 38.5961 40.4358 38.7733 40.5928C39.8522 41.5551 40.7436 39.9698 40.8601 39.2405C40.9968 38.3946 40.9715 37.5235 40.9209 36.6675C40.8246 34.9707 40.2016 33.4512 39.3811 32.0077C39.0874 31.5975 38.7987 31.1822 38.5201 30.7567C38.5859 31.0657 38.6416 31.3746 38.6872 31.6887C38.8341 32.7371 39.0063 34.0084 38.5758 35.0113C37.9123 36.5459 35.9927 37.1942 34.5391 36.394C33.1411 35.6241 32.4219 33.7703 33.3083 32.3471C33.4349 32.1445 33.597 31.9672 33.7844 31.8203C34.22 31.481 34.7974 31.329 35.3444 31.4101C35.8458 31.4861 36.4435 31.8102 36.6258 32.3116C36.7271 32.5953 36.7322 33.0055 36.5802 33.274C36.4789 33.4512 36.3168 33.5931 36.1244 33.669C35.7648 33.8109 35.5014 33.6032 35.157 33.6285C33.9718 33.7146 34.5087 34.6972 34.8733 34.991C35.1215 35.1885 35.4305 35.2848 35.7394 35.3202C38.824 35.695 38.2415 31.7646 37.73 29.8906C37.6337 29.531 37.5172 29.1714 37.3957 28.8168C37.34 28.7054 37.2842 28.594 37.2285 28.4826C36.7474 28.3205 36.2763 28.1381 35.8104 27.9356C35.4457 27.8393 35.081 27.7481 34.7163 27.6722C32.8119 27.2872 28.8511 26.9732 29.4336 30.0223C29.4893 30.3262 29.6058 30.6301 29.8185 30.8631C30.1376 31.2075 31.1557 31.6735 31.1607 30.4883C31.1607 30.1438 30.9379 29.8906 31.0544 29.5259C31.1152 29.3284 31.2469 29.1613 31.4191 29.0448C31.6774 28.8776 32.0876 28.8523 32.3763 28.9333C32.8879 29.0802 33.2526 29.6576 33.364 30.1489C33.4855 30.6909 33.364 31.2733 33.0601 31.7292C32.9284 31.9267 32.7613 32.0989 32.5688 32.2407C31.2114 33.2233 29.307 32.6307 28.451 31.2835C27.5596 29.8855 28.0762 27.9254 29.5602 27.1606C30.5327 26.6643 31.8141 26.7504 32.8676 26.8263C33.1817 26.8466 33.4957 26.882 33.8097 26.9276C33.3691 26.6794 32.9335 26.4211 32.503 26.1527C31.0037 25.4335 29.4488 24.9118 27.747 24.927C26.891 24.9371 26.0198 24.9675 25.1841 25.16C24.4598 25.3271 22.9404 26.3198 23.9736 27.3328C24.1458 27.5 24.0496 27.7633 23.8318 27.7583C22.5808 27.7583 21.2689 27.0948 20.8384 25.6715C20.727 25.2967 20.6966 24.8915 20.7624 24.5015C20.8232 24.1622 21.0613 23.8633 21.117 23.5544C20.185 23.2555 19.4 22.5768 18.4934 22.197C18.0527 22.0146 17.5817 21.498 18.2249 21.2144C21.198 19.8975 24.4446 21.0574 27.3975 21.7968C27.7065 21.8728 28.8967 22.3287 29.1652 22.1565C29.4032 21.9994 29.5096 21.108 29.7172 20.8295C30.1782 20.2014 30.9379 19.7304 31.7027 19.5936C32.3004 19.4822 32.9537 19.5936 33.4349 19.9633C33.4957 20.014 33.5615 20.0697 33.5818 20.1457C33.6426 20.3483 33.4146 20.5053 33.2374 20.6167C31.3836 21.7867 32.5435 24.2331 33.987 25.1549C34.7771 25.6614 35.5926 26.1578 36.4283 26.5832C36.1345 25.7374 35.9167 24.8713 35.8002 23.9798C35.5166 21.8171 36.0788 19.4163 37.7553 18.0184C38.3985 17.4815 39.1735 17.1219 39.994 16.9244C40.3941 16.8281 40.7993 16.7724 41.2096 16.7522C44.0409 16.6154 47.0241 18.5857 47.4242 21.3917C47.4648 21.6804 47.4749 21.9741 47.4546 22.2628C47.5205 22.6072 47.561 22.9516 47.5661 23.3011C47.5762 23.7114 47.5458 24.1217 47.4749 24.5268C47.3331 25.3575 47.0292 26.1527 46.5379 26.8314C45.2564 28.599 42.9013 29.3183 40.7233 29.1866C40.232 29.1562 39.7458 29.0903 39.2596 29.0042C39.5837 29.4905 39.9231 29.9666 40.2675 30.4326C41.2855 31.8102 43.8028 32.808 44.8462 30.8783C44.9475 30.6909 45.0893 30.4528 45.2919 30.5035C45.3679 30.5237 45.4287 30.5794 45.4793 30.6402C45.8794 31.0961 46.0364 31.7393 45.9655 32.342C45.8794 33.117 45.4641 33.9071 44.8614 34.4085C44.598 34.6314 43.7116 34.7985 43.5749 35.0467C43.4179 35.3253 43.9548 36.4801 44.051 36.784C44.988 39.6811 46.3606 42.8416 45.2463 45.8958C45.0083 46.5542 44.4613 46.1187 44.2485 45.6932L44.2637 45.7084ZM42.572 18.2413C41.9136 18.1805 41.24 18.1653 40.5866 18.2717C39.842 18.3983 39.1178 18.7275 38.6062 19.2897C37.9883 19.9735 37.6084 20.8497 37.3653 21.7259C36.8183 23.7063 37.345 25.6006 38.2871 27.3835C38.8544 27.5709 39.4318 27.7127 40.0244 27.7836C41.3413 27.9406 42.7544 27.7228 43.8585 26.953C45.9352 25.5044 47.2672 22.1463 45.7123 19.8924C45.3881 19.4214 44.9981 18.9807 44.5018 18.7022C44.2587 18.5654 44.0003 18.4743 43.7319 18.4084C43.3571 18.3172 42.962 18.2716 42.572 18.2362V18.2413Z" fill="url(#paint23_linear_220_301)"/>
</g>
<defs>
<linearGradient id="paint0_linear_220_301" x1="464.521" y1="-30.0885" x2="-69.1306" y2="272.171" gradientUnits="userSpaceOnUse">
<stop stop-color="#EEDEBC"/>
<stop offset="0.06" stop-color="#DDC5A3"/>
<stop offset="0.14" stop-color="#C9A885"/>
<stop offset="0.26" stop-color="#9A7A5F"/>
<stop offset="0.36" stop-color="#C9A885"/>
<stop offset="0.49" stop-color="#EEDEBC"/>
<stop offset="0.54" stop-color="#DDC5A3"/>
<stop offset="0.61" stop-color="#C9A885"/>
<stop offset="0.72" stop-color="#9A7A5F"/>
<stop offset="0.84" stop-color="#C9A885"/>
<stop offset="1" stop-color="#EEDEBC"/>
</linearGradient>
<linearGradient id="paint1_linear_220_301" x1="466.623" y1="-26.3758" x2="-67.0287" y2="275.884" gradientUnits="userSpaceOnUse">
<stop stop-color="#EEDEBC"/>
<stop offset="0.06" stop-color="#DDC5A3"/>
<stop offset="0.14" stop-color="#C9A885"/>
<stop offset="0.26" stop-color="#9A7A5F"/>
<stop offset="0.36" stop-color="#C9A885"/>
<stop offset="0.49" stop-color="#EEDEBC"/>
<stop offset="0.54" stop-color="#DDC5A3"/>
<stop offset="0.61" stop-color="#C9A885"/>
<stop offset="0.72" stop-color="#9A7A5F"/>
<stop offset="0.84" stop-color="#C9A885"/>
<stop offset="1" stop-color="#EEDEBC"/>
</linearGradient>
<linearGradient id="paint2_linear_220_301" x1="463.136" y1="-32.5345" x2="-70.5106" y2="269.725" gradientUnits="userSpaceOnUse">
<stop stop-color="#EEDEBC"/>
<stop offset="0.06" stop-color="#DDC5A3"/>
<stop offset="0.14" stop-color="#C9A885"/>
<stop offset="0.26" stop-color="#9A7A5F"/>
<stop offset="0.36" stop-color="#C9A885"/>
<stop offset="0.49" stop-color="#EEDEBC"/>
<stop offset="0.54" stop-color="#DDC5A3"/>
<stop offset="0.61" stop-color="#C9A885"/>
<stop offset="0.72" stop-color="#9A7A5F"/>
<stop offset="0.84" stop-color="#C9A885"/>
<stop offset="1" stop-color="#EEDEBC"/>
</linearGradient>
<linearGradient id="paint3_linear_220_301" x1="458.324" y1="-41.0286" x2="-75.3226" y2="261.226" gradientUnits="userSpaceOnUse">
<stop stop-color="#EEDEBC"/>
<stop offset="0.06" stop-color="#DDC5A3"/>
<stop offset="0.14" stop-color="#C9A885"/>
<stop offset="0.26" stop-color="#9A7A5F"/>
<stop offset="0.36" stop-color="#C9A885"/>
<stop offset="0.49" stop-color="#EEDEBC"/>
<stop offset="0.54" stop-color="#DDC5A3"/>
<stop offset="0.61" stop-color="#C9A885"/>
<stop offset="0.72" stop-color="#9A7A5F"/>
<stop offset="0.84" stop-color="#C9A885"/>
<stop offset="1" stop-color="#EEDEBC"/>
</linearGradient>
<linearGradient id="paint4_linear_220_301" x1="460.867" y1="-36.5411" x2="-72.7795" y2="265.719" gradientUnits="userSpaceOnUse">
<stop stop-color="#EEDEBC"/>
<stop offset="0.06" stop-color="#DDC5A3"/>
<stop offset="0.14" stop-color="#C9A885"/>
<stop offset="0.26" stop-color="#9A7A5F"/>
<stop offset="0.36" stop-color="#C9A885"/>
<stop offset="0.49" stop-color="#EEDEBC"/>
<stop offset="0.54" stop-color="#DDC5A3"/>
<stop offset="0.61" stop-color="#C9A885"/>
<stop offset="0.72" stop-color="#9A7A5F"/>
<stop offset="0.84" stop-color="#C9A885"/>
<stop offset="1" stop-color="#EEDEBC"/>
</linearGradient>
<linearGradient id="paint5_linear_220_301" x1="469.84" y1="-20.7032" x2="-63.8111" y2="281.557" gradientUnits="userSpaceOnUse">
<stop stop-color="#EEDEBC"/>
<stop offset="0.06" stop-color="#DDC5A3"/>
<stop offset="0.14" stop-color="#C9A885"/>
<stop offset="0.26" stop-color="#9A7A5F"/>
<stop offset="0.36" stop-color="#C9A885"/>
<stop offset="0.49" stop-color="#EEDEBC"/>
<stop offset="0.54" stop-color="#DDC5A3"/>
<stop offset="0.61" stop-color="#C9A885"/>
<stop offset="0.72" stop-color="#9A7A5F"/>
<stop offset="0.84" stop-color="#C9A885"/>
<stop offset="1" stop-color="#EEDEBC"/>
</linearGradient>
<linearGradient id="paint6_linear_220_301" x1="472.95" y1="-15.2076" x2="-60.7012" y2="287.053" gradientUnits="userSpaceOnUse">
<stop stop-color="#EEDEBC"/>
<stop offset="0.06" stop-color="#DDC5A3"/>
<stop offset="0.14" stop-color="#C9A885"/>
<stop offset="0.26" stop-color="#9A7A5F"/>
<stop offset="0.36" stop-color="#C9A885"/>
<stop offset="0.49" stop-color="#EEDEBC"/>
<stop offset="0.54" stop-color="#DDC5A3"/>
<stop offset="0.61" stop-color="#C9A885"/>
<stop offset="0.72" stop-color="#9A7A5F"/>
<stop offset="0.84" stop-color="#C9A885"/>
<stop offset="1" stop-color="#EEDEBC"/>
</linearGradient>
<linearGradient id="paint7_linear_220_301" x1="453.388" y1="-49.7501" x2="-80.2636" y2="252.505" gradientUnits="userSpaceOnUse">
<stop stop-color="#EEDEBC"/>
<stop offset="0.06" stop-color="#DDC5A3"/>
<stop offset="0.14" stop-color="#C9A885"/>
<stop offset="0.26" stop-color="#9A7A5F"/>
<stop offset="0.36" stop-color="#C9A885"/>
<stop offset="0.49" stop-color="#EEDEBC"/>
<stop offset="0.54" stop-color="#DDC5A3"/>
<stop offset="0.61" stop-color="#C9A885"/>
<stop offset="0.72" stop-color="#9A7A5F"/>
<stop offset="0.84" stop-color="#C9A885"/>
<stop offset="1" stop-color="#EEDEBC"/>
</linearGradient>
<linearGradient id="paint8_linear_220_301" x1="455.53" y1="-45.9717" x2="-78.1212" y2="256.288" gradientUnits="userSpaceOnUse">
<stop stop-color="#EEDEBC"/>
<stop offset="0.06" stop-color="#DDC5A3"/>
<stop offset="0.14" stop-color="#C9A885"/>
<stop offset="0.26" stop-color="#9A7A5F"/>
<stop offset="0.36" stop-color="#C9A885"/>
<stop offset="0.49" stop-color="#EEDEBC"/>
<stop offset="0.54" stop-color="#DDC5A3"/>
<stop offset="0.61" stop-color="#C9A885"/>
<stop offset="0.72" stop-color="#9A7A5F"/>
<stop offset="0.84" stop-color="#C9A885"/>
<stop offset="1" stop-color="#EEDEBC"/>
</linearGradient>
<linearGradient id="paint9_linear_220_301" x1="456.966" y1="-43.4241" x2="-76.6802" y2="258.831" gradientUnits="userSpaceOnUse">
<stop stop-color="#EEDEBC"/>
<stop offset="0.06" stop-color="#DDC5A3"/>
<stop offset="0.14" stop-color="#C9A885"/>
<stop offset="0.26" stop-color="#9A7A5F"/>
<stop offset="0.36" stop-color="#C9A885"/>
<stop offset="0.49" stop-color="#EEDEBC"/>
<stop offset="0.54" stop-color="#DDC5A3"/>
<stop offset="0.61" stop-color="#C9A885"/>
<stop offset="0.72" stop-color="#9A7A5F"/>
<stop offset="0.84" stop-color="#C9A885"/>
<stop offset="1" stop-color="#EEDEBC"/>
</linearGradient>
<linearGradient id="paint10_linear_220_301" x1="461.592" y1="-35.2648" x2="-72.0542" y2="266.995" gradientUnits="userSpaceOnUse">
<stop stop-color="#EEDEBC"/>
<stop offset="0.06" stop-color="#DDC5A3"/>
<stop offset="0.14" stop-color="#C9A885"/>
<stop offset="0.26" stop-color="#9A7A5F"/>
<stop offset="0.36" stop-color="#C9A885"/>
<stop offset="0.49" stop-color="#EEDEBC"/>
<stop offset="0.54" stop-color="#DDC5A3"/>
<stop offset="0.61" stop-color="#C9A885"/>
<stop offset="0.72" stop-color="#9A7A5F"/>
<stop offset="0.84" stop-color="#C9A885"/>
<stop offset="1" stop-color="#EEDEBC"/>
</linearGradient>
<linearGradient id="paint11_linear_220_301" x1="451.168" y1="-53.6706" x2="-82.4829" y2="248.589" gradientUnits="userSpaceOnUse">
<stop stop-color="#EEDEBC"/>
<stop offset="0.06" stop-color="#DDC5A3"/>
<stop offset="0.14" stop-color="#C9A885"/>
<stop offset="0.26" stop-color="#9A7A5F"/>
<stop offset="0.36" stop-color="#C9A885"/>
<stop offset="0.49" stop-color="#EEDEBC"/>
<stop offset="0.54" stop-color="#DDC5A3"/>
<stop offset="0.61" stop-color="#C9A885"/>
<stop offset="0.72" stop-color="#9A7A5F"/>
<stop offset="0.84" stop-color="#C9A885"/>
<stop offset="1" stop-color="#EEDEBC"/>
</linearGradient>
<linearGradient id="paint12_linear_220_301" x1="-119.755" y1="-30.0885" x2="413.896" y2="272.171" gradientUnits="userSpaceOnUse">
<stop stop-color="#EEDEBC"/>
<stop offset="0.06" stop-color="#DDC5A3"/>
<stop offset="0.14" stop-color="#C9A885"/>
<stop offset="0.26" stop-color="#9A7A5F"/>
<stop offset="0.36" stop-color="#C9A885"/>
<stop offset="0.49" stop-color="#EEDEBC"/>
<stop offset="0.54" stop-color="#DDC5A3"/>
<stop offset="0.61" stop-color="#C9A885"/>
<stop offset="0.72" stop-color="#9A7A5F"/>
<stop offset="0.84" stop-color="#C9A885"/>
<stop offset="1" stop-color="#EEDEBC"/>
</linearGradient>
<linearGradient id="paint13_linear_220_301" x1="-121.857" y1="-26.3758" x2="411.794" y2="275.884" gradientUnits="userSpaceOnUse">
<stop stop-color="#EEDEBC"/>
<stop offset="0.06" stop-color="#DDC5A3"/>
<stop offset="0.14" stop-color="#C9A885"/>
<stop offset="0.26" stop-color="#9A7A5F"/>
<stop offset="0.36" stop-color="#C9A885"/>
<stop offset="0.49" stop-color="#EEDEBC"/>
<stop offset="0.54" stop-color="#DDC5A3"/>
<stop offset="0.61" stop-color="#C9A885"/>
<stop offset="0.72" stop-color="#9A7A5F"/>
<stop offset="0.84" stop-color="#C9A885"/>
<stop offset="1" stop-color="#EEDEBC"/>
</linearGradient>
<linearGradient id="paint14_linear_220_301" x1="-118.37" y1="-32.5345" x2="415.276" y2="269.725" gradientUnits="userSpaceOnUse">
<stop stop-color="#EEDEBC"/>
<stop offset="0.06" stop-color="#DDC5A3"/>
<stop offset="0.14" stop-color="#C9A885"/>
<stop offset="0.26" stop-color="#9A7A5F"/>
<stop offset="0.36" stop-color="#C9A885"/>
<stop offset="0.49" stop-color="#EEDEBC"/>
<stop offset="0.54" stop-color="#DDC5A3"/>
<stop offset="0.61" stop-color="#C9A885"/>
<stop offset="0.72" stop-color="#9A7A5F"/>
<stop offset="0.84" stop-color="#C9A885"/>
<stop offset="1" stop-color="#EEDEBC"/>
</linearGradient>
<linearGradient id="paint15_linear_220_301" x1="-113.558" y1="-41.0286" x2="420.088" y2="261.226" gradientUnits="userSpaceOnUse">
<stop stop-color="#EEDEBC"/>
<stop offset="0.06" stop-color="#DDC5A3"/>
<stop offset="0.14" stop-color="#C9A885"/>
<stop offset="0.26" stop-color="#9A7A5F"/>
<stop offset="0.36" stop-color="#C9A885"/>
<stop offset="0.49" stop-color="#EEDEBC"/>
<stop offset="0.54" stop-color="#DDC5A3"/>
<stop offset="0.61" stop-color="#C9A885"/>
<stop offset="0.72" stop-color="#9A7A5F"/>
<stop offset="0.84" stop-color="#C9A885"/>
<stop offset="1" stop-color="#EEDEBC"/>
</linearGradient>
<linearGradient id="paint16_linear_220_301" x1="-116.102" y1="-36.5411" x2="417.545" y2="265.719" gradientUnits="userSpaceOnUse">
<stop stop-color="#EEDEBC"/>
<stop offset="0.06" stop-color="#DDC5A3"/>
<stop offset="0.14" stop-color="#C9A885"/>
<stop offset="0.26" stop-color="#9A7A5F"/>
<stop offset="0.36" stop-color="#C9A885"/>
<stop offset="0.49" stop-color="#EEDEBC"/>
<stop offset="0.54" stop-color="#DDC5A3"/>
<stop offset="0.61" stop-color="#C9A885"/>
<stop offset="0.72" stop-color="#9A7A5F"/>
<stop offset="0.84" stop-color="#C9A885"/>
<stop offset="1" stop-color="#EEDEBC"/>
</linearGradient>
<linearGradient id="paint17_linear_220_301" x1="-125.075" y1="-20.7032" x2="408.577" y2="281.557" gradientUnits="userSpaceOnUse">
<stop stop-color="#EEDEBC"/>
<stop offset="0.06" stop-color="#DDC5A3"/>
<stop offset="0.14" stop-color="#C9A885"/>
<stop offset="0.26" stop-color="#9A7A5F"/>
<stop offset="0.36" stop-color="#C9A885"/>
<stop offset="0.49" stop-color="#EEDEBC"/>
<stop offset="0.54" stop-color="#DDC5A3"/>
<stop offset="0.61" stop-color="#C9A885"/>
<stop offset="0.72" stop-color="#9A7A5F"/>
<stop offset="0.84" stop-color="#C9A885"/>
<stop offset="1" stop-color="#EEDEBC"/>
</linearGradient>
<linearGradient id="paint18_linear_220_301" x1="-128.184" y1="-15.2076" x2="405.467" y2="287.053" gradientUnits="userSpaceOnUse">
<stop stop-color="#EEDEBC"/>
<stop offset="0.06" stop-color="#DDC5A3"/>
<stop offset="0.14" stop-color="#C9A885"/>
<stop offset="0.26" stop-color="#9A7A5F"/>
<stop offset="0.36" stop-color="#C9A885"/>
<stop offset="0.49" stop-color="#EEDEBC"/>
<stop offset="0.54" stop-color="#DDC5A3"/>
<stop offset="0.61" stop-color="#C9A885"/>
<stop offset="0.72" stop-color="#9A7A5F"/>
<stop offset="0.84" stop-color="#C9A885"/>
<stop offset="1" stop-color="#EEDEBC"/>
</linearGradient>
<linearGradient id="paint19_linear_220_301" x1="-108.622" y1="-49.7501" x2="425.029" y2="252.505" gradientUnits="userSpaceOnUse">
<stop stop-color="#EEDEBC"/>
<stop offset="0.06" stop-color="#DDC5A3"/>
<stop offset="0.14" stop-color="#C9A885"/>
<stop offset="0.26" stop-color="#9A7A5F"/>
<stop offset="0.36" stop-color="#C9A885"/>
<stop offset="0.49" stop-color="#EEDEBC"/>
<stop offset="0.54" stop-color="#DDC5A3"/>
<stop offset="0.61" stop-color="#C9A885"/>
<stop offset="0.72" stop-color="#9A7A5F"/>
<stop offset="0.84" stop-color="#C9A885"/>
<stop offset="1" stop-color="#EEDEBC"/>
</linearGradient>
<linearGradient id="paint20_linear_220_301" x1="-110.764" y1="-45.9717" x2="422.887" y2="256.288" gradientUnits="userSpaceOnUse">
<stop stop-color="#EEDEBC"/>
<stop offset="0.06" stop-color="#DDC5A3"/>
<stop offset="0.14" stop-color="#C9A885"/>
<stop offset="0.26" stop-color="#9A7A5F"/>
<stop offset="0.36" stop-color="#C9A885"/>
<stop offset="0.49" stop-color="#EEDEBC"/>
<stop offset="0.54" stop-color="#DDC5A3"/>
<stop offset="0.61" stop-color="#C9A885"/>
<stop offset="0.72" stop-color="#9A7A5F"/>
<stop offset="0.84" stop-color="#C9A885"/>
<stop offset="1" stop-color="#EEDEBC"/>
</linearGradient>
<linearGradient id="paint21_linear_220_301" x1="-112.2" y1="-43.4241" x2="421.446" y2="258.831" gradientUnits="userSpaceOnUse">
<stop stop-color="#EEDEBC"/>
<stop offset="0.06" stop-color="#DDC5A3"/>
<stop offset="0.14" stop-color="#C9A885"/>
<stop offset="0.26" stop-color="#9A7A5F"/>
<stop offset="0.36" stop-color="#C9A885"/>
<stop offset="0.49" stop-color="#EEDEBC"/>
<stop offset="0.54" stop-color="#DDC5A3"/>
<stop offset="0.61" stop-color="#C9A885"/>
<stop offset="0.72" stop-color="#9A7A5F"/>
<stop offset="0.84" stop-color="#C9A885"/>
<stop offset="1" stop-color="#EEDEBC"/>
</linearGradient>
<linearGradient id="paint22_linear_220_301" x1="-116.826" y1="-35.2648" x2="416.82" y2="266.995" gradientUnits="userSpaceOnUse">
<stop stop-color="#EEDEBC"/>
<stop offset="0.06" stop-color="#DDC5A3"/>
<stop offset="0.14" stop-color="#C9A885"/>
<stop offset="0.26" stop-color="#9A7A5F"/>
<stop offset="0.36" stop-color="#C9A885"/>
<stop offset="0.49" stop-color="#EEDEBC"/>
<stop offset="0.54" stop-color="#DDC5A3"/>
<stop offset="0.61" stop-color="#C9A885"/>
<stop offset="0.72" stop-color="#9A7A5F"/>
<stop offset="0.84" stop-color="#C9A885"/>
<stop offset="1" stop-color="#EEDEBC"/>
</linearGradient>
<linearGradient id="paint23_linear_220_301" x1="-106.403" y1="-53.6706" x2="427.249" y2="248.589" gradientUnits="userSpaceOnUse">
<stop stop-color="#EEDEBC"/>
<stop offset="0.06" stop-color="#DDC5A3"/>
<stop offset="0.14" stop-color="#C9A885"/>
<stop offset="0.26" stop-color="#9A7A5F"/>
<stop offset="0.36" stop-color="#C9A885"/>
<stop offset="0.49" stop-color="#EEDEBC"/>
<stop offset="0.54" stop-color="#DDC5A3"/>
<stop offset="0.61" stop-color="#C9A885"/>
<stop offset="0.72" stop-color="#9A7A5F"/>
<stop offset="0.84" stop-color="#C9A885"/>
<stop offset="1" stop-color="#EEDEBC"/>
</linearGradient>
<clipPath id="clip0_220_301">
<rect width="344.766" height="63.9679" fill="white"/>
</clipPath>
</defs>
</svg>
