<svg width="1581" height="847" viewBox="0 0 1581 847" fill="none" xmlns="http://www.w3.org/2000/svg">
<g clip-path="url(#clip0_224_706)">
<g style="mix-blend-mode:color-burn">
<path d="M1.49102 59.471C2.71102 53.921 8.90102 52.781 12.971 52.651C17.231 52.511 21.281 51.171 24.491 48.641C35.991 39.561 26.551 25.771 26.551 25.771C26.551 25.771 29.571 43.831 17.581 46.831C17.581 46.831 9.51102 49.261 1.96102 42.441C1.96102 42.441 3.18102 47.651 8.41102 49.181C5.40102 49.991 1.05102 52.021 1.49102 59.481V59.471Z" fill="url(#paint0_linear_224_706)"/>
<path d="M68.751 2.5209C63.081 2.8109 60.931 8.72092 60.131 12.7209C59.291 16.9009 57.301 20.6709 54.271 23.4209C43.421 33.2709 31.371 21.6909 31.371 21.6909C31.371 21.6909 48.691 27.6409 53.621 16.3109C53.621 16.3109 57.341 8.75091 51.861 0.180908C51.861 0.180908 56.801 2.24091 57.451 7.65091C58.741 4.81091 61.461 0.860905 68.751 2.5209Z" fill="url(#paint1_linear_224_706)"/>
<path d="M31.191 47.611C35.791 45.031 35.241 37.081 34.101 31.261C33.961 30.561 33.811 29.891 33.671 29.271C34.251 29.521 34.881 29.781 35.531 30.011C41.081 32.091 48.851 33.961 52.151 29.851C53.141 37.271 46.221 38.831 37.001 33.201C41.021 43.241 38.341 49.801 31.191 47.601V47.611Z" fill="url(#paint2_linear_224_706)"/>
<path d="M59.851 39.291C55.251 41.871 55.801 49.821 56.941 55.641C57.081 56.341 57.231 57.011 57.371 57.631C56.791 57.381 56.161 57.121 55.511 56.891C49.961 54.811 42.191 52.941 38.891 57.051C37.901 49.631 44.821 48.071 54.041 53.701C50.021 43.661 52.701 37.101 59.851 39.301V39.291Z" fill="url(#paint3_linear_224_706)"/>
<path d="M45.331 39.341C47.811 41.351 48.561 46.261 48.561 46.261C48.561 46.261 43.841 44.711 42.271 41.941C41.101 39.871 43.491 37.851 45.341 39.341H45.331Z" fill="url(#paint4_linear_224_706)"/>
<path d="M29.4311 3.51096C24.8311 6.09096 25.3811 14.0409 26.5211 19.8609C26.6611 20.5609 26.8111 21.231 26.9511 21.851C26.3711 21.601 25.7411 21.3409 25.0911 21.1109C19.5411 19.0309 11.7711 17.1609 8.47106 21.2709C7.48106 13.8509 14.4011 12.2909 23.6211 17.9209C19.6011 7.88093 22.2811 1.32094 29.4311 3.52094V3.51096Z" fill="url(#paint5_linear_224_706)"/>
<path d="M13.411 8.95099C10.931 6.94099 10.181 2.03101 10.181 2.03101C10.181 2.03101 14.901 3.58101 16.471 6.35101C17.641 8.42101 15.251 10.441 13.401 8.95099H13.411Z" fill="url(#paint6_linear_224_706)"/>
<path d="M39.4611 94.551C39.1411 93.961 38.7111 93.421 38.1911 92.951C36.9911 91.861 35.3411 91.201 33.7111 91.181C32.2211 91.161 30.3611 91.751 29.7011 93.001C29.3311 93.711 29.2111 94.801 29.5811 95.571C29.8311 96.091 30.2711 96.541 30.8211 96.821C31.8411 97.361 32.6811 96.921 33.6911 97.141C37.1611 97.881 35.3211 100.261 34.1711 100.881C33.3911 101.301 32.4511 101.411 31.5311 101.371C22.3411 101.001 25.0811 90.851 27.0811 86.111C29.1211 81.271 32.4511 76.841 33.7911 71.741C34.4911 69.081 34.3211 65.481 32.0811 63.321C31.8311 63.621 31.5911 63.911 31.3411 64.211C31.2011 64.551 31.0511 64.891 30.8911 65.231C31.4611 67.041 31.3411 69.221 31.1911 70.721C30.8011 74.551 29.0311 78.051 27.3611 81.451C25.9311 84.361 24.5911 87.291 23.7711 90.441C23.0711 93.151 22.2211 96.441 23.2311 99.291C24.7811 103.641 30.2811 106.211 34.7711 104.731C39.0911 103.311 41.7011 98.711 39.4511 94.561L39.4611 94.551Z" fill="url(#paint7_linear_224_706)"/>
<path d="M0.691013 59.351C-0.0489871 62.151 0.401013 65.421 2.55101 67.751C4.70101 70.081 8.75101 71.051 11.261 69.381C13.771 67.711 13.451 63.371 10.441 62.101C8.78101 61.401 6.74101 61.651 5.29101 60.611C4.06101 59.721 3.69101 58.101 4.13101 56.821C4.56101 55.541 5.64101 54.551 6.84101 53.791C15.931 48.081 28.371 55.021 30.281 64.651C32.021 73.411 25.781 80.391 19.411 86.451C16.051 89.651 8.37101 91.181 5.80101 85.611C5.55101 85.071 5.19101 84.381 4.58101 84.421C4.35101 84.441 4.16101 84.561 3.99101 84.701C2.69101 85.731 2.07101 87.371 2.11101 89.001C2.17101 91.091 3.18101 93.361 4.82101 94.961C5.54101 95.661 8.10101 96.491 8.45101 97.221C8.84101 98.021 6.96101 100.851 6.59101 101.621C3.07101 108.891 -1.80899 116.651 0.681011 125.231C1.22101 127.081 2.94101 126.171 3.68101 125.131C5.19101 122.991 7.54101 121.351 8.85101 119.101C9.72101 119.441 10.491 120.251 11.461 120.621C12.561 121.041 13.761 121.211 14.911 121.151C19.281 120.911 21.811 117.891 22.391 114.621C22.491 114.051 21.771 113.651 21.201 113.991C17.771 116.061 15.561 111.481 15.401 109.481C15.231 107.181 15.531 104.891 15.901 102.641C16.631 98.191 18.871 94.441 21.661 90.971C27.411 85.391 32.411 78.921 34.311 71.331C35.711 65.721 34.681 59.111 30.101 54.681C28.341 52.981 26.151 51.681 23.791 50.801C22.641 50.371 21.451 50.041 20.251 49.811C11.931 48.201 2.63101 52.101 0.711013 59.361L0.691013 59.351Z" fill="url(#paint8_linear_224_706)"/>
<path d="M102.321 39.4611C101.731 39.1411 101.191 38.7111 100.721 38.1911C99.6311 36.9911 98.9711 35.3411 98.9511 33.7111C98.9311 32.2211 99.5211 30.3611 100.771 29.7011C101.481 29.3311 102.571 29.2111 103.341 29.5811C103.861 29.8311 104.311 30.2711 104.591 30.8211C105.131 31.8411 104.691 32.6811 104.911 33.6911C105.651 37.1611 108.031 35.3211 108.651 34.1711C109.071 33.3911 109.181 32.4511 109.141 31.5311C108.771 22.3411 98.6211 25.0811 93.8811 27.0811C89.0411 29.1211 84.6111 32.4511 79.5111 33.7911C76.8511 34.4911 73.2511 34.3211 71.0911 32.0811C71.3911 31.8311 71.6811 31.5911 71.9811 31.3411C72.3211 31.2011 72.6611 31.0511 73.0011 30.8911C74.8111 31.4611 76.9911 31.3511 78.4911 31.1911C82.3211 30.8011 85.8211 29.0311 89.2211 27.3611C92.1311 25.9311 95.0611 24.5911 98.2111 23.7711C100.921 23.0711 104.211 22.2211 107.061 23.2311C111.411 24.7811 113.981 30.2811 112.501 34.7711C111.081 39.0911 106.481 41.701 102.331 39.451L102.321 39.4611Z" fill="url(#paint9_linear_224_706)"/>
<path d="M67.121 0.69102C69.911 -0.0489798 73.191 0.401006 75.521 2.55101C77.851 4.70101 78.821 8.75103 77.151 11.261C75.481 13.771 71.141 13.451 69.871 10.441C69.171 8.78102 69.421 6.74103 68.381 5.29103C67.491 4.06103 65.871 3.69102 64.591 4.13102C63.311 4.56102 62.321 5.64101 61.561 6.84101C55.851 15.931 62.791 28.371 72.421 30.281C81.181 32.021 88.161 25.781 94.221 19.411C97.421 16.051 98.951 8.37101 93.381 5.80101C92.841 5.55101 92.151 5.191 92.191 4.581C92.211 4.351 92.331 4.16101 92.471 3.99101C93.501 2.69101 95.141 2.071 96.771 2.111C98.861 2.171 101.131 3.18102 102.731 4.82102C103.431 5.54102 104.261 8.101 104.991 8.451C105.791 8.841 108.621 6.96101 109.391 6.59101C116.661 3.07101 124.421 -1.80899 133.001 0.68101C134.851 1.22101 133.941 2.94101 132.901 3.68101C130.761 5.19101 129.121 7.54102 126.871 8.85102C127.211 9.72102 128.021 10.491 128.391 11.461C128.811 12.561 128.981 13.761 128.921 14.911C128.681 19.281 125.661 21.811 122.391 22.391C121.821 22.491 121.421 21.771 121.761 21.201C123.831 17.771 119.251 15.561 117.251 15.401C114.951 15.231 112.661 15.531 110.411 15.901C105.961 16.631 102.211 18.871 98.741 21.661C93.161 27.411 86.691 32.411 79.101 34.311C73.491 35.711 66.881 34.681 62.451 30.101C60.741 28.341 59.451 26.151 58.571 23.791C58.141 22.641 57.811 21.451 57.581 20.251C55.971 11.931 59.871 2.63101 67.131 0.711009L67.121 0.69102Z" fill="url(#paint10_linear_224_706)"/>
<path d="M87.391 36.051C86.531 37.791 85.0911 39.251 84.3711 41.041C83.7711 40.881 83.2111 40.381 82.5511 40.211C81.7911 40.021 80.9911 40.031 80.2411 40.201C77.3711 40.861 75.9011 43.361 75.7311 45.821C75.7011 46.251 76.2011 46.461 76.5511 46.151C78.6811 44.251 80.441 47.381 80.671 48.821C80.941 50.491 80.8911 52.211 80.7911 53.901C80.6011 57.251 79.371 60.251 77.751 63.101C77.171 63.911 76.6011 64.731 76.0511 65.571C76.1811 64.961 76.2911 64.351 76.3811 63.731C76.6711 61.661 77.0111 59.151 76.1611 57.171C74.8511 54.141 71.0611 52.861 68.1911 54.441C65.4311 55.961 64.0111 59.621 65.7611 62.431C66.0111 62.831 66.3311 63.181 66.7011 63.471C67.5611 64.141 68.7011 64.441 69.7811 64.281C70.7711 64.131 71.9511 63.491 72.3111 62.501C72.5111 61.941 72.5211 61.131 72.2211 60.601C72.0211 60.251 71.7011 59.971 71.3211 59.821C70.6111 59.541 70.0911 59.951 69.4111 59.901C67.0711 59.731 68.1311 57.791 68.8511 57.211C69.3411 56.821 69.9511 56.631 70.5611 56.561C76.6511 55.821 75.5011 63.581 74.4911 67.281C74.3011 67.991 74.0711 68.701 73.8311 69.401C73.7211 69.621 73.611 69.841 73.501 70.061C72.551 70.381 71.6211 70.741 70.7011 71.141C69.9811 71.331 69.2611 71.511 68.5411 71.661C64.7811 72.421 56.9611 73.041 58.1111 67.021C58.2211 66.421 58.4511 65.821 58.8711 65.361C59.5011 64.681 61.5111 63.761 61.5211 66.101C61.5211 66.781 61.0811 67.281 61.3111 68.001C61.4311 68.391 61.6911 68.721 62.0311 68.951C62.5411 69.281 63.3511 69.331 63.9211 69.171C64.9311 68.881 65.6511 67.741 65.8711 66.771C66.1111 65.701 65.8711 64.551 65.2711 63.651C65.0111 63.261 64.6811 62.921 64.3011 62.641C61.6211 60.701 57.8611 61.871 56.1711 64.531C54.4111 67.291 55.4311 71.161 58.3611 72.671C60.2811 73.651 62.8111 73.481 64.8911 73.331C65.5111 73.291 66.1311 73.221 66.7511 73.131C65.8811 73.621 65.0211 74.131 64.1711 74.661C61.2111 76.081 58.1411 77.111 54.7811 77.081C53.0911 77.061 51.3711 77.001 49.7211 76.621C48.2911 76.291 45.2911 74.331 47.3311 72.331C47.6711 72.001 47.4811 71.481 47.0511 71.491C44.5811 71.491 41.9911 72.801 41.1411 75.611C40.9211 76.351 40.8611 77.151 40.9911 77.921C41.1111 78.591 41.5811 79.181 41.6911 79.791C39.8511 80.381 38.3011 81.721 36.5111 82.471C35.6411 82.831 34.7111 83.851 35.9811 84.411C41.8511 87.011 48.2611 84.721 54.0911 83.261C54.7011 83.111 57.0511 82.211 57.5811 82.551C58.0511 82.861 58.2611 84.621 58.6711 85.171C59.5811 86.411 61.0811 87.341 62.5911 87.611C63.7711 87.831 65.0611 87.611 66.0111 86.881C66.1311 86.781 66.2611 86.671 66.3011 86.521C66.4211 86.121 65.9711 85.811 65.6211 85.591C61.9611 83.281 64.2511 78.451 67.1011 76.631C68.6611 75.631 70.271 74.651 71.921 73.811C71.341 75.481 70.9111 77.191 70.6811 78.951C70.1211 83.221 71.2311 87.961 74.5411 90.721C75.8111 91.781 77.3411 92.491 78.9611 92.881C79.7511 93.071 80.551 93.181 81.361 93.221C86.951 93.491 92.8411 89.601 93.6311 84.061C93.7111 83.491 93.7311 82.911 93.6911 82.341C93.8211 81.661 93.9011 80.981 93.9111 80.291C93.9311 79.481 93.8711 78.671 93.7311 77.871C93.4511 76.231 92.8511 74.661 91.8811 73.321C89.3511 69.831 84.7011 68.411 80.4011 68.671C79.4311 68.731 78.4711 68.861 77.5111 69.031C78.1511 68.071 78.821 67.131 79.501 66.211C81.511 63.491 86.4811 61.521 88.5411 65.331C88.7411 65.701 89.021 66.171 89.421 66.071C89.571 66.031 89.6911 65.921 89.7911 65.801C90.5811 64.901 90.891 63.631 90.751 62.441C90.581 60.911 89.7611 59.351 88.5711 58.361C88.0511 57.921 86.301 57.591 86.031 57.101C85.721 56.551 86.7811 54.271 86.9711 53.671C88.8211 47.951 91.5311 41.711 89.3311 35.681C88.8611 34.381 87.781 35.241 87.361 36.081L87.391 36.051ZM84.0511 90.281C82.7511 90.401 81.4211 90.431 80.1311 90.221C78.6611 89.971 77.2311 89.321 76.2211 88.211C75.0011 86.861 74.2511 85.131 73.7711 83.401C72.6911 79.491 73.7311 75.751 75.5911 72.231C76.7111 71.861 77.8511 71.581 79.0211 71.441C81.6211 71.131 84.4111 71.561 86.5911 73.081C90.6911 75.941 93.321 82.571 90.251 87.021C89.611 87.951 88.841 88.821 87.861 89.371C87.381 89.641 86.8711 89.821 86.3411 89.951C85.6011 90.131 84.8211 90.221 84.0511 90.291V90.281Z" fill="url(#paint11_linear_224_706)"/>
<path d="M14.5 129C13.6705 129 13 133.41 13 138.867V702.133C13 707.59 13.6705 712 14.5 712C15.3295 712 16 707.59 16 702.133V138.867C16 133.41 15.3295 129 14.5 129Z" fill="url(#paint12_linear_224_706)"/>
</g>
<g style="mix-blend-mode:color-burn">
<path d="M1579.51 59.471C1578.29 53.921 1572.1 52.781 1568.03 52.651C1563.77 52.511 1559.72 51.171 1556.51 48.641C1545.01 39.561 1554.45 25.771 1554.45 25.771C1554.45 25.771 1551.43 43.831 1563.42 46.831C1563.42 46.831 1571.49 49.261 1579.04 42.441C1579.04 42.441 1577.82 47.651 1572.59 49.181C1575.6 49.991 1579.95 52.021 1579.51 59.481V59.471Z" fill="url(#paint13_linear_224_706)"/>
<path d="M1512.25 2.5209C1517.92 2.8109 1520.07 8.72092 1520.87 12.7209C1521.71 16.9009 1523.7 20.6709 1526.73 23.4209C1537.58 33.2709 1549.63 21.6909 1549.63 21.6909C1549.63 21.6909 1532.31 27.6409 1527.38 16.3109C1527.38 16.3109 1523.66 8.75091 1529.14 0.180908C1529.14 0.180908 1524.2 2.24091 1523.55 7.65091C1522.26 4.81091 1519.54 0.860905 1512.25 2.5209Z" fill="url(#paint14_linear_224_706)"/>
<path d="M1549.81 47.611C1545.21 45.031 1545.76 37.081 1546.9 31.261C1547.04 30.561 1547.19 29.891 1547.33 29.271C1546.75 29.521 1546.12 29.781 1545.47 30.011C1539.92 32.091 1532.15 33.961 1528.85 29.851C1527.86 37.271 1534.78 38.831 1544 33.201C1539.98 43.241 1542.66 49.801 1549.81 47.601V47.611Z" fill="url(#paint15_linear_224_706)"/>
<path d="M1521.15 39.291C1525.75 41.871 1525.2 49.821 1524.06 55.641C1523.92 56.341 1523.77 57.011 1523.63 57.631C1524.21 57.381 1524.84 57.121 1525.49 56.891C1531.04 54.811 1538.81 52.941 1542.11 57.051C1543.1 49.631 1536.18 48.071 1526.96 53.701C1530.98 43.661 1528.3 37.101 1521.15 39.301V39.291Z" fill="url(#paint16_linear_224_706)"/>
<path d="M1535.67 39.341C1533.19 41.351 1532.44 46.261 1532.44 46.261C1532.44 46.261 1537.16 44.711 1538.73 41.941C1539.9 39.871 1537.51 37.851 1535.66 39.341H1535.67Z" fill="url(#paint17_linear_224_706)"/>
<path d="M1551.57 3.51096C1556.17 6.09096 1555.62 14.0409 1554.48 19.8609C1554.34 20.5609 1554.19 21.231 1554.05 21.851C1554.63 21.601 1555.26 21.3409 1555.91 21.1109C1561.46 19.0309 1569.23 17.1609 1572.53 21.2709C1573.52 13.8509 1566.6 12.2909 1557.38 17.9209C1561.4 7.88093 1558.72 1.32094 1551.57 3.52094V3.51096Z" fill="url(#paint18_linear_224_706)"/>
<path d="M1567.59 8.95099C1570.07 6.94099 1570.82 2.03101 1570.82 2.03101C1570.82 2.03101 1566.1 3.58101 1564.53 6.35101C1563.36 8.42101 1565.75 10.441 1567.6 8.95099H1567.59Z" fill="url(#paint19_linear_224_706)"/>
<path d="M1541.54 94.551C1541.86 93.961 1542.29 93.421 1542.81 92.951C1544.01 91.861 1545.66 91.201 1547.29 91.181C1548.78 91.161 1550.64 91.751 1551.3 93.001C1551.67 93.711 1551.79 94.801 1551.42 95.571C1551.17 96.091 1550.73 96.541 1550.18 96.821C1549.16 97.361 1548.32 96.921 1547.31 97.141C1543.84 97.881 1545.68 100.261 1546.83 100.881C1547.61 101.301 1548.55 101.411 1549.47 101.371C1558.66 101.001 1555.92 90.851 1553.92 86.111C1551.88 81.271 1548.55 76.841 1547.21 71.741C1546.51 69.081 1546.68 65.481 1548.92 63.321C1549.17 63.621 1549.41 63.911 1549.66 64.211C1549.8 64.551 1549.95 64.891 1550.11 65.231C1549.54 67.041 1549.66 69.221 1549.81 70.721C1550.2 74.551 1551.97 78.051 1553.64 81.451C1555.07 84.361 1556.41 87.291 1557.23 90.441C1557.93 93.151 1558.78 96.441 1557.77 99.291C1556.22 103.641 1550.72 106.211 1546.23 104.731C1541.91 103.311 1539.3 98.711 1541.55 94.561L1541.54 94.551Z" fill="url(#paint20_linear_224_706)"/>
<path d="M1580.31 59.351C1581.05 62.151 1580.6 65.421 1578.45 67.751C1576.3 70.081 1572.25 71.051 1569.74 69.381C1567.23 67.711 1567.55 63.371 1570.56 62.101C1572.22 61.401 1574.26 61.651 1575.71 60.611C1576.94 59.721 1577.31 58.101 1576.87 56.821C1576.44 55.541 1575.36 54.551 1574.16 53.791C1565.07 48.081 1552.63 55.021 1550.72 64.651C1548.98 73.411 1555.22 80.391 1561.59 86.451C1564.95 89.651 1572.63 91.181 1575.2 85.611C1575.45 85.071 1575.81 84.381 1576.42 84.421C1576.65 84.441 1576.84 84.561 1577.01 84.701C1578.31 85.731 1578.93 87.371 1578.89 89.001C1578.83 91.091 1577.82 93.361 1576.18 94.961C1575.46 95.661 1572.9 96.491 1572.55 97.221C1572.16 98.021 1574.04 100.851 1574.41 101.621C1577.93 108.891 1582.81 116.651 1580.32 125.231C1579.78 127.081 1578.06 126.171 1577.32 125.131C1575.81 122.991 1573.46 121.351 1572.15 119.101C1571.28 119.441 1570.51 120.251 1569.54 120.621C1568.44 121.041 1567.24 121.211 1566.09 121.151C1561.72 120.911 1559.19 117.891 1558.61 114.621C1558.51 114.051 1559.23 113.651 1559.8 113.991C1563.23 116.061 1565.44 111.481 1565.6 109.481C1565.77 107.181 1565.47 104.891 1565.1 102.641C1564.37 98.191 1562.13 94.441 1559.34 90.971C1553.59 85.391 1548.59 78.921 1546.69 71.331C1545.29 65.721 1546.32 59.111 1550.9 54.681C1552.66 52.981 1554.85 51.681 1557.21 50.801C1558.36 50.371 1559.55 50.041 1560.75 49.811C1569.07 48.201 1578.37 52.101 1580.29 59.361L1580.31 59.351Z" fill="url(#paint21_linear_224_706)"/>
<path d="M1478.68 39.4611C1479.27 39.1411 1479.81 38.7111 1480.28 38.1911C1481.37 36.9911 1482.03 35.3411 1482.05 33.7111C1482.07 32.2211 1481.48 30.3611 1480.23 29.7011C1479.52 29.3311 1478.43 29.2111 1477.66 29.5811C1477.14 29.8311 1476.69 30.2711 1476.41 30.8211C1475.87 31.8411 1476.31 32.6811 1476.09 33.6911C1475.35 37.1611 1472.97 35.3211 1472.35 34.1711C1471.93 33.3911 1471.82 32.4511 1471.86 31.5311C1472.23 22.3411 1482.38 25.0811 1487.12 27.0811C1491.96 29.1211 1496.39 32.4511 1501.49 33.7911C1504.15 34.4911 1507.75 34.3211 1509.91 32.0811C1509.61 31.8311 1509.32 31.5911 1509.02 31.3411C1508.68 31.2011 1508.34 31.0511 1508 30.8911C1506.19 31.4611 1504.01 31.3511 1502.51 31.1911C1498.68 30.8011 1495.18 29.0311 1491.78 27.3611C1488.87 25.9311 1485.94 24.5911 1482.79 23.7711C1480.08 23.0711 1476.79 22.2211 1473.94 23.2311C1469.59 24.7811 1467.02 30.2811 1468.5 34.7711C1469.92 39.0911 1474.52 41.701 1478.67 39.451L1478.68 39.4611Z" fill="url(#paint22_linear_224_706)"/>
<path d="M1513.88 0.69102C1511.09 -0.0489798 1507.81 0.401006 1505.48 2.55101C1503.15 4.70101 1502.18 8.75103 1503.85 11.261C1505.52 13.771 1509.86 13.451 1511.13 10.441C1511.83 8.78102 1511.58 6.74103 1512.62 5.29103C1513.51 4.06103 1515.13 3.69102 1516.41 4.13102C1517.69 4.56102 1518.68 5.64101 1519.44 6.84101C1525.15 15.931 1518.21 28.371 1508.58 30.281C1499.82 32.021 1492.84 25.781 1486.78 19.411C1483.58 16.051 1482.05 8.37101 1487.62 5.80101C1488.16 5.55101 1488.85 5.191 1488.81 4.581C1488.79 4.351 1488.67 4.16101 1488.53 3.99101C1487.5 2.69101 1485.86 2.071 1484.23 2.111C1482.14 2.171 1479.87 3.18102 1478.27 4.82102C1477.57 5.54102 1476.74 8.101 1476.01 8.451C1475.21 8.841 1472.38 6.96101 1471.61 6.59101C1464.34 3.07101 1456.58 -1.80899 1448 0.68101C1446.15 1.22101 1447.06 2.94101 1448.1 3.68101C1450.24 5.19101 1451.88 7.54102 1454.13 8.85102C1453.79 9.72102 1452.98 10.491 1452.61 11.461C1452.19 12.561 1452.02 13.761 1452.08 14.911C1452.32 19.281 1455.34 21.811 1458.61 22.391C1459.18 22.491 1459.58 21.771 1459.24 21.201C1457.17 17.771 1461.75 15.561 1463.75 15.401C1466.05 15.231 1468.34 15.531 1470.59 15.901C1475.04 16.631 1478.79 18.871 1482.26 21.661C1487.84 27.411 1494.31 32.411 1501.9 34.311C1507.51 35.711 1514.12 34.681 1518.55 30.101C1520.26 28.341 1521.55 26.151 1522.43 23.791C1522.86 22.641 1523.19 21.451 1523.42 20.251C1525.03 11.931 1521.13 2.63101 1513.87 0.711009L1513.88 0.69102Z" fill="url(#paint23_linear_224_706)"/>
<path d="M1493.61 36.051C1494.47 37.791 1495.91 39.251 1496.63 41.041C1497.23 40.881 1497.79 40.381 1498.45 40.211C1499.21 40.021 1500.01 40.031 1500.76 40.201C1503.63 40.861 1505.1 43.361 1505.27 45.821C1505.3 46.251 1504.8 46.461 1504.45 46.151C1502.32 44.251 1500.56 47.381 1500.33 48.821C1500.06 50.491 1500.11 52.211 1500.21 53.901C1500.4 57.251 1501.63 60.251 1503.25 63.101C1503.83 63.911 1504.4 64.731 1504.95 65.571C1504.82 64.961 1504.71 64.351 1504.62 63.731C1504.33 61.661 1503.99 59.151 1504.84 57.171C1506.15 54.141 1509.94 52.861 1512.81 54.441C1515.57 55.961 1516.99 59.621 1515.24 62.431C1514.99 62.831 1514.67 63.181 1514.3 63.471C1513.44 64.141 1512.3 64.441 1511.22 64.281C1510.23 64.131 1509.05 63.491 1508.69 62.501C1508.49 61.941 1508.48 61.131 1508.78 60.601C1508.98 60.251 1509.3 59.971 1509.68 59.821C1510.39 59.541 1510.91 59.951 1511.59 59.901C1513.93 59.731 1512.87 57.791 1512.15 57.211C1511.66 56.821 1511.05 56.631 1510.44 56.561C1504.35 55.821 1505.5 63.581 1506.51 67.281C1506.7 67.991 1506.93 68.701 1507.17 69.401C1507.28 69.621 1507.39 69.841 1507.5 70.061C1508.45 70.381 1509.38 70.741 1510.3 71.141C1511.02 71.331 1511.74 71.511 1512.46 71.661C1516.22 72.421 1524.04 73.041 1522.89 67.021C1522.78 66.421 1522.55 65.821 1522.13 65.361C1521.5 64.681 1519.49 63.761 1519.48 66.101C1519.48 66.781 1519.92 67.281 1519.69 68.001C1519.57 68.391 1519.31 68.721 1518.97 68.951C1518.46 69.281 1517.65 69.331 1517.08 69.171C1516.07 68.881 1515.35 67.741 1515.13 66.771C1514.89 65.701 1515.13 64.551 1515.73 63.651C1515.99 63.261 1516.32 62.921 1516.7 62.641C1519.38 60.701 1523.14 61.871 1524.83 64.531C1526.59 67.291 1525.57 71.161 1522.64 72.671C1520.72 73.651 1518.19 73.481 1516.11 73.331C1515.49 73.291 1514.87 73.221 1514.25 73.131C1515.12 73.621 1515.98 74.131 1516.83 74.661C1519.79 76.081 1522.86 77.111 1526.22 77.081C1527.91 77.061 1529.63 77.001 1531.28 76.621C1532.71 76.291 1535.71 74.331 1533.67 72.331C1533.33 72.001 1533.52 71.481 1533.95 71.491C1536.42 71.491 1539.01 72.801 1539.86 75.611C1540.08 76.351 1540.14 77.151 1540.01 77.921C1539.89 78.591 1539.42 79.181 1539.31 79.791C1541.15 80.381 1542.7 81.721 1544.49 82.471C1545.36 82.831 1546.29 83.851 1545.02 84.411C1539.15 87.011 1532.74 84.721 1526.91 83.261C1526.3 83.111 1523.95 82.211 1523.42 82.551C1522.95 82.861 1522.74 84.621 1522.33 85.171C1521.42 86.411 1519.92 87.341 1518.41 87.611C1517.23 87.831 1515.94 87.611 1514.99 86.881C1514.87 86.781 1514.74 86.671 1514.7 86.521C1514.58 86.121 1515.03 85.811 1515.38 85.591C1519.04 83.281 1516.75 78.451 1513.9 76.631C1512.34 75.631 1510.73 74.651 1509.08 73.811C1509.66 75.481 1510.09 77.191 1510.32 78.951C1510.88 83.221 1509.77 87.961 1506.46 90.721C1505.19 91.781 1503.66 92.491 1502.04 92.881C1501.25 93.071 1500.45 93.181 1499.64 93.221C1494.05 93.491 1488.16 89.601 1487.37 84.061C1487.29 83.491 1487.27 82.911 1487.31 82.341C1487.18 81.661 1487.1 80.981 1487.09 80.291C1487.07 79.481 1487.13 78.671 1487.27 77.871C1487.55 76.231 1488.15 74.661 1489.12 73.321C1491.65 69.831 1496.3 68.411 1500.6 68.671C1501.57 68.731 1502.53 68.861 1503.49 69.031C1502.85 68.071 1502.18 67.131 1501.5 66.211C1499.49 63.491 1494.52 61.521 1492.46 65.331C1492.26 65.701 1491.98 66.171 1491.58 66.071C1491.43 66.031 1491.31 65.921 1491.21 65.801C1490.42 64.901 1490.11 63.631 1490.25 62.441C1490.42 60.911 1491.24 59.351 1492.43 58.361C1492.95 57.921 1494.7 57.591 1494.97 57.101C1495.28 56.551 1494.22 54.271 1494.03 53.671C1492.18 47.951 1489.47 41.711 1491.67 35.681C1492.14 34.381 1493.22 35.241 1493.64 36.081L1493.61 36.051ZM1496.95 90.281C1498.25 90.401 1499.58 90.431 1500.87 90.221C1502.34 89.971 1503.77 89.321 1504.78 88.211C1506 86.861 1506.75 85.131 1507.23 83.401C1508.31 79.491 1507.27 75.751 1505.41 72.231C1504.29 71.861 1503.15 71.581 1501.98 71.441C1499.38 71.131 1496.59 71.561 1494.41 73.081C1490.31 75.941 1487.68 82.571 1490.75 87.021C1491.39 87.951 1492.16 88.821 1493.14 89.371C1493.62 89.641 1494.13 89.821 1494.66 89.951C1495.4 90.131 1496.18 90.221 1496.95 90.291V90.281Z" fill="url(#paint24_linear_224_706)"/>
<path d="M1570.5 129C1571.33 129 1572 133.41 1572 138.867V702.133C1572 707.59 1571.33 712 1570.5 712C1569.67 712 1569 707.59 1569 702.133V138.867C1569 133.41 1569.67 129 1570.5 129Z" fill="url(#paint25_linear_224_706)"/>
</g>
<g style="mix-blend-mode:color-burn">
<path d="M1579.51 787.529C1578.29 793.079 1572.1 794.219 1568.03 794.349C1563.77 794.489 1559.72 795.829 1556.51 798.359C1545.01 807.439 1554.45 821.229 1554.45 821.229C1554.45 821.229 1551.43 803.169 1563.42 800.169C1563.42 800.169 1571.49 797.739 1579.04 804.559C1579.04 804.559 1577.82 799.349 1572.59 797.819C1575.6 797.009 1579.95 794.979 1579.51 787.519V787.529Z" fill="url(#paint26_linear_224_706)"/>
<path d="M1512.25 844.479C1517.92 844.189 1520.07 838.279 1520.87 834.279C1521.71 830.099 1523.7 826.329 1526.73 823.579C1537.58 813.729 1549.63 825.309 1549.63 825.309C1549.63 825.309 1532.31 819.359 1527.38 830.689C1527.38 830.689 1523.66 838.249 1529.14 846.819C1529.14 846.819 1524.2 844.759 1523.55 839.349C1522.26 842.189 1519.54 846.139 1512.25 844.479Z" fill="url(#paint27_linear_224_706)"/>
<path d="M1549.81 799.389C1545.21 801.969 1545.76 809.919 1546.9 815.739C1547.04 816.439 1547.19 817.109 1547.33 817.729C1546.75 817.479 1546.12 817.219 1545.47 816.989C1539.92 814.909 1532.15 813.039 1528.85 817.149C1527.86 809.729 1534.78 808.169 1544 813.799C1539.98 803.759 1542.66 797.199 1549.81 799.399V799.389Z" fill="url(#paint28_linear_224_706)"/>
<path d="M1521.15 807.709C1525.75 805.129 1525.2 797.179 1524.06 791.359C1523.92 790.659 1523.77 789.989 1523.63 789.369C1524.21 789.619 1524.84 789.879 1525.49 790.109C1531.04 792.189 1538.81 794.059 1542.11 789.949C1543.1 797.369 1536.18 798.929 1526.96 793.299C1530.98 803.339 1528.3 809.899 1521.15 807.699V807.709Z" fill="url(#paint29_linear_224_706)"/>
<path d="M1535.67 807.659C1533.19 805.649 1532.44 800.739 1532.44 800.739C1532.44 800.739 1537.16 802.289 1538.73 805.059C1539.9 807.129 1537.51 809.149 1535.66 807.659H1535.67Z" fill="url(#paint30_linear_224_706)"/>
<path d="M1551.57 843.489C1556.17 840.909 1555.62 832.959 1554.48 827.139C1554.34 826.439 1554.19 825.769 1554.05 825.149C1554.63 825.399 1555.26 825.659 1555.91 825.889C1561.46 827.969 1569.23 829.839 1572.53 825.729C1573.52 833.149 1566.6 834.709 1557.38 829.079C1561.4 839.119 1558.72 845.679 1551.57 843.479V843.489Z" fill="url(#paint31_linear_224_706)"/>
<path d="M1567.59 838.049C1570.07 840.059 1570.82 844.969 1570.82 844.969C1570.82 844.969 1566.1 843.419 1564.53 840.649C1563.36 838.579 1565.75 836.559 1567.6 838.049H1567.59Z" fill="url(#paint32_linear_224_706)"/>
<path d="M1541.54 752.449C1541.86 753.039 1542.29 753.579 1542.81 754.049C1544.01 755.139 1545.66 755.799 1547.29 755.819C1548.78 755.839 1550.64 755.249 1551.3 753.999C1551.67 753.289 1551.79 752.199 1551.42 751.429C1551.17 750.909 1550.73 750.459 1550.18 750.179C1549.16 749.639 1548.32 750.079 1547.31 749.859C1543.84 749.119 1545.68 746.739 1546.83 746.119C1547.61 745.699 1548.55 745.589 1549.47 745.629C1558.66 745.999 1555.92 756.149 1553.92 760.889C1551.88 765.729 1548.55 770.159 1547.21 775.259C1546.51 777.919 1546.68 781.519 1548.92 783.679C1549.17 783.379 1549.41 783.089 1549.66 782.789C1549.8 782.449 1549.95 782.109 1550.11 781.769C1549.54 779.959 1549.66 777.779 1549.81 776.279C1550.2 772.449 1551.97 768.949 1553.64 765.549C1555.07 762.639 1556.41 759.709 1557.23 756.559C1557.93 753.849 1558.78 750.559 1557.77 747.709C1556.22 743.359 1550.72 740.789 1546.23 742.269C1541.91 743.689 1539.3 748.289 1541.55 752.439L1541.54 752.449Z" fill="url(#paint33_linear_224_706)"/>
<path d="M1580.31 787.649C1581.05 784.849 1580.6 781.579 1578.45 779.249C1576.3 776.919 1572.25 775.949 1569.74 777.619C1567.23 779.289 1567.55 783.629 1570.56 784.899C1572.22 785.599 1574.26 785.349 1575.71 786.389C1576.94 787.279 1577.31 788.899 1576.87 790.179C1576.44 791.459 1575.36 792.449 1574.16 793.209C1565.07 798.919 1552.63 791.979 1550.72 782.349C1548.98 773.589 1555.22 766.609 1561.59 760.549C1564.95 757.349 1572.63 755.819 1575.2 761.389C1575.45 761.929 1575.81 762.619 1576.42 762.579C1576.65 762.559 1576.84 762.439 1577.01 762.299C1578.31 761.269 1578.93 759.629 1578.89 757.999C1578.83 755.909 1577.82 753.639 1576.18 752.039C1575.46 751.339 1572.9 750.509 1572.55 749.779C1572.16 748.979 1574.04 746.149 1574.41 745.379C1577.93 738.109 1582.81 730.349 1580.32 721.769C1579.78 719.919 1578.06 720.829 1577.32 721.869C1575.81 724.009 1573.46 725.649 1572.15 727.899C1571.28 727.559 1570.51 726.749 1569.54 726.379C1568.44 725.959 1567.24 725.789 1566.09 725.849C1561.72 726.089 1559.19 729.109 1558.61 732.379C1558.51 732.949 1559.23 733.349 1559.8 733.009C1563.23 730.939 1565.44 735.519 1565.6 737.519C1565.77 739.819 1565.47 742.109 1565.1 744.359C1564.37 748.809 1562.13 752.559 1559.34 756.029C1553.59 761.609 1548.59 768.079 1546.69 775.669C1545.29 781.279 1546.32 787.889 1550.9 792.319C1552.66 794.019 1554.85 795.319 1557.21 796.199C1558.36 796.629 1559.55 796.959 1560.75 797.189C1569.07 798.799 1578.37 794.899 1580.29 787.639L1580.31 787.649Z" fill="url(#paint34_linear_224_706)"/>
<path d="M1478.68 807.539C1479.27 807.859 1479.81 808.289 1480.28 808.809C1481.37 810.009 1482.03 811.659 1482.05 813.289C1482.07 814.779 1481.48 816.639 1480.23 817.299C1479.52 817.669 1478.43 817.789 1477.66 817.419C1477.14 817.169 1476.69 816.729 1476.41 816.179C1475.87 815.159 1476.31 814.319 1476.09 813.309C1475.35 809.839 1472.97 811.679 1472.35 812.829C1471.93 813.609 1471.82 814.549 1471.86 815.469C1472.23 824.659 1482.38 821.919 1487.12 819.919C1491.96 817.879 1496.39 814.549 1501.49 813.209C1504.15 812.509 1507.75 812.679 1509.91 814.919C1509.61 815.169 1509.32 815.409 1509.02 815.659C1508.68 815.799 1508.34 815.949 1508 816.109C1506.19 815.539 1504.01 815.649 1502.51 815.809C1498.68 816.199 1495.18 817.969 1491.78 819.639C1488.87 821.069 1485.94 822.409 1482.79 823.229C1480.08 823.929 1476.79 824.779 1473.94 823.769C1469.59 822.219 1467.02 816.719 1468.5 812.229C1469.92 807.909 1474.52 805.299 1478.67 807.549L1478.68 807.539Z" fill="url(#paint35_linear_224_706)"/>
<path d="M1513.88 846.309C1511.09 847.049 1507.81 846.599 1505.48 844.449C1503.15 842.299 1502.18 838.249 1503.85 835.739C1505.52 833.229 1509.86 833.549 1511.13 836.559C1511.83 838.219 1511.58 840.259 1512.62 841.709C1513.51 842.939 1515.13 843.309 1516.41 842.869C1517.69 842.439 1518.68 841.359 1519.44 840.159C1525.15 831.069 1518.21 818.629 1508.58 816.719C1499.82 814.979 1492.84 821.219 1486.78 827.589C1483.58 830.949 1482.05 838.629 1487.62 841.199C1488.16 841.449 1488.85 841.809 1488.81 842.419C1488.79 842.649 1488.67 842.839 1488.53 843.009C1487.5 844.309 1485.86 844.929 1484.23 844.889C1482.14 844.829 1479.87 843.819 1478.27 842.179C1477.57 841.459 1476.74 838.899 1476.01 838.549C1475.21 838.159 1472.38 840.039 1471.61 840.409C1464.34 843.929 1456.58 848.809 1448 846.319C1446.15 845.779 1447.06 844.059 1448.1 843.319C1450.24 841.809 1451.88 839.459 1454.13 838.149C1453.79 837.279 1452.98 836.509 1452.61 835.539C1452.19 834.439 1452.02 833.239 1452.08 832.089C1452.32 827.719 1455.34 825.189 1458.61 824.609C1459.18 824.509 1459.58 825.229 1459.24 825.799C1457.17 829.229 1461.75 831.439 1463.75 831.599C1466.05 831.769 1468.34 831.469 1470.59 831.099C1475.04 830.369 1478.79 828.129 1482.26 825.339C1487.84 819.589 1494.31 814.589 1501.9 812.689C1507.51 811.289 1514.12 812.319 1518.55 816.899C1520.26 818.659 1521.55 820.849 1522.43 823.209C1522.86 824.359 1523.19 825.549 1523.42 826.749C1525.03 835.069 1521.13 844.369 1513.87 846.289L1513.88 846.309Z" fill="url(#paint36_linear_224_706)"/>
<path d="M1493.61 810.949C1494.47 809.209 1495.91 807.749 1496.63 805.959C1497.23 806.119 1497.79 806.619 1498.45 806.789C1499.21 806.979 1500.01 806.969 1500.76 806.799C1503.63 806.139 1505.1 803.639 1505.27 801.179C1505.3 800.749 1504.8 800.539 1504.45 800.849C1502.32 802.749 1500.56 799.619 1500.33 798.179C1500.06 796.509 1500.11 794.789 1500.21 793.099C1500.4 789.749 1501.63 786.749 1503.25 783.899C1503.83 783.089 1504.4 782.269 1504.95 781.429C1504.82 782.039 1504.71 782.649 1504.62 783.269C1504.33 785.339 1503.99 787.849 1504.84 789.829C1506.15 792.859 1509.94 794.139 1512.81 792.559C1515.57 791.039 1516.99 787.379 1515.24 784.569C1514.99 784.169 1514.67 783.819 1514.3 783.529C1513.44 782.859 1512.3 782.559 1511.22 782.719C1510.23 782.869 1509.05 783.509 1508.69 784.499C1508.49 785.059 1508.48 785.869 1508.78 786.399C1508.98 786.749 1509.3 787.029 1509.68 787.179C1510.39 787.459 1510.91 787.049 1511.59 787.099C1513.93 787.269 1512.87 789.209 1512.15 789.789C1511.66 790.179 1511.05 790.369 1510.44 790.439C1504.35 791.179 1505.5 783.419 1506.51 779.719C1506.7 779.009 1506.93 778.299 1507.17 777.599C1507.28 777.379 1507.39 777.159 1507.5 776.939C1508.45 776.619 1509.38 776.259 1510.3 775.859C1511.02 775.669 1511.74 775.489 1512.46 775.339C1516.22 774.579 1524.04 773.959 1522.89 779.979C1522.78 780.579 1522.55 781.179 1522.13 781.639C1521.5 782.319 1519.49 783.239 1519.48 780.899C1519.48 780.219 1519.92 779.719 1519.69 778.999C1519.57 778.609 1519.31 778.279 1518.97 778.049C1518.46 777.719 1517.65 777.669 1517.08 777.829C1516.07 778.119 1515.35 779.259 1515.13 780.229C1514.89 781.299 1515.13 782.449 1515.73 783.349C1515.99 783.739 1516.32 784.079 1516.7 784.359C1519.38 786.299 1523.14 785.129 1524.83 782.469C1526.59 779.709 1525.57 775.839 1522.64 774.329C1520.72 773.349 1518.19 773.519 1516.11 773.669C1515.49 773.709 1514.87 773.779 1514.25 773.869C1515.12 773.379 1515.98 772.869 1516.83 772.339C1519.79 770.919 1522.86 769.889 1526.22 769.919C1527.91 769.939 1529.63 769.999 1531.28 770.379C1532.71 770.709 1535.71 772.669 1533.67 774.669C1533.33 774.999 1533.52 775.519 1533.95 775.509C1536.42 775.509 1539.01 774.199 1539.86 771.389C1540.08 770.649 1540.14 769.849 1540.01 769.079C1539.89 768.409 1539.42 767.819 1539.31 767.209C1541.15 766.619 1542.7 765.279 1544.49 764.529C1545.36 764.169 1546.29 763.149 1545.02 762.589C1539.15 759.989 1532.74 762.279 1526.91 763.739C1526.3 763.889 1523.95 764.789 1523.42 764.449C1522.95 764.139 1522.74 762.379 1522.33 761.829C1521.42 760.589 1519.92 759.659 1518.41 759.389C1517.23 759.169 1515.94 759.389 1514.99 760.119C1514.87 760.219 1514.74 760.329 1514.7 760.479C1514.58 760.879 1515.03 761.189 1515.38 761.409C1519.04 763.719 1516.75 768.549 1513.9 770.369C1512.34 771.369 1510.73 772.349 1509.08 773.189C1509.66 771.519 1510.09 769.809 1510.32 768.049C1510.88 763.779 1509.77 759.039 1506.46 756.279C1505.19 755.219 1503.66 754.509 1502.04 754.119C1501.25 753.929 1500.45 753.819 1499.64 753.779C1494.05 753.509 1488.16 757.399 1487.37 762.939C1487.29 763.509 1487.27 764.089 1487.31 764.659C1487.18 765.339 1487.1 766.019 1487.09 766.709C1487.07 767.519 1487.13 768.329 1487.27 769.129C1487.55 770.769 1488.15 772.339 1489.12 773.679C1491.65 777.169 1496.3 778.589 1500.6 778.329C1501.57 778.269 1502.53 778.139 1503.49 777.969C1502.85 778.929 1502.18 779.869 1501.5 780.789C1499.49 783.509 1494.52 785.479 1492.46 781.669C1492.26 781.299 1491.98 780.829 1491.58 780.929C1491.43 780.969 1491.31 781.079 1491.21 781.199C1490.42 782.099 1490.11 783.369 1490.25 784.559C1490.42 786.089 1491.24 787.649 1492.43 788.639C1492.95 789.079 1494.7 789.409 1494.97 789.899C1495.28 790.449 1494.22 792.729 1494.03 793.329C1492.18 799.049 1489.47 805.289 1491.67 811.319C1492.14 812.619 1493.22 811.759 1493.64 810.919L1493.61 810.949ZM1496.95 756.719C1498.25 756.599 1499.58 756.569 1500.87 756.779C1502.34 757.029 1503.77 757.679 1504.78 758.789C1506 760.139 1506.75 761.869 1507.23 763.599C1508.31 767.509 1507.27 771.249 1505.41 774.769C1504.29 775.139 1503.15 775.419 1501.98 775.559C1499.38 775.869 1496.59 775.439 1494.41 773.919C1490.31 771.059 1487.68 764.429 1490.75 759.979C1491.39 759.049 1492.16 758.179 1493.14 757.629C1493.62 757.359 1494.13 757.179 1494.66 757.049C1495.4 756.869 1496.18 756.779 1496.95 756.709V756.719Z" fill="url(#paint37_linear_224_706)"/>
</g>
<path d="M134.5 832H1444.5" stroke="#BA9979" stroke-width="2" stroke-linecap="round"/>
<path d="M134.5 15H1444.5" stroke="#BA9979" stroke-width="2" stroke-linecap="round"/>
<g style="mix-blend-mode:color-burn">
<path d="M1.49102 787.529C2.71102 793.079 8.90102 794.219 12.971 794.349C17.231 794.489 21.281 795.829 24.491 798.359C35.991 807.439 26.551 821.229 26.551 821.229C26.551 821.229 29.571 803.169 17.581 800.169C17.581 800.169 9.51102 797.739 1.96102 804.559C1.96102 804.559 3.18102 799.349 8.41102 797.819C5.40102 797.009 1.05102 794.979 1.49102 787.519V787.529Z" fill="url(#paint38_linear_224_706)"/>
<path d="M68.751 844.479C63.081 844.189 60.931 838.279 60.131 834.279C59.291 830.099 57.301 826.329 54.271 823.579C43.421 813.729 31.371 825.309 31.371 825.309C31.371 825.309 48.691 819.359 53.621 830.689C53.621 830.689 57.341 838.249 51.861 846.819C51.861 846.819 56.801 844.759 57.451 839.349C58.741 842.189 61.461 846.139 68.751 844.479Z" fill="url(#paint39_linear_224_706)"/>
<path d="M31.191 799.389C35.791 801.969 35.241 809.919 34.101 815.739C33.961 816.439 33.811 817.109 33.671 817.729C34.251 817.479 34.881 817.219 35.531 816.989C41.081 814.909 48.851 813.039 52.151 817.149C53.141 809.729 46.221 808.169 37.001 813.799C41.021 803.759 38.341 797.199 31.191 799.399V799.389Z" fill="url(#paint40_linear_224_706)"/>
<path d="M59.851 807.709C55.251 805.129 55.801 797.179 56.941 791.359C57.081 790.659 57.231 789.989 57.371 789.369C56.791 789.619 56.161 789.879 55.511 790.109C49.961 792.189 42.191 794.059 38.891 789.949C37.901 797.369 44.821 798.929 54.041 793.299C50.021 803.339 52.701 809.899 59.851 807.699V807.709Z" fill="url(#paint41_linear_224_706)"/>
<path d="M45.331 807.659C47.811 805.649 48.561 800.739 48.561 800.739C48.561 800.739 43.841 802.289 42.271 805.059C41.101 807.129 43.491 809.149 45.341 807.659H45.331Z" fill="url(#paint42_linear_224_706)"/>
<path d="M29.4311 843.489C24.8311 840.909 25.3811 832.959 26.5211 827.139C26.6611 826.439 26.8111 825.769 26.9511 825.149C26.3711 825.399 25.7411 825.659 25.0911 825.889C19.5411 827.969 11.7711 829.839 8.47106 825.729C7.48106 833.149 14.4011 834.709 23.6211 829.079C19.6011 839.119 22.2811 845.679 29.4311 843.479V843.489Z" fill="url(#paint43_linear_224_706)"/>
<path d="M13.411 838.049C10.931 840.059 10.181 844.969 10.181 844.969C10.181 844.969 14.901 843.419 16.471 840.649C17.641 838.579 15.251 836.559 13.401 838.049H13.411Z" fill="url(#paint44_linear_224_706)"/>
<path d="M39.4611 752.449C39.1411 753.039 38.7111 753.579 38.1911 754.049C36.9911 755.139 35.3411 755.799 33.7111 755.819C32.2211 755.839 30.3611 755.249 29.7011 753.999C29.3311 753.289 29.2111 752.199 29.5811 751.429C29.8311 750.909 30.2711 750.459 30.8211 750.179C31.8411 749.639 32.6811 750.079 33.6911 749.859C37.1611 749.119 35.3211 746.739 34.1711 746.119C33.3911 745.699 32.4511 745.589 31.5311 745.629C22.3411 745.999 25.0811 756.149 27.0811 760.889C29.1211 765.729 32.4511 770.159 33.7911 775.259C34.4911 777.919 34.3211 781.519 32.0811 783.679C31.8311 783.379 31.5911 783.089 31.3411 782.789C31.2011 782.449 31.0511 782.109 30.8911 781.769C31.4611 779.959 31.3411 777.779 31.1911 776.279C30.8011 772.449 29.0311 768.949 27.3611 765.549C25.9311 762.639 24.5911 759.709 23.7711 756.559C23.0711 753.849 22.2211 750.559 23.2311 747.709C24.7811 743.359 30.2811 740.789 34.7711 742.269C39.0911 743.689 41.7011 748.289 39.4511 752.439L39.4611 752.449Z" fill="url(#paint45_linear_224_706)"/>
<path d="M0.691013 787.649C-0.0489871 784.849 0.401013 781.579 2.55101 779.249C4.70101 776.919 8.75101 775.949 11.261 777.619C13.771 779.289 13.451 783.629 10.441 784.899C8.78101 785.599 6.74101 785.349 5.29101 786.389C4.06101 787.279 3.69101 788.899 4.13101 790.179C4.56101 791.459 5.64101 792.449 6.84101 793.209C15.931 798.919 28.371 791.979 30.281 782.349C32.021 773.589 25.781 766.609 19.411 760.549C16.051 757.349 8.37101 755.819 5.80101 761.389C5.55101 761.929 5.19101 762.619 4.58101 762.579C4.35101 762.559 4.16101 762.439 3.99101 762.299C2.69101 761.269 2.07101 759.629 2.11101 757.999C2.17101 755.909 3.18101 753.639 4.82101 752.039C5.54101 751.339 8.10101 750.509 8.45101 749.779C8.84101 748.979 6.96101 746.149 6.59101 745.379C3.07101 738.109 -1.80899 730.349 0.681011 721.769C1.22101 719.919 2.94101 720.829 3.68101 721.869C5.19101 724.009 7.54101 725.649 8.85101 727.899C9.72101 727.559 10.491 726.749 11.461 726.379C12.561 725.959 13.761 725.789 14.911 725.849C19.281 726.089 21.811 729.109 22.391 732.379C22.491 732.949 21.771 733.349 21.201 733.009C17.771 730.939 15.561 735.519 15.401 737.519C15.231 739.819 15.531 742.109 15.901 744.359C16.631 748.809 18.871 752.559 21.661 756.029C27.411 761.609 32.411 768.079 34.311 775.669C35.711 781.279 34.681 787.889 30.101 792.319C28.341 794.019 26.151 795.319 23.791 796.199C22.641 796.629 21.451 796.959 20.251 797.189C11.931 798.799 2.63101 794.899 0.711013 787.639L0.691013 787.649Z" fill="url(#paint46_linear_224_706)"/>
<path d="M102.321 807.539C101.731 807.859 101.191 808.289 100.721 808.809C99.6311 810.009 98.9711 811.659 98.9511 813.289C98.9311 814.779 99.5211 816.639 100.771 817.299C101.481 817.669 102.571 817.789 103.341 817.419C103.861 817.169 104.311 816.729 104.591 816.179C105.131 815.159 104.691 814.319 104.911 813.309C105.651 809.839 108.031 811.679 108.651 812.829C109.071 813.609 109.181 814.549 109.141 815.469C108.771 824.659 98.6211 821.919 93.8811 819.919C89.0411 817.879 84.6111 814.549 79.5111 813.209C76.8511 812.509 73.2511 812.679 71.0911 814.919C71.3911 815.169 71.6811 815.409 71.9811 815.659C72.3211 815.799 72.6611 815.949 73.0011 816.109C74.8111 815.539 76.9911 815.649 78.4911 815.809C82.3211 816.199 85.8211 817.969 89.2211 819.639C92.1311 821.069 95.0611 822.409 98.2111 823.229C100.921 823.929 104.211 824.779 107.061 823.769C111.411 822.219 113.981 816.719 112.501 812.229C111.081 807.909 106.481 805.299 102.331 807.549L102.321 807.539Z" fill="url(#paint47_linear_224_706)"/>
<path d="M67.121 846.309C69.911 847.049 73.191 846.599 75.521 844.449C77.851 842.299 78.821 838.249 77.151 835.739C75.481 833.229 71.141 833.549 69.871 836.559C69.171 838.219 69.421 840.259 68.381 841.709C67.491 842.939 65.871 843.309 64.591 842.869C63.311 842.439 62.321 841.359 61.561 840.159C55.851 831.069 62.791 818.629 72.421 816.719C81.181 814.979 88.161 821.219 94.221 827.589C97.421 830.949 98.951 838.629 93.381 841.199C92.841 841.449 92.151 841.809 92.191 842.419C92.211 842.649 92.331 842.839 92.471 843.009C93.501 844.309 95.141 844.929 96.771 844.889C98.861 844.829 101.131 843.819 102.731 842.179C103.431 841.459 104.261 838.899 104.991 838.549C105.791 838.159 108.621 840.039 109.391 840.409C116.661 843.929 124.421 848.809 133.001 846.319C134.851 845.779 133.941 844.059 132.901 843.319C130.761 841.809 129.121 839.459 126.871 838.149C127.211 837.279 128.021 836.509 128.391 835.539C128.811 834.439 128.981 833.239 128.921 832.089C128.681 827.719 125.661 825.189 122.391 824.609C121.821 824.509 121.421 825.229 121.761 825.799C123.831 829.229 119.251 831.439 117.251 831.599C114.951 831.769 112.661 831.469 110.411 831.099C105.961 830.369 102.211 828.129 98.741 825.339C93.161 819.589 86.691 814.589 79.101 812.689C73.491 811.289 66.881 812.319 62.451 816.899C60.741 818.659 59.451 820.849 58.571 823.209C58.141 824.359 57.811 825.549 57.581 826.749C55.971 835.069 59.871 844.369 67.131 846.289L67.121 846.309Z" fill="url(#paint48_linear_224_706)"/>
<path d="M87.391 810.949C86.531 809.209 85.0911 807.749 84.3711 805.959C83.7711 806.119 83.2111 806.619 82.5511 806.789C81.7911 806.979 80.9911 806.969 80.2411 806.799C77.3711 806.139 75.9011 803.639 75.7311 801.179C75.7011 800.749 76.2011 800.539 76.5511 800.849C78.6811 802.749 80.441 799.619 80.671 798.179C80.941 796.509 80.8911 794.789 80.7911 793.099C80.6011 789.749 79.371 786.749 77.751 783.899C77.171 783.089 76.6011 782.269 76.0511 781.429C76.1811 782.039 76.2911 782.649 76.3811 783.269C76.6711 785.339 77.0111 787.849 76.1611 789.829C74.8511 792.859 71.0611 794.139 68.1911 792.559C65.4311 791.039 64.0111 787.379 65.7611 784.569C66.0111 784.169 66.3311 783.819 66.7011 783.529C67.5611 782.859 68.7011 782.559 69.7811 782.719C70.7711 782.869 71.9511 783.509 72.3111 784.499C72.5111 785.059 72.5211 785.869 72.2211 786.399C72.0211 786.749 71.7011 787.029 71.3211 787.179C70.6111 787.459 70.0911 787.049 69.4111 787.099C67.0711 787.269 68.1311 789.209 68.8511 789.789C69.3411 790.179 69.9511 790.369 70.5611 790.439C76.6511 791.179 75.5011 783.419 74.4911 779.719C74.3011 779.009 74.0711 778.299 73.8311 777.599C73.7211 777.379 73.611 777.159 73.501 776.939C72.551 776.619 71.6211 776.259 70.7011 775.859C69.9811 775.669 69.2611 775.489 68.5411 775.339C64.7811 774.579 56.9611 773.959 58.1111 779.979C58.2211 780.579 58.4511 781.179 58.8711 781.639C59.5011 782.319 61.5111 783.239 61.5211 780.899C61.5211 780.219 61.0811 779.719 61.3111 778.999C61.4311 778.609 61.6911 778.279 62.0311 778.049C62.5411 777.719 63.3511 777.669 63.9211 777.829C64.9311 778.119 65.6511 779.259 65.8711 780.229C66.1111 781.299 65.8711 782.449 65.2711 783.349C65.0111 783.739 64.6811 784.079 64.3011 784.359C61.6211 786.299 57.8611 785.129 56.1711 782.469C54.4111 779.709 55.4311 775.839 58.3611 774.329C60.2811 773.349 62.8111 773.519 64.8911 773.669C65.5111 773.709 66.1311 773.779 66.7511 773.869C65.8811 773.379 65.0211 772.869 64.1711 772.339C61.2111 770.919 58.1411 769.889 54.7811 769.919C53.0911 769.939 51.3711 769.999 49.7211 770.379C48.2911 770.709 45.2911 772.669 47.3311 774.669C47.6711 774.999 47.4811 775.519 47.0511 775.509C44.5811 775.509 41.9911 774.199 41.1411 771.389C40.9211 770.649 40.8611 769.849 40.9911 769.079C41.1111 768.409 41.5811 767.819 41.6911 767.209C39.8511 766.619 38.3011 765.279 36.5111 764.529C35.6411 764.169 34.7111 763.149 35.9811 762.589C41.8511 759.989 48.2611 762.279 54.0911 763.739C54.7011 763.889 57.0511 764.789 57.5811 764.449C58.0511 764.139 58.2611 762.379 58.6711 761.829C59.5811 760.589 61.0811 759.659 62.5911 759.389C63.7711 759.169 65.0611 759.389 66.0111 760.119C66.1311 760.219 66.2611 760.329 66.3011 760.479C66.4211 760.879 65.9711 761.189 65.6211 761.409C61.9611 763.719 64.2511 768.549 67.1011 770.369C68.6611 771.369 70.271 772.349 71.921 773.189C71.341 771.519 70.9111 769.809 70.6811 768.049C70.1211 763.779 71.2311 759.039 74.5411 756.279C75.8111 755.219 77.3411 754.509 78.9611 754.119C79.7511 753.929 80.551 753.819 81.361 753.779C86.951 753.509 92.8411 757.399 93.6311 762.939C93.7111 763.509 93.7311 764.089 93.6911 764.659C93.8211 765.339 93.9011 766.019 93.9111 766.709C93.9311 767.519 93.8711 768.329 93.7311 769.129C93.4511 770.769 92.8511 772.339 91.8811 773.679C89.3511 777.169 84.7011 778.589 80.4011 778.329C79.4311 778.269 78.4711 778.139 77.5111 777.969C78.1511 778.929 78.821 779.869 79.501 780.789C81.511 783.509 86.4811 785.479 88.5411 781.669C88.7411 781.299 89.021 780.829 89.421 780.929C89.571 780.969 89.6911 781.079 89.7911 781.199C90.5811 782.099 90.891 783.369 90.751 784.559C90.581 786.089 89.7611 787.649 88.5711 788.639C88.0511 789.079 86.301 789.409 86.031 789.899C85.721 790.449 86.7811 792.729 86.9711 793.329C88.8211 799.049 91.5311 805.289 89.3311 811.319C88.8611 812.619 87.781 811.759 87.361 810.919L87.391 810.949ZM84.0511 756.719C82.7511 756.599 81.4211 756.569 80.1311 756.779C78.6611 757.029 77.2311 757.679 76.2211 758.789C75.0011 760.139 74.2511 761.869 73.7711 763.599C72.6911 767.509 73.7311 771.249 75.5911 774.769C76.7111 775.139 77.8511 775.419 79.0211 775.559C81.6211 775.869 84.4111 775.439 86.5911 773.919C90.6911 771.059 93.321 764.429 90.251 759.979C89.611 759.049 88.841 758.179 87.861 757.629C87.381 757.359 86.8711 757.179 86.3411 757.049C85.6011 756.869 84.8211 756.779 84.0511 756.709V756.719Z" fill="url(#paint49_linear_224_706)"/>
</g>
</g>
<defs>
<linearGradient id="paint0_linear_224_706" x1="-236.449" y1="185.701" x2="817.171" y2="-411.069" gradientUnits="userSpaceOnUse">
<stop stop-color="#EEDEBC"/>
<stop offset="0.06" stop-color="#DDC5A3"/>
<stop offset="0.14" stop-color="#C9A885"/>
<stop offset="0.26" stop-color="#9A7A5F"/>
<stop offset="0.36" stop-color="#C9A885"/>
<stop offset="0.49" stop-color="#EEDEBC"/>
<stop offset="0.54" stop-color="#DDC5A3"/>
<stop offset="0.61" stop-color="#C9A885"/>
<stop offset="0.72" stop-color="#9A7A5F"/>
<stop offset="0.84" stop-color="#C9A885"/>
<stop offset="1" stop-color="#EEDEBC"/>
</linearGradient>
<linearGradient id="paint1_linear_224_706" x1="-240.599" y1="178.371" x2="813.021" y2="-418.399" gradientUnits="userSpaceOnUse">
<stop stop-color="#EEDEBC"/>
<stop offset="0.06" stop-color="#DDC5A3"/>
<stop offset="0.14" stop-color="#C9A885"/>
<stop offset="0.26" stop-color="#9A7A5F"/>
<stop offset="0.36" stop-color="#C9A885"/>
<stop offset="0.49" stop-color="#EEDEBC"/>
<stop offset="0.54" stop-color="#DDC5A3"/>
<stop offset="0.61" stop-color="#C9A885"/>
<stop offset="0.72" stop-color="#9A7A5F"/>
<stop offset="0.84" stop-color="#C9A885"/>
<stop offset="1" stop-color="#EEDEBC"/>
</linearGradient>
<linearGradient id="paint2_linear_224_706" x1="-233.709" y1="190.531" x2="819.902" y2="-406.239" gradientUnits="userSpaceOnUse">
<stop stop-color="#EEDEBC"/>
<stop offset="0.06" stop-color="#DDC5A3"/>
<stop offset="0.14" stop-color="#C9A885"/>
<stop offset="0.26" stop-color="#9A7A5F"/>
<stop offset="0.36" stop-color="#C9A885"/>
<stop offset="0.49" stop-color="#EEDEBC"/>
<stop offset="0.54" stop-color="#DDC5A3"/>
<stop offset="0.61" stop-color="#C9A885"/>
<stop offset="0.72" stop-color="#9A7A5F"/>
<stop offset="0.84" stop-color="#C9A885"/>
<stop offset="1" stop-color="#EEDEBC"/>
</linearGradient>
<linearGradient id="paint3_linear_224_706" x1="-224.209" y1="207.301" x2="829.401" y2="-389.459" gradientUnits="userSpaceOnUse">
<stop stop-color="#EEDEBC"/>
<stop offset="0.06" stop-color="#DDC5A3"/>
<stop offset="0.14" stop-color="#C9A885"/>
<stop offset="0.26" stop-color="#9A7A5F"/>
<stop offset="0.36" stop-color="#C9A885"/>
<stop offset="0.49" stop-color="#EEDEBC"/>
<stop offset="0.54" stop-color="#DDC5A3"/>
<stop offset="0.61" stop-color="#C9A885"/>
<stop offset="0.72" stop-color="#9A7A5F"/>
<stop offset="0.84" stop-color="#C9A885"/>
<stop offset="1" stop-color="#EEDEBC"/>
</linearGradient>
<linearGradient id="paint4_linear_224_706" x1="-229.229" y1="198.441" x2="824.382" y2="-398.328" gradientUnits="userSpaceOnUse">
<stop stop-color="#EEDEBC"/>
<stop offset="0.06" stop-color="#DDC5A3"/>
<stop offset="0.14" stop-color="#C9A885"/>
<stop offset="0.26" stop-color="#9A7A5F"/>
<stop offset="0.36" stop-color="#C9A885"/>
<stop offset="0.49" stop-color="#EEDEBC"/>
<stop offset="0.54" stop-color="#DDC5A3"/>
<stop offset="0.61" stop-color="#C9A885"/>
<stop offset="0.72" stop-color="#9A7A5F"/>
<stop offset="0.84" stop-color="#C9A885"/>
<stop offset="1" stop-color="#EEDEBC"/>
</linearGradient>
<linearGradient id="paint5_linear_224_706" x1="-246.949" y1="167.171" x2="806.672" y2="-429.599" gradientUnits="userSpaceOnUse">
<stop stop-color="#EEDEBC"/>
<stop offset="0.06" stop-color="#DDC5A3"/>
<stop offset="0.14" stop-color="#C9A885"/>
<stop offset="0.26" stop-color="#9A7A5F"/>
<stop offset="0.36" stop-color="#C9A885"/>
<stop offset="0.49" stop-color="#EEDEBC"/>
<stop offset="0.54" stop-color="#DDC5A3"/>
<stop offset="0.61" stop-color="#C9A885"/>
<stop offset="0.72" stop-color="#9A7A5F"/>
<stop offset="0.84" stop-color="#C9A885"/>
<stop offset="1" stop-color="#EEDEBC"/>
</linearGradient>
<linearGradient id="paint6_linear_224_706" x1="-253.089" y1="156.321" x2="800.53" y2="-440.45" gradientUnits="userSpaceOnUse">
<stop stop-color="#EEDEBC"/>
<stop offset="0.06" stop-color="#DDC5A3"/>
<stop offset="0.14" stop-color="#C9A885"/>
<stop offset="0.26" stop-color="#9A7A5F"/>
<stop offset="0.36" stop-color="#C9A885"/>
<stop offset="0.49" stop-color="#EEDEBC"/>
<stop offset="0.54" stop-color="#DDC5A3"/>
<stop offset="0.61" stop-color="#C9A885"/>
<stop offset="0.72" stop-color="#9A7A5F"/>
<stop offset="0.84" stop-color="#C9A885"/>
<stop offset="1" stop-color="#EEDEBC"/>
</linearGradient>
<linearGradient id="paint7_linear_224_706" x1="-214.459" y1="224.521" x2="839.161" y2="-372.239" gradientUnits="userSpaceOnUse">
<stop stop-color="#EEDEBC"/>
<stop offset="0.06" stop-color="#DDC5A3"/>
<stop offset="0.14" stop-color="#C9A885"/>
<stop offset="0.26" stop-color="#9A7A5F"/>
<stop offset="0.36" stop-color="#C9A885"/>
<stop offset="0.49" stop-color="#EEDEBC"/>
<stop offset="0.54" stop-color="#DDC5A3"/>
<stop offset="0.61" stop-color="#C9A885"/>
<stop offset="0.72" stop-color="#9A7A5F"/>
<stop offset="0.84" stop-color="#C9A885"/>
<stop offset="1" stop-color="#EEDEBC"/>
</linearGradient>
<linearGradient id="paint8_linear_224_706" x1="-218.689" y1="217.061" x2="834.931" y2="-379.709" gradientUnits="userSpaceOnUse">
<stop stop-color="#EEDEBC"/>
<stop offset="0.06" stop-color="#DDC5A3"/>
<stop offset="0.14" stop-color="#C9A885"/>
<stop offset="0.26" stop-color="#9A7A5F"/>
<stop offset="0.36" stop-color="#C9A885"/>
<stop offset="0.49" stop-color="#EEDEBC"/>
<stop offset="0.54" stop-color="#DDC5A3"/>
<stop offset="0.61" stop-color="#C9A885"/>
<stop offset="0.72" stop-color="#9A7A5F"/>
<stop offset="0.84" stop-color="#C9A885"/>
<stop offset="1" stop-color="#EEDEBC"/>
</linearGradient>
<linearGradient id="paint9_linear_224_706" x1="-221.529" y1="212.031" x2="832.08" y2="-384.729" gradientUnits="userSpaceOnUse">
<stop stop-color="#EEDEBC"/>
<stop offset="0.06" stop-color="#DDC5A3"/>
<stop offset="0.14" stop-color="#C9A885"/>
<stop offset="0.26" stop-color="#9A7A5F"/>
<stop offset="0.36" stop-color="#C9A885"/>
<stop offset="0.49" stop-color="#EEDEBC"/>
<stop offset="0.54" stop-color="#DDC5A3"/>
<stop offset="0.61" stop-color="#C9A885"/>
<stop offset="0.72" stop-color="#9A7A5F"/>
<stop offset="0.84" stop-color="#C9A885"/>
<stop offset="1" stop-color="#EEDEBC"/>
</linearGradient>
<linearGradient id="paint10_linear_224_706" x1="-230.659" y1="195.921" x2="822.951" y2="-400.849" gradientUnits="userSpaceOnUse">
<stop stop-color="#EEDEBC"/>
<stop offset="0.06" stop-color="#DDC5A3"/>
<stop offset="0.14" stop-color="#C9A885"/>
<stop offset="0.26" stop-color="#9A7A5F"/>
<stop offset="0.36" stop-color="#C9A885"/>
<stop offset="0.49" stop-color="#EEDEBC"/>
<stop offset="0.54" stop-color="#DDC5A3"/>
<stop offset="0.61" stop-color="#C9A885"/>
<stop offset="0.72" stop-color="#9A7A5F"/>
<stop offset="0.84" stop-color="#C9A885"/>
<stop offset="1" stop-color="#EEDEBC"/>
</linearGradient>
<linearGradient id="paint11_linear_224_706" x1="-210.079" y1="232.261" x2="843.541" y2="-364.509" gradientUnits="userSpaceOnUse">
<stop stop-color="#EEDEBC"/>
<stop offset="0.06" stop-color="#DDC5A3"/>
<stop offset="0.14" stop-color="#C9A885"/>
<stop offset="0.26" stop-color="#9A7A5F"/>
<stop offset="0.36" stop-color="#C9A885"/>
<stop offset="0.49" stop-color="#EEDEBC"/>
<stop offset="0.54" stop-color="#DDC5A3"/>
<stop offset="0.61" stop-color="#C9A885"/>
<stop offset="0.72" stop-color="#9A7A5F"/>
<stop offset="0.84" stop-color="#C9A885"/>
<stop offset="1" stop-color="#EEDEBC"/>
</linearGradient>
<linearGradient id="paint12_linear_224_706" x1="-209.409" y1="1254.78" x2="1360.35" y2="1119.62" gradientUnits="userSpaceOnUse">
<stop stop-color="#EEDEBC"/>
<stop offset="0.06" stop-color="#DDC5A3"/>
<stop offset="0.14" stop-color="#C9A885"/>
<stop offset="0.26" stop-color="#9A7A5F"/>
<stop offset="0.36" stop-color="#C9A885"/>
<stop offset="0.49" stop-color="#EEDEBC"/>
<stop offset="0.54" stop-color="#DDC5A3"/>
<stop offset="0.61" stop-color="#C9A885"/>
<stop offset="0.72" stop-color="#9A7A5F"/>
<stop offset="0.84" stop-color="#C9A885"/>
<stop offset="1" stop-color="#EEDEBC"/>
</linearGradient>
<linearGradient id="paint13_linear_224_706" x1="1817.45" y1="185.701" x2="763.829" y2="-411.069" gradientUnits="userSpaceOnUse">
<stop stop-color="#EEDEBC"/>
<stop offset="0.06" stop-color="#DDC5A3"/>
<stop offset="0.14" stop-color="#C9A885"/>
<stop offset="0.26" stop-color="#9A7A5F"/>
<stop offset="0.36" stop-color="#C9A885"/>
<stop offset="0.49" stop-color="#EEDEBC"/>
<stop offset="0.54" stop-color="#DDC5A3"/>
<stop offset="0.61" stop-color="#C9A885"/>
<stop offset="0.72" stop-color="#9A7A5F"/>
<stop offset="0.84" stop-color="#C9A885"/>
<stop offset="1" stop-color="#EEDEBC"/>
</linearGradient>
<linearGradient id="paint14_linear_224_706" x1="1821.6" y1="178.371" x2="767.979" y2="-418.399" gradientUnits="userSpaceOnUse">
<stop stop-color="#EEDEBC"/>
<stop offset="0.06" stop-color="#DDC5A3"/>
<stop offset="0.14" stop-color="#C9A885"/>
<stop offset="0.26" stop-color="#9A7A5F"/>
<stop offset="0.36" stop-color="#C9A885"/>
<stop offset="0.49" stop-color="#EEDEBC"/>
<stop offset="0.54" stop-color="#DDC5A3"/>
<stop offset="0.61" stop-color="#C9A885"/>
<stop offset="0.72" stop-color="#9A7A5F"/>
<stop offset="0.84" stop-color="#C9A885"/>
<stop offset="1" stop-color="#EEDEBC"/>
</linearGradient>
<linearGradient id="paint15_linear_224_706" x1="1814.71" y1="190.531" x2="761.099" y2="-406.239" gradientUnits="userSpaceOnUse">
<stop stop-color="#EEDEBC"/>
<stop offset="0.06" stop-color="#DDC5A3"/>
<stop offset="0.14" stop-color="#C9A885"/>
<stop offset="0.26" stop-color="#9A7A5F"/>
<stop offset="0.36" stop-color="#C9A885"/>
<stop offset="0.49" stop-color="#EEDEBC"/>
<stop offset="0.54" stop-color="#DDC5A3"/>
<stop offset="0.61" stop-color="#C9A885"/>
<stop offset="0.72" stop-color="#9A7A5F"/>
<stop offset="0.84" stop-color="#C9A885"/>
<stop offset="1" stop-color="#EEDEBC"/>
</linearGradient>
<linearGradient id="paint16_linear_224_706" x1="1805.21" y1="207.301" x2="751.599" y2="-389.459" gradientUnits="userSpaceOnUse">
<stop stop-color="#EEDEBC"/>
<stop offset="0.06" stop-color="#DDC5A3"/>
<stop offset="0.14" stop-color="#C9A885"/>
<stop offset="0.26" stop-color="#9A7A5F"/>
<stop offset="0.36" stop-color="#C9A885"/>
<stop offset="0.49" stop-color="#EEDEBC"/>
<stop offset="0.54" stop-color="#DDC5A3"/>
<stop offset="0.61" stop-color="#C9A885"/>
<stop offset="0.72" stop-color="#9A7A5F"/>
<stop offset="0.84" stop-color="#C9A885"/>
<stop offset="1" stop-color="#EEDEBC"/>
</linearGradient>
<linearGradient id="paint17_linear_224_706" x1="1810.23" y1="198.441" x2="756.618" y2="-398.328" gradientUnits="userSpaceOnUse">
<stop stop-color="#EEDEBC"/>
<stop offset="0.06" stop-color="#DDC5A3"/>
<stop offset="0.14" stop-color="#C9A885"/>
<stop offset="0.26" stop-color="#9A7A5F"/>
<stop offset="0.36" stop-color="#C9A885"/>
<stop offset="0.49" stop-color="#EEDEBC"/>
<stop offset="0.54" stop-color="#DDC5A3"/>
<stop offset="0.61" stop-color="#C9A885"/>
<stop offset="0.72" stop-color="#9A7A5F"/>
<stop offset="0.84" stop-color="#C9A885"/>
<stop offset="1" stop-color="#EEDEBC"/>
</linearGradient>
<linearGradient id="paint18_linear_224_706" x1="1827.95" y1="167.171" x2="774.329" y2="-429.599" gradientUnits="userSpaceOnUse">
<stop stop-color="#EEDEBC"/>
<stop offset="0.06" stop-color="#DDC5A3"/>
<stop offset="0.14" stop-color="#C9A885"/>
<stop offset="0.26" stop-color="#9A7A5F"/>
<stop offset="0.36" stop-color="#C9A885"/>
<stop offset="0.49" stop-color="#EEDEBC"/>
<stop offset="0.54" stop-color="#DDC5A3"/>
<stop offset="0.61" stop-color="#C9A885"/>
<stop offset="0.72" stop-color="#9A7A5F"/>
<stop offset="0.84" stop-color="#C9A885"/>
<stop offset="1" stop-color="#EEDEBC"/>
</linearGradient>
<linearGradient id="paint19_linear_224_706" x1="1834.09" y1="156.321" x2="780.47" y2="-440.45" gradientUnits="userSpaceOnUse">
<stop stop-color="#EEDEBC"/>
<stop offset="0.06" stop-color="#DDC5A3"/>
<stop offset="0.14" stop-color="#C9A885"/>
<stop offset="0.26" stop-color="#9A7A5F"/>
<stop offset="0.36" stop-color="#C9A885"/>
<stop offset="0.49" stop-color="#EEDEBC"/>
<stop offset="0.54" stop-color="#DDC5A3"/>
<stop offset="0.61" stop-color="#C9A885"/>
<stop offset="0.72" stop-color="#9A7A5F"/>
<stop offset="0.84" stop-color="#C9A885"/>
<stop offset="1" stop-color="#EEDEBC"/>
</linearGradient>
<linearGradient id="paint20_linear_224_706" x1="1795.46" y1="224.521" x2="741.839" y2="-372.239" gradientUnits="userSpaceOnUse">
<stop stop-color="#EEDEBC"/>
<stop offset="0.06" stop-color="#DDC5A3"/>
<stop offset="0.14" stop-color="#C9A885"/>
<stop offset="0.26" stop-color="#9A7A5F"/>
<stop offset="0.36" stop-color="#C9A885"/>
<stop offset="0.49" stop-color="#EEDEBC"/>
<stop offset="0.54" stop-color="#DDC5A3"/>
<stop offset="0.61" stop-color="#C9A885"/>
<stop offset="0.72" stop-color="#9A7A5F"/>
<stop offset="0.84" stop-color="#C9A885"/>
<stop offset="1" stop-color="#EEDEBC"/>
</linearGradient>
<linearGradient id="paint21_linear_224_706" x1="1799.69" y1="217.061" x2="746.069" y2="-379.709" gradientUnits="userSpaceOnUse">
<stop stop-color="#EEDEBC"/>
<stop offset="0.06" stop-color="#DDC5A3"/>
<stop offset="0.14" stop-color="#C9A885"/>
<stop offset="0.26" stop-color="#9A7A5F"/>
<stop offset="0.36" stop-color="#C9A885"/>
<stop offset="0.49" stop-color="#EEDEBC"/>
<stop offset="0.54" stop-color="#DDC5A3"/>
<stop offset="0.61" stop-color="#C9A885"/>
<stop offset="0.72" stop-color="#9A7A5F"/>
<stop offset="0.84" stop-color="#C9A885"/>
<stop offset="1" stop-color="#EEDEBC"/>
</linearGradient>
<linearGradient id="paint22_linear_224_706" x1="1802.53" y1="212.031" x2="748.92" y2="-384.729" gradientUnits="userSpaceOnUse">
<stop stop-color="#EEDEBC"/>
<stop offset="0.06" stop-color="#DDC5A3"/>
<stop offset="0.14" stop-color="#C9A885"/>
<stop offset="0.26" stop-color="#9A7A5F"/>
<stop offset="0.36" stop-color="#C9A885"/>
<stop offset="0.49" stop-color="#EEDEBC"/>
<stop offset="0.54" stop-color="#DDC5A3"/>
<stop offset="0.61" stop-color="#C9A885"/>
<stop offset="0.72" stop-color="#9A7A5F"/>
<stop offset="0.84" stop-color="#C9A885"/>
<stop offset="1" stop-color="#EEDEBC"/>
</linearGradient>
<linearGradient id="paint23_linear_224_706" x1="1811.66" y1="195.921" x2="758.049" y2="-400.849" gradientUnits="userSpaceOnUse">
<stop stop-color="#EEDEBC"/>
<stop offset="0.06" stop-color="#DDC5A3"/>
<stop offset="0.14" stop-color="#C9A885"/>
<stop offset="0.26" stop-color="#9A7A5F"/>
<stop offset="0.36" stop-color="#C9A885"/>
<stop offset="0.49" stop-color="#EEDEBC"/>
<stop offset="0.54" stop-color="#DDC5A3"/>
<stop offset="0.61" stop-color="#C9A885"/>
<stop offset="0.72" stop-color="#9A7A5F"/>
<stop offset="0.84" stop-color="#C9A885"/>
<stop offset="1" stop-color="#EEDEBC"/>
</linearGradient>
<linearGradient id="paint24_linear_224_706" x1="1791.08" y1="232.261" x2="737.459" y2="-364.509" gradientUnits="userSpaceOnUse">
<stop stop-color="#EEDEBC"/>
<stop offset="0.06" stop-color="#DDC5A3"/>
<stop offset="0.14" stop-color="#C9A885"/>
<stop offset="0.26" stop-color="#9A7A5F"/>
<stop offset="0.36" stop-color="#C9A885"/>
<stop offset="0.49" stop-color="#EEDEBC"/>
<stop offset="0.54" stop-color="#DDC5A3"/>
<stop offset="0.61" stop-color="#C9A885"/>
<stop offset="0.72" stop-color="#9A7A5F"/>
<stop offset="0.84" stop-color="#C9A885"/>
<stop offset="1" stop-color="#EEDEBC"/>
</linearGradient>
<linearGradient id="paint25_linear_224_706" x1="1794.41" y1="1254.78" x2="224.648" y2="1119.62" gradientUnits="userSpaceOnUse">
<stop stop-color="#EEDEBC"/>
<stop offset="0.06" stop-color="#DDC5A3"/>
<stop offset="0.14" stop-color="#C9A885"/>
<stop offset="0.26" stop-color="#9A7A5F"/>
<stop offset="0.36" stop-color="#C9A885"/>
<stop offset="0.49" stop-color="#EEDEBC"/>
<stop offset="0.54" stop-color="#DDC5A3"/>
<stop offset="0.61" stop-color="#C9A885"/>
<stop offset="0.72" stop-color="#9A7A5F"/>
<stop offset="0.84" stop-color="#C9A885"/>
<stop offset="1" stop-color="#EEDEBC"/>
</linearGradient>
<linearGradient id="paint26_linear_224_706" x1="1817.45" y1="661.299" x2="763.829" y2="1258.07" gradientUnits="userSpaceOnUse">
<stop stop-color="#EEDEBC"/>
<stop offset="0.06" stop-color="#DDC5A3"/>
<stop offset="0.14" stop-color="#C9A885"/>
<stop offset="0.26" stop-color="#9A7A5F"/>
<stop offset="0.36" stop-color="#C9A885"/>
<stop offset="0.49" stop-color="#EEDEBC"/>
<stop offset="0.54" stop-color="#DDC5A3"/>
<stop offset="0.61" stop-color="#C9A885"/>
<stop offset="0.72" stop-color="#9A7A5F"/>
<stop offset="0.84" stop-color="#C9A885"/>
<stop offset="1" stop-color="#EEDEBC"/>
</linearGradient>
<linearGradient id="paint27_linear_224_706" x1="1821.6" y1="668.629" x2="767.979" y2="1265.4" gradientUnits="userSpaceOnUse">
<stop stop-color="#EEDEBC"/>
<stop offset="0.06" stop-color="#DDC5A3"/>
<stop offset="0.14" stop-color="#C9A885"/>
<stop offset="0.26" stop-color="#9A7A5F"/>
<stop offset="0.36" stop-color="#C9A885"/>
<stop offset="0.49" stop-color="#EEDEBC"/>
<stop offset="0.54" stop-color="#DDC5A3"/>
<stop offset="0.61" stop-color="#C9A885"/>
<stop offset="0.72" stop-color="#9A7A5F"/>
<stop offset="0.84" stop-color="#C9A885"/>
<stop offset="1" stop-color="#EEDEBC"/>
</linearGradient>
<linearGradient id="paint28_linear_224_706" x1="1814.71" y1="656.469" x2="761.099" y2="1253.24" gradientUnits="userSpaceOnUse">
<stop stop-color="#EEDEBC"/>
<stop offset="0.06" stop-color="#DDC5A3"/>
<stop offset="0.14" stop-color="#C9A885"/>
<stop offset="0.26" stop-color="#9A7A5F"/>
<stop offset="0.36" stop-color="#C9A885"/>
<stop offset="0.49" stop-color="#EEDEBC"/>
<stop offset="0.54" stop-color="#DDC5A3"/>
<stop offset="0.61" stop-color="#C9A885"/>
<stop offset="0.72" stop-color="#9A7A5F"/>
<stop offset="0.84" stop-color="#C9A885"/>
<stop offset="1" stop-color="#EEDEBC"/>
</linearGradient>
<linearGradient id="paint29_linear_224_706" x1="1805.21" y1="639.699" x2="751.599" y2="1236.46" gradientUnits="userSpaceOnUse">
<stop stop-color="#EEDEBC"/>
<stop offset="0.06" stop-color="#DDC5A3"/>
<stop offset="0.14" stop-color="#C9A885"/>
<stop offset="0.26" stop-color="#9A7A5F"/>
<stop offset="0.36" stop-color="#C9A885"/>
<stop offset="0.49" stop-color="#EEDEBC"/>
<stop offset="0.54" stop-color="#DDC5A3"/>
<stop offset="0.61" stop-color="#C9A885"/>
<stop offset="0.72" stop-color="#9A7A5F"/>
<stop offset="0.84" stop-color="#C9A885"/>
<stop offset="1" stop-color="#EEDEBC"/>
</linearGradient>
<linearGradient id="paint30_linear_224_706" x1="1810.23" y1="648.559" x2="756.618" y2="1245.33" gradientUnits="userSpaceOnUse">
<stop stop-color="#EEDEBC"/>
<stop offset="0.06" stop-color="#DDC5A3"/>
<stop offset="0.14" stop-color="#C9A885"/>
<stop offset="0.26" stop-color="#9A7A5F"/>
<stop offset="0.36" stop-color="#C9A885"/>
<stop offset="0.49" stop-color="#EEDEBC"/>
<stop offset="0.54" stop-color="#DDC5A3"/>
<stop offset="0.61" stop-color="#C9A885"/>
<stop offset="0.72" stop-color="#9A7A5F"/>
<stop offset="0.84" stop-color="#C9A885"/>
<stop offset="1" stop-color="#EEDEBC"/>
</linearGradient>
<linearGradient id="paint31_linear_224_706" x1="1827.95" y1="679.829" x2="774.329" y2="1276.6" gradientUnits="userSpaceOnUse">
<stop stop-color="#EEDEBC"/>
<stop offset="0.06" stop-color="#DDC5A3"/>
<stop offset="0.14" stop-color="#C9A885"/>
<stop offset="0.26" stop-color="#9A7A5F"/>
<stop offset="0.36" stop-color="#C9A885"/>
<stop offset="0.49" stop-color="#EEDEBC"/>
<stop offset="0.54" stop-color="#DDC5A3"/>
<stop offset="0.61" stop-color="#C9A885"/>
<stop offset="0.72" stop-color="#9A7A5F"/>
<stop offset="0.84" stop-color="#C9A885"/>
<stop offset="1" stop-color="#EEDEBC"/>
</linearGradient>
<linearGradient id="paint32_linear_224_706" x1="1834.09" y1="690.679" x2="780.47" y2="1287.45" gradientUnits="userSpaceOnUse">
<stop stop-color="#EEDEBC"/>
<stop offset="0.06" stop-color="#DDC5A3"/>
<stop offset="0.14" stop-color="#C9A885"/>
<stop offset="0.26" stop-color="#9A7A5F"/>
<stop offset="0.36" stop-color="#C9A885"/>
<stop offset="0.49" stop-color="#EEDEBC"/>
<stop offset="0.54" stop-color="#DDC5A3"/>
<stop offset="0.61" stop-color="#C9A885"/>
<stop offset="0.72" stop-color="#9A7A5F"/>
<stop offset="0.84" stop-color="#C9A885"/>
<stop offset="1" stop-color="#EEDEBC"/>
</linearGradient>
<linearGradient id="paint33_linear_224_706" x1="1795.46" y1="622.479" x2="741.839" y2="1219.24" gradientUnits="userSpaceOnUse">
<stop stop-color="#EEDEBC"/>
<stop offset="0.06" stop-color="#DDC5A3"/>
<stop offset="0.14" stop-color="#C9A885"/>
<stop offset="0.26" stop-color="#9A7A5F"/>
<stop offset="0.36" stop-color="#C9A885"/>
<stop offset="0.49" stop-color="#EEDEBC"/>
<stop offset="0.54" stop-color="#DDC5A3"/>
<stop offset="0.61" stop-color="#C9A885"/>
<stop offset="0.72" stop-color="#9A7A5F"/>
<stop offset="0.84" stop-color="#C9A885"/>
<stop offset="1" stop-color="#EEDEBC"/>
</linearGradient>
<linearGradient id="paint34_linear_224_706" x1="1799.69" y1="629.939" x2="746.069" y2="1226.71" gradientUnits="userSpaceOnUse">
<stop stop-color="#EEDEBC"/>
<stop offset="0.06" stop-color="#DDC5A3"/>
<stop offset="0.14" stop-color="#C9A885"/>
<stop offset="0.26" stop-color="#9A7A5F"/>
<stop offset="0.36" stop-color="#C9A885"/>
<stop offset="0.49" stop-color="#EEDEBC"/>
<stop offset="0.54" stop-color="#DDC5A3"/>
<stop offset="0.61" stop-color="#C9A885"/>
<stop offset="0.72" stop-color="#9A7A5F"/>
<stop offset="0.84" stop-color="#C9A885"/>
<stop offset="1" stop-color="#EEDEBC"/>
</linearGradient>
<linearGradient id="paint35_linear_224_706" x1="1802.53" y1="634.969" x2="748.92" y2="1231.73" gradientUnits="userSpaceOnUse">
<stop stop-color="#EEDEBC"/>
<stop offset="0.06" stop-color="#DDC5A3"/>
<stop offset="0.14" stop-color="#C9A885"/>
<stop offset="0.26" stop-color="#9A7A5F"/>
<stop offset="0.36" stop-color="#C9A885"/>
<stop offset="0.49" stop-color="#EEDEBC"/>
<stop offset="0.54" stop-color="#DDC5A3"/>
<stop offset="0.61" stop-color="#C9A885"/>
<stop offset="0.72" stop-color="#9A7A5F"/>
<stop offset="0.84" stop-color="#C9A885"/>
<stop offset="1" stop-color="#EEDEBC"/>
</linearGradient>
<linearGradient id="paint36_linear_224_706" x1="1811.66" y1="651.079" x2="758.049" y2="1247.85" gradientUnits="userSpaceOnUse">
<stop stop-color="#EEDEBC"/>
<stop offset="0.06" stop-color="#DDC5A3"/>
<stop offset="0.14" stop-color="#C9A885"/>
<stop offset="0.26" stop-color="#9A7A5F"/>
<stop offset="0.36" stop-color="#C9A885"/>
<stop offset="0.49" stop-color="#EEDEBC"/>
<stop offset="0.54" stop-color="#DDC5A3"/>
<stop offset="0.61" stop-color="#C9A885"/>
<stop offset="0.72" stop-color="#9A7A5F"/>
<stop offset="0.84" stop-color="#C9A885"/>
<stop offset="1" stop-color="#EEDEBC"/>
</linearGradient>
<linearGradient id="paint37_linear_224_706" x1="1791.08" y1="614.739" x2="737.459" y2="1211.51" gradientUnits="userSpaceOnUse">
<stop stop-color="#EEDEBC"/>
<stop offset="0.06" stop-color="#DDC5A3"/>
<stop offset="0.14" stop-color="#C9A885"/>
<stop offset="0.26" stop-color="#9A7A5F"/>
<stop offset="0.36" stop-color="#C9A885"/>
<stop offset="0.49" stop-color="#EEDEBC"/>
<stop offset="0.54" stop-color="#DDC5A3"/>
<stop offset="0.61" stop-color="#C9A885"/>
<stop offset="0.72" stop-color="#9A7A5F"/>
<stop offset="0.84" stop-color="#C9A885"/>
<stop offset="1" stop-color="#EEDEBC"/>
</linearGradient>
<linearGradient id="paint38_linear_224_706" x1="-236.449" y1="661.299" x2="817.171" y2="1258.07" gradientUnits="userSpaceOnUse">
<stop stop-color="#EEDEBC"/>
<stop offset="0.06" stop-color="#DDC5A3"/>
<stop offset="0.14" stop-color="#C9A885"/>
<stop offset="0.26" stop-color="#9A7A5F"/>
<stop offset="0.36" stop-color="#C9A885"/>
<stop offset="0.49" stop-color="#EEDEBC"/>
<stop offset="0.54" stop-color="#DDC5A3"/>
<stop offset="0.61" stop-color="#C9A885"/>
<stop offset="0.72" stop-color="#9A7A5F"/>
<stop offset="0.84" stop-color="#C9A885"/>
<stop offset="1" stop-color="#EEDEBC"/>
</linearGradient>
<linearGradient id="paint39_linear_224_706" x1="-240.599" y1="668.629" x2="813.021" y2="1265.4" gradientUnits="userSpaceOnUse">
<stop stop-color="#EEDEBC"/>
<stop offset="0.06" stop-color="#DDC5A3"/>
<stop offset="0.14" stop-color="#C9A885"/>
<stop offset="0.26" stop-color="#9A7A5F"/>
<stop offset="0.36" stop-color="#C9A885"/>
<stop offset="0.49" stop-color="#EEDEBC"/>
<stop offset="0.54" stop-color="#DDC5A3"/>
<stop offset="0.61" stop-color="#C9A885"/>
<stop offset="0.72" stop-color="#9A7A5F"/>
<stop offset="0.84" stop-color="#C9A885"/>
<stop offset="1" stop-color="#EEDEBC"/>
</linearGradient>
<linearGradient id="paint40_linear_224_706" x1="-233.709" y1="656.469" x2="819.902" y2="1253.24" gradientUnits="userSpaceOnUse">
<stop stop-color="#EEDEBC"/>
<stop offset="0.06" stop-color="#DDC5A3"/>
<stop offset="0.14" stop-color="#C9A885"/>
<stop offset="0.26" stop-color="#9A7A5F"/>
<stop offset="0.36" stop-color="#C9A885"/>
<stop offset="0.49" stop-color="#EEDEBC"/>
<stop offset="0.54" stop-color="#DDC5A3"/>
<stop offset="0.61" stop-color="#C9A885"/>
<stop offset="0.72" stop-color="#9A7A5F"/>
<stop offset="0.84" stop-color="#C9A885"/>
<stop offset="1" stop-color="#EEDEBC"/>
</linearGradient>
<linearGradient id="paint41_linear_224_706" x1="-224.209" y1="639.699" x2="829.401" y2="1236.46" gradientUnits="userSpaceOnUse">
<stop stop-color="#EEDEBC"/>
<stop offset="0.06" stop-color="#DDC5A3"/>
<stop offset="0.14" stop-color="#C9A885"/>
<stop offset="0.26" stop-color="#9A7A5F"/>
<stop offset="0.36" stop-color="#C9A885"/>
<stop offset="0.49" stop-color="#EEDEBC"/>
<stop offset="0.54" stop-color="#DDC5A3"/>
<stop offset="0.61" stop-color="#C9A885"/>
<stop offset="0.72" stop-color="#9A7A5F"/>
<stop offset="0.84" stop-color="#C9A885"/>
<stop offset="1" stop-color="#EEDEBC"/>
</linearGradient>
<linearGradient id="paint42_linear_224_706" x1="-229.229" y1="648.559" x2="824.382" y2="1245.33" gradientUnits="userSpaceOnUse">
<stop stop-color="#EEDEBC"/>
<stop offset="0.06" stop-color="#DDC5A3"/>
<stop offset="0.14" stop-color="#C9A885"/>
<stop offset="0.26" stop-color="#9A7A5F"/>
<stop offset="0.36" stop-color="#C9A885"/>
<stop offset="0.49" stop-color="#EEDEBC"/>
<stop offset="0.54" stop-color="#DDC5A3"/>
<stop offset="0.61" stop-color="#C9A885"/>
<stop offset="0.72" stop-color="#9A7A5F"/>
<stop offset="0.84" stop-color="#C9A885"/>
<stop offset="1" stop-color="#EEDEBC"/>
</linearGradient>
<linearGradient id="paint43_linear_224_706" x1="-246.949" y1="679.829" x2="806.672" y2="1276.6" gradientUnits="userSpaceOnUse">
<stop stop-color="#EEDEBC"/>
<stop offset="0.06" stop-color="#DDC5A3"/>
<stop offset="0.14" stop-color="#C9A885"/>
<stop offset="0.26" stop-color="#9A7A5F"/>
<stop offset="0.36" stop-color="#C9A885"/>
<stop offset="0.49" stop-color="#EEDEBC"/>
<stop offset="0.54" stop-color="#DDC5A3"/>
<stop offset="0.61" stop-color="#C9A885"/>
<stop offset="0.72" stop-color="#9A7A5F"/>
<stop offset="0.84" stop-color="#C9A885"/>
<stop offset="1" stop-color="#EEDEBC"/>
</linearGradient>
<linearGradient id="paint44_linear_224_706" x1="-253.089" y1="690.679" x2="800.53" y2="1287.45" gradientUnits="userSpaceOnUse">
<stop stop-color="#EEDEBC"/>
<stop offset="0.06" stop-color="#DDC5A3"/>
<stop offset="0.14" stop-color="#C9A885"/>
<stop offset="0.26" stop-color="#9A7A5F"/>
<stop offset="0.36" stop-color="#C9A885"/>
<stop offset="0.49" stop-color="#EEDEBC"/>
<stop offset="0.54" stop-color="#DDC5A3"/>
<stop offset="0.61" stop-color="#C9A885"/>
<stop offset="0.72" stop-color="#9A7A5F"/>
<stop offset="0.84" stop-color="#C9A885"/>
<stop offset="1" stop-color="#EEDEBC"/>
</linearGradient>
<linearGradient id="paint45_linear_224_706" x1="-214.459" y1="622.479" x2="839.161" y2="1219.24" gradientUnits="userSpaceOnUse">
<stop stop-color="#EEDEBC"/>
<stop offset="0.06" stop-color="#DDC5A3"/>
<stop offset="0.14" stop-color="#C9A885"/>
<stop offset="0.26" stop-color="#9A7A5F"/>
<stop offset="0.36" stop-color="#C9A885"/>
<stop offset="0.49" stop-color="#EEDEBC"/>
<stop offset="0.54" stop-color="#DDC5A3"/>
<stop offset="0.61" stop-color="#C9A885"/>
<stop offset="0.72" stop-color="#9A7A5F"/>
<stop offset="0.84" stop-color="#C9A885"/>
<stop offset="1" stop-color="#EEDEBC"/>
</linearGradient>
<linearGradient id="paint46_linear_224_706" x1="-218.689" y1="629.939" x2="834.931" y2="1226.71" gradientUnits="userSpaceOnUse">
<stop stop-color="#EEDEBC"/>
<stop offset="0.06" stop-color="#DDC5A3"/>
<stop offset="0.14" stop-color="#C9A885"/>
<stop offset="0.26" stop-color="#9A7A5F"/>
<stop offset="0.36" stop-color="#C9A885"/>
<stop offset="0.49" stop-color="#EEDEBC"/>
<stop offset="0.54" stop-color="#DDC5A3"/>
<stop offset="0.61" stop-color="#C9A885"/>
<stop offset="0.72" stop-color="#9A7A5F"/>
<stop offset="0.84" stop-color="#C9A885"/>
<stop offset="1" stop-color="#EEDEBC"/>
</linearGradient>
<linearGradient id="paint47_linear_224_706" x1="-221.529" y1="634.969" x2="832.08" y2="1231.73" gradientUnits="userSpaceOnUse">
<stop stop-color="#EEDEBC"/>
<stop offset="0.06" stop-color="#DDC5A3"/>
<stop offset="0.14" stop-color="#C9A885"/>
<stop offset="0.26" stop-color="#9A7A5F"/>
<stop offset="0.36" stop-color="#C9A885"/>
<stop offset="0.49" stop-color="#EEDEBC"/>
<stop offset="0.54" stop-color="#DDC5A3"/>
<stop offset="0.61" stop-color="#C9A885"/>
<stop offset="0.72" stop-color="#9A7A5F"/>
<stop offset="0.84" stop-color="#C9A885"/>
<stop offset="1" stop-color="#EEDEBC"/>
</linearGradient>
<linearGradient id="paint48_linear_224_706" x1="-230.659" y1="651.079" x2="822.951" y2="1247.85" gradientUnits="userSpaceOnUse">
<stop stop-color="#EEDEBC"/>
<stop offset="0.06" stop-color="#DDC5A3"/>
<stop offset="0.14" stop-color="#C9A885"/>
<stop offset="0.26" stop-color="#9A7A5F"/>
<stop offset="0.36" stop-color="#C9A885"/>
<stop offset="0.49" stop-color="#EEDEBC"/>
<stop offset="0.54" stop-color="#DDC5A3"/>
<stop offset="0.61" stop-color="#C9A885"/>
<stop offset="0.72" stop-color="#9A7A5F"/>
<stop offset="0.84" stop-color="#C9A885"/>
<stop offset="1" stop-color="#EEDEBC"/>
</linearGradient>
<linearGradient id="paint49_linear_224_706" x1="-210.079" y1="614.739" x2="843.541" y2="1211.51" gradientUnits="userSpaceOnUse">
<stop stop-color="#EEDEBC"/>
<stop offset="0.06" stop-color="#DDC5A3"/>
<stop offset="0.14" stop-color="#C9A885"/>
<stop offset="0.26" stop-color="#9A7A5F"/>
<stop offset="0.36" stop-color="#C9A885"/>
<stop offset="0.49" stop-color="#EEDEBC"/>
<stop offset="0.54" stop-color="#DDC5A3"/>
<stop offset="0.61" stop-color="#C9A885"/>
<stop offset="0.72" stop-color="#9A7A5F"/>
<stop offset="0.84" stop-color="#C9A885"/>
<stop offset="1" stop-color="#EEDEBC"/>
</linearGradient>
<clipPath id="clip0_224_706">
<rect width="1581" height="847" fill="white"/>
</clipPath>
</defs>
</svg>
