<svg width="1581" height="127" viewBox="0 0 1581 127" fill="none" xmlns="http://www.w3.org/2000/svg">
<g clip-path="url(#clip0_244_752)">
<path d="M1.49102 59.471C2.71102 53.921 8.90102 52.781 12.971 52.651C17.231 52.511 21.281 51.171 24.491 48.641C35.991 39.561 26.551 25.771 26.551 25.771C26.551 25.771 29.571 43.831 17.581 46.831C17.581 46.831 9.51102 49.261 1.96102 42.441C1.96102 42.441 3.18102 47.651 8.41102 49.181C5.40102 49.991 1.05102 52.021 1.49102 59.481V59.471Z" fill="url(#paint0_linear_244_752)"/>
<path d="M68.751 2.5209C63.081 2.8109 60.931 8.72092 60.131 12.7209C59.291 16.9009 57.301 20.6709 54.271 23.4209C43.421 33.2709 31.371 21.6909 31.371 21.6909C31.371 21.6909 48.691 27.6409 53.621 16.3109C53.621 16.3109 57.341 8.75091 51.861 0.180908C51.861 0.180908 56.801 2.24091 57.451 7.65091C58.741 4.81091 61.461 0.860905 68.751 2.5209Z" fill="url(#paint1_linear_244_752)"/>
<path d="M31.191 47.611C35.791 45.031 35.241 37.081 34.101 31.261C33.961 30.561 33.811 29.891 33.671 29.271C34.251 29.521 34.881 29.781 35.531 30.011C41.081 32.091 48.851 33.961 52.151 29.851C53.141 37.271 46.221 38.831 37.001 33.201C41.021 43.241 38.341 49.801 31.191 47.601V47.611Z" fill="url(#paint2_linear_244_752)"/>
<path d="M59.851 39.291C55.251 41.871 55.801 49.821 56.941 55.641C57.081 56.341 57.231 57.011 57.371 57.631C56.791 57.381 56.161 57.121 55.511 56.891C49.961 54.811 42.191 52.941 38.891 57.051C37.901 49.631 44.821 48.071 54.041 53.701C50.021 43.661 52.701 37.101 59.851 39.301V39.291Z" fill="url(#paint3_linear_244_752)"/>
<path d="M45.331 39.341C47.811 41.351 48.561 46.261 48.561 46.261C48.561 46.261 43.841 44.711 42.271 41.941C41.101 39.871 43.491 37.851 45.341 39.341H45.331Z" fill="url(#paint4_linear_244_752)"/>
<path d="M29.4311 3.51096C24.8311 6.09096 25.3811 14.0409 26.5211 19.8609C26.6611 20.5609 26.8111 21.231 26.9511 21.851C26.3711 21.601 25.7411 21.3409 25.0911 21.1109C19.5411 19.0309 11.7711 17.1609 8.47106 21.2709C7.48106 13.8509 14.4011 12.2909 23.6211 17.9209C19.6011 7.88093 22.2811 1.32094 29.4311 3.52094V3.51096Z" fill="url(#paint5_linear_244_752)"/>
<path d="M13.411 8.95099C10.931 6.94099 10.181 2.03101 10.181 2.03101C10.181 2.03101 14.901 3.58101 16.471 6.35101C17.641 8.42101 15.251 10.441 13.401 8.95099H13.411Z" fill="url(#paint6_linear_244_752)"/>
<path d="M39.4611 94.551C39.1411 93.961 38.7111 93.421 38.1911 92.951C36.9911 91.861 35.3411 91.201 33.7111 91.181C32.2211 91.161 30.3611 91.751 29.7011 93.001C29.3311 93.711 29.2111 94.801 29.5811 95.571C29.8311 96.091 30.2711 96.541 30.8211 96.821C31.8411 97.361 32.6811 96.921 33.6911 97.141C37.1611 97.881 35.3211 100.261 34.1711 100.881C33.3911 101.301 32.4511 101.411 31.5311 101.371C22.3411 101.001 25.0811 90.851 27.0811 86.111C29.1211 81.271 32.4511 76.841 33.7911 71.741C34.4911 69.081 34.3211 65.481 32.0811 63.321C31.8311 63.621 31.5911 63.911 31.3411 64.211C31.2011 64.551 31.0511 64.891 30.8911 65.231C31.4611 67.041 31.3411 69.221 31.1911 70.721C30.8011 74.551 29.0311 78.051 27.3611 81.451C25.9311 84.361 24.5911 87.291 23.7711 90.441C23.0711 93.151 22.2211 96.441 23.2311 99.291C24.7811 103.641 30.2811 106.211 34.7711 104.731C39.0911 103.311 41.7011 98.711 39.4511 94.561L39.4611 94.551Z" fill="url(#paint7_linear_244_752)"/>
<path d="M0.691013 59.351C-0.0489871 62.151 0.401013 65.421 2.55101 67.751C4.70101 70.081 8.75101 71.051 11.261 69.381C13.771 67.711 13.451 63.371 10.441 62.101C8.78101 61.401 6.74101 61.651 5.29101 60.611C4.06101 59.721 3.69101 58.101 4.13101 56.821C4.56101 55.541 5.64101 54.551 6.84101 53.791C15.931 48.081 28.371 55.021 30.281 64.651C32.021 73.411 25.781 80.391 19.411 86.451C16.051 89.651 8.37101 91.181 5.80101 85.611C5.55101 85.071 5.19101 84.381 4.58101 84.421C4.35101 84.441 4.16101 84.561 3.99101 84.701C2.69101 85.731 2.07101 87.371 2.11101 89.001C2.17101 91.091 3.18101 93.361 4.82101 94.961C5.54101 95.661 8.10101 96.491 8.45101 97.221C8.84101 98.021 6.96101 100.851 6.59101 101.621C3.07101 108.891 -1.80899 116.651 0.681011 125.231C1.22101 127.081 2.94101 126.171 3.68101 125.131C5.19101 122.991 7.54101 121.351 8.85101 119.101C9.72101 119.441 10.491 120.251 11.461 120.621C12.561 121.041 13.761 121.211 14.911 121.151C19.281 120.911 21.811 117.891 22.391 114.621C22.491 114.051 21.771 113.651 21.201 113.991C17.771 116.061 15.561 111.481 15.401 109.481C15.231 107.181 15.531 104.891 15.901 102.641C16.631 98.191 18.871 94.441 21.661 90.971C27.411 85.391 32.411 78.921 34.311 71.331C35.711 65.721 34.681 59.111 30.101 54.681C28.341 52.981 26.151 51.681 23.791 50.801C22.641 50.371 21.451 50.041 20.251 49.811C11.931 48.201 2.63101 52.101 0.711013 59.361L0.691013 59.351Z" fill="url(#paint8_linear_244_752)"/>
<path d="M102.321 39.4611C101.731 39.1411 101.191 38.7111 100.721 38.1911C99.6311 36.9911 98.9711 35.3411 98.9511 33.7111C98.9311 32.2211 99.5211 30.3611 100.771 29.7011C101.481 29.3311 102.571 29.2111 103.341 29.5811C103.861 29.8311 104.311 30.2711 104.591 30.8211C105.131 31.8411 104.691 32.6811 104.911 33.6911C105.651 37.1611 108.031 35.3211 108.651 34.1711C109.071 33.3911 109.181 32.4511 109.141 31.5311C108.771 22.3411 98.6211 25.0811 93.8811 27.0811C89.0411 29.1211 84.6111 32.4511 79.5111 33.7911C76.8511 34.4911 73.2511 34.3211 71.0911 32.0811C71.3911 31.8311 71.6811 31.5911 71.9811 31.3411C72.3211 31.2011 72.6611 31.0511 73.0011 30.8911C74.8111 31.4611 76.9911 31.3511 78.4911 31.1911C82.3211 30.8011 85.8211 29.0311 89.2211 27.3611C92.1311 25.9311 95.0611 24.5911 98.2111 23.7711C100.921 23.0711 104.211 22.2211 107.061 23.2311C111.411 24.7811 113.981 30.2811 112.501 34.7711C111.081 39.0911 106.481 41.701 102.331 39.451L102.321 39.4611Z" fill="url(#paint9_linear_244_752)"/>
<path d="M67.121 0.69102C69.911 -0.0489798 73.191 0.401006 75.521 2.55101C77.851 4.70101 78.821 8.75103 77.151 11.261C75.481 13.771 71.141 13.451 69.871 10.441C69.171 8.78102 69.421 6.74103 68.381 5.29103C67.491 4.06103 65.871 3.69102 64.591 4.13102C63.311 4.56102 62.321 5.64101 61.561 6.84101C55.851 15.931 62.791 28.371 72.421 30.281C81.181 32.021 88.161 25.781 94.221 19.411C97.421 16.051 98.951 8.37101 93.381 5.80101C92.841 5.55101 92.151 5.191 92.191 4.581C92.211 4.351 92.331 4.16101 92.471 3.99101C93.501 2.69101 95.141 2.071 96.771 2.111C98.861 2.171 101.131 3.18103 102.731 4.82102C103.431 5.54103 104.261 8.101 104.991 8.451C105.791 8.841 108.621 6.96101 109.391 6.59101C116.661 3.07101 124.421 -1.80899 133.001 0.68101C134.851 1.22101 133.941 2.94101 132.901 3.68101C130.761 5.19101 129.121 7.54102 126.871 8.85102C127.211 9.72102 128.021 10.491 128.391 11.461C128.811 12.561 128.981 13.761 128.921 14.911C128.681 19.281 125.661 21.811 122.391 22.391C121.821 22.491 121.421 21.771 121.761 21.201C123.831 17.771 119.251 15.561 117.251 15.401C114.951 15.231 112.661 15.531 110.411 15.901C105.961 16.631 102.211 18.871 98.741 21.661C93.161 27.411 86.691 32.411 79.101 34.311C73.491 35.711 66.881 34.681 62.451 30.101C60.741 28.341 59.451 26.151 58.571 23.791C58.141 22.641 57.811 21.451 57.581 20.251C55.971 11.931 59.871 2.63101 67.131 0.711009L67.121 0.69102Z" fill="url(#paint10_linear_244_752)"/>
<path d="M87.391 36.051C86.531 37.791 85.0911 39.251 84.3711 41.041C83.7711 40.881 83.2111 40.381 82.5511 40.211C81.7911 40.021 80.9911 40.031 80.2411 40.201C77.3711 40.861 75.9011 43.361 75.7311 45.821C75.7011 46.251 76.2011 46.461 76.5511 46.151C78.6811 44.251 80.441 47.381 80.671 48.821C80.941 50.491 80.8911 52.211 80.7911 53.901C80.6011 57.251 79.371 60.251 77.751 63.101C77.171 63.911 76.6011 64.731 76.0511 65.571C76.1811 64.961 76.2911 64.351 76.3811 63.731C76.6711 61.661 77.0111 59.151 76.1611 57.171C74.8511 54.141 71.0611 52.861 68.1911 54.441C65.4311 55.961 64.0111 59.621 65.7611 62.431C66.0111 62.831 66.3311 63.181 66.7011 63.471C67.5611 64.141 68.7011 64.441 69.7811 64.281C70.7711 64.131 71.9511 63.491 72.3111 62.501C72.5111 61.941 72.521 61.131 72.2211 60.601C72.021 60.251 71.7011 59.971 71.3211 59.821C70.6111 59.541 70.0911 59.951 69.4111 59.901C67.0711 59.731 68.1311 57.791 68.8511 57.211C69.3411 56.821 69.9511 56.631 70.5611 56.561C76.6511 55.821 75.5011 63.581 74.4911 67.281C74.3011 67.991 74.0711 68.701 73.8311 69.401C73.7211 69.621 73.611 69.841 73.501 70.061C72.551 70.381 71.6211 70.741 70.7011 71.141C69.9811 71.331 69.2611 71.511 68.5411 71.661C64.7811 72.421 56.9611 73.041 58.1111 67.021C58.2211 66.421 58.4511 65.821 58.8711 65.361C59.5011 64.681 61.5111 63.761 61.5211 66.101C61.5211 66.781 61.0811 67.281 61.3111 68.001C61.4311 68.391 61.6911 68.721 62.0311 68.951C62.5411 69.281 63.3511 69.331 63.9211 69.171C64.9311 68.881 65.6511 67.741 65.8711 66.771C66.1111 65.701 65.8711 64.551 65.2711 63.651C65.0111 63.261 64.6811 62.921 64.3011 62.641C61.6211 60.701 57.8611 61.871 56.1711 64.531C54.4111 67.291 55.4311 71.161 58.3611 72.671C60.2811 73.651 62.8111 73.481 64.8911 73.331C65.5111 73.291 66.1311 73.221 66.7511 73.131C65.8811 73.621 65.0211 74.131 64.1711 74.661C61.2111 76.081 58.1411 77.111 54.7811 77.081C53.0911 77.061 51.3711 77.001 49.7211 76.621C48.2911 76.291 45.2911 74.331 47.3311 72.331C47.6711 72.001 47.4811 71.481 47.0511 71.491C44.5811 71.491 41.9911 72.801 41.1411 75.611C40.9211 76.351 40.8611 77.151 40.9911 77.921C41.1111 78.591 41.5811 79.181 41.6911 79.791C39.8511 80.381 38.3011 81.721 36.5111 82.471C35.6411 82.831 34.7111 83.851 35.9811 84.411C41.8511 87.011 48.2611 84.721 54.0911 83.261C54.7011 83.111 57.0511 82.211 57.5811 82.551C58.0511 82.861 58.2611 84.621 58.6711 85.171C59.5811 86.411 61.0811 87.341 62.5911 87.611C63.7711 87.831 65.0611 87.611 66.0111 86.881C66.1311 86.781 66.2611 86.671 66.3011 86.521C66.4211 86.121 65.9711 85.811 65.6211 85.591C61.9611 83.281 64.2511 78.451 67.1011 76.631C68.6611 75.631 70.271 74.651 71.921 73.811C71.341 75.481 70.9111 77.191 70.6811 78.951C70.1211 83.221 71.2311 87.961 74.5411 90.721C75.8111 91.781 77.3411 92.491 78.9611 92.881C79.7511 93.071 80.551 93.181 81.361 93.221C86.951 93.491 92.8411 89.601 93.6311 84.061C93.7111 83.491 93.7311 82.911 93.6911 82.341C93.8211 81.661 93.9011 80.981 93.9111 80.291C93.9311 79.481 93.8711 78.671 93.7311 77.871C93.4511 76.231 92.8511 74.661 91.8811 73.321C89.3511 69.831 84.7011 68.411 80.4011 68.671C79.4311 68.731 78.4711 68.861 77.5111 69.031C78.1511 68.071 78.821 67.131 79.501 66.211C81.511 63.491 86.4811 61.521 88.5411 65.331C88.7411 65.701 89.021 66.171 89.421 66.071C89.571 66.031 89.6911 65.921 89.7911 65.801C90.5811 64.901 90.891 63.631 90.751 62.441C90.5811 60.911 89.7611 59.351 88.5711 58.361C88.0511 57.921 86.301 57.591 86.031 57.101C85.721 56.551 86.7811 54.271 86.9711 53.671C88.821 47.951 91.5311 41.711 89.3311 35.681C88.861 34.381 87.781 35.241 87.361 36.081L87.391 36.051ZM84.0511 90.281C82.7511 90.401 81.4211 90.431 80.1311 90.221C78.6611 89.971 77.231 89.321 76.2211 88.211C75.001 86.861 74.2511 85.131 73.7711 83.401C72.6911 79.491 73.7311 75.751 75.5911 72.231C76.7111 71.861 77.8511 71.581 79.0211 71.441C81.6211 71.131 84.4111 71.561 86.5911 73.081C90.6911 75.941 93.321 82.571 90.251 87.021C89.611 87.951 88.841 88.821 87.861 89.371C87.3811 89.641 86.8711 89.8209 86.3411 89.951C85.6011 90.131 84.8211 90.221 84.0511 90.291V90.281Z" fill="url(#paint11_linear_244_752)"/>
<path d="M1579.51 59.471C1578.29 53.921 1572.1 52.781 1568.03 52.651C1563.77 52.511 1559.72 51.171 1556.51 48.641C1545.01 39.561 1554.45 25.771 1554.45 25.771C1554.45 25.771 1551.43 43.831 1563.42 46.831C1563.42 46.831 1571.49 49.261 1579.04 42.441C1579.04 42.441 1577.82 47.651 1572.59 49.181C1575.6 49.991 1579.95 52.021 1579.51 59.481V59.471Z" fill="url(#paint12_linear_244_752)"/>
<path d="M1512.25 2.5209C1517.92 2.8109 1520.07 8.72092 1520.87 12.7209C1521.71 16.9009 1523.7 20.6709 1526.73 23.4209C1537.58 33.2709 1549.63 21.6909 1549.63 21.6909C1549.63 21.6909 1532.31 27.6409 1527.38 16.3109C1527.38 16.3109 1523.66 8.75091 1529.14 0.180908C1529.14 0.180908 1524.2 2.24091 1523.55 7.65091C1522.26 4.81091 1519.54 0.860905 1512.25 2.5209Z" fill="url(#paint13_linear_244_752)"/>
<path d="M1549.81 47.611C1545.21 45.031 1545.76 37.081 1546.9 31.261C1547.04 30.561 1547.19 29.891 1547.33 29.271C1546.75 29.521 1546.12 29.781 1545.47 30.011C1539.92 32.091 1532.15 33.961 1528.85 29.851C1527.86 37.271 1534.78 38.831 1544 33.201C1539.98 43.241 1542.66 49.801 1549.81 47.601V47.611Z" fill="url(#paint14_linear_244_752)"/>
<path d="M1521.15 39.291C1525.75 41.871 1525.2 49.821 1524.06 55.641C1523.92 56.341 1523.77 57.011 1523.63 57.631C1524.21 57.381 1524.84 57.121 1525.49 56.891C1531.04 54.811 1538.81 52.941 1542.11 57.051C1543.1 49.631 1536.18 48.071 1526.96 53.701C1530.98 43.661 1528.3 37.101 1521.15 39.301V39.291Z" fill="url(#paint15_linear_244_752)"/>
<path d="M1535.67 39.341C1533.19 41.351 1532.44 46.261 1532.44 46.261C1532.44 46.261 1537.16 44.711 1538.73 41.941C1539.9 39.871 1537.51 37.851 1535.66 39.341H1535.67Z" fill="url(#paint16_linear_244_752)"/>
<path d="M1551.57 3.51096C1556.17 6.09096 1555.62 14.0409 1554.48 19.8609C1554.34 20.5609 1554.19 21.231 1554.05 21.851C1554.63 21.601 1555.26 21.3409 1555.91 21.1109C1561.46 19.0309 1569.23 17.1609 1572.53 21.2709C1573.52 13.8509 1566.6 12.2909 1557.38 17.9209C1561.4 7.88093 1558.72 1.32094 1551.57 3.52094V3.51096Z" fill="url(#paint17_linear_244_752)"/>
<path d="M1567.59 8.95099C1570.07 6.94099 1570.82 2.03101 1570.82 2.03101C1570.82 2.03101 1566.1 3.58101 1564.53 6.35101C1563.36 8.42101 1565.75 10.441 1567.6 8.95099H1567.59Z" fill="url(#paint18_linear_244_752)"/>
<path d="M1541.54 94.551C1541.86 93.961 1542.29 93.421 1542.81 92.951C1544.01 91.861 1545.66 91.201 1547.29 91.181C1548.78 91.161 1550.64 91.751 1551.3 93.001C1551.67 93.711 1551.79 94.801 1551.42 95.571C1551.17 96.091 1550.73 96.541 1550.18 96.821C1549.16 97.361 1548.32 96.921 1547.31 97.141C1543.84 97.881 1545.68 100.261 1546.83 100.881C1547.61 101.301 1548.55 101.411 1549.47 101.371C1558.66 101.001 1555.92 90.851 1553.92 86.111C1551.88 81.271 1548.55 76.841 1547.21 71.741C1546.51 69.081 1546.68 65.481 1548.92 63.321C1549.17 63.621 1549.41 63.911 1549.66 64.211C1549.8 64.551 1549.95 64.891 1550.11 65.231C1549.54 67.041 1549.66 69.221 1549.81 70.721C1550.2 74.551 1551.97 78.051 1553.64 81.451C1555.07 84.361 1556.41 87.291 1557.23 90.441C1557.93 93.151 1558.78 96.441 1557.77 99.291C1556.22 103.641 1550.72 106.211 1546.23 104.731C1541.91 103.311 1539.3 98.711 1541.55 94.561L1541.54 94.551Z" fill="url(#paint19_linear_244_752)"/>
<path d="M1580.31 59.351C1581.05 62.151 1580.6 65.421 1578.45 67.751C1576.3 70.081 1572.25 71.051 1569.74 69.381C1567.23 67.711 1567.55 63.371 1570.56 62.101C1572.22 61.401 1574.26 61.651 1575.71 60.611C1576.94 59.721 1577.31 58.101 1576.87 56.821C1576.44 55.541 1575.36 54.551 1574.16 53.791C1565.07 48.081 1552.63 55.021 1550.72 64.651C1548.98 73.411 1555.22 80.391 1561.59 86.451C1564.95 89.651 1572.63 91.181 1575.2 85.611C1575.45 85.071 1575.81 84.381 1576.42 84.421C1576.65 84.441 1576.84 84.561 1577.01 84.701C1578.31 85.731 1578.93 87.371 1578.89 89.001C1578.83 91.091 1577.82 93.361 1576.18 94.961C1575.46 95.661 1572.9 96.491 1572.55 97.221C1572.16 98.021 1574.04 100.851 1574.41 101.621C1577.93 108.891 1582.81 116.651 1580.32 125.231C1579.78 127.081 1578.06 126.171 1577.32 125.131C1575.81 122.991 1573.46 121.351 1572.15 119.101C1571.28 119.441 1570.51 120.251 1569.54 120.621C1568.44 121.041 1567.24 121.211 1566.09 121.151C1561.72 120.911 1559.19 117.891 1558.61 114.621C1558.51 114.051 1559.23 113.651 1559.8 113.991C1563.23 116.061 1565.44 111.481 1565.6 109.481C1565.77 107.181 1565.47 104.891 1565.1 102.641C1564.37 98.191 1562.13 94.441 1559.34 90.971C1553.59 85.391 1548.59 78.921 1546.69 71.331C1545.29 65.721 1546.32 59.111 1550.9 54.681C1552.66 52.981 1554.85 51.681 1557.21 50.801C1558.36 50.371 1559.55 50.041 1560.75 49.811C1569.07 48.201 1578.37 52.101 1580.29 59.361L1580.31 59.351Z" fill="url(#paint20_linear_244_752)"/>
<path d="M1478.68 39.4611C1479.27 39.1411 1479.81 38.7111 1480.28 38.1911C1481.37 36.9911 1482.03 35.3411 1482.05 33.7111C1482.07 32.2211 1481.48 30.3611 1480.23 29.7011C1479.52 29.3311 1478.43 29.2111 1477.66 29.5811C1477.14 29.8311 1476.69 30.2711 1476.41 30.8211C1475.87 31.8411 1476.31 32.6811 1476.09 33.6911C1475.35 37.1611 1472.97 35.3211 1472.35 34.1711C1471.93 33.3911 1471.82 32.4511 1471.86 31.5311C1472.23 22.3411 1482.38 25.0811 1487.12 27.0811C1491.96 29.1211 1496.39 32.4511 1501.49 33.7911C1504.15 34.4911 1507.75 34.3211 1509.91 32.0811C1509.61 31.8311 1509.32 31.5911 1509.02 31.3411C1508.68 31.2011 1508.34 31.0511 1508 30.8911C1506.19 31.4611 1504.01 31.3511 1502.51 31.1911C1498.68 30.8011 1495.18 29.0311 1491.78 27.3611C1488.87 25.9311 1485.94 24.5911 1482.79 23.7711C1480.08 23.0711 1476.79 22.2211 1473.94 23.2311C1469.59 24.7811 1467.02 30.2811 1468.5 34.7711C1469.92 39.0911 1474.52 41.701 1478.67 39.451L1478.68 39.4611Z" fill="url(#paint21_linear_244_752)"/>
<path d="M1513.88 0.69102C1511.09 -0.0489798 1507.81 0.401006 1505.48 2.55101C1503.15 4.70101 1502.18 8.75103 1503.85 11.261C1505.52 13.771 1509.86 13.451 1511.13 10.441C1511.83 8.78102 1511.58 6.74103 1512.62 5.29103C1513.51 4.06103 1515.13 3.69102 1516.41 4.13102C1517.69 4.56102 1518.68 5.64101 1519.44 6.84101C1525.15 15.931 1518.21 28.371 1508.58 30.281C1499.82 32.021 1492.84 25.781 1486.78 19.411C1483.58 16.051 1482.05 8.37101 1487.62 5.80101C1488.16 5.55101 1488.85 5.191 1488.81 4.581C1488.79 4.351 1488.67 4.16101 1488.53 3.99101C1487.5 2.69101 1485.86 2.071 1484.23 2.111C1482.14 2.171 1479.87 3.18103 1478.27 4.82102C1477.57 5.54103 1476.74 8.101 1476.01 8.451C1475.21 8.841 1472.38 6.96101 1471.61 6.59101C1464.34 3.07101 1456.58 -1.80899 1448 0.68101C1446.15 1.22101 1447.06 2.94101 1448.1 3.68101C1450.24 5.19101 1451.88 7.54102 1454.13 8.85102C1453.79 9.72102 1452.98 10.491 1452.61 11.461C1452.19 12.561 1452.02 13.761 1452.08 14.911C1452.32 19.281 1455.34 21.811 1458.61 22.391C1459.18 22.491 1459.58 21.771 1459.24 21.201C1457.17 17.771 1461.75 15.561 1463.75 15.401C1466.05 15.231 1468.34 15.531 1470.59 15.901C1475.04 16.631 1478.79 18.871 1482.26 21.661C1487.84 27.411 1494.31 32.411 1501.9 34.311C1507.51 35.711 1514.12 34.681 1518.55 30.101C1520.26 28.341 1521.55 26.151 1522.43 23.791C1522.86 22.641 1523.19 21.451 1523.42 20.251C1525.03 11.931 1521.13 2.63101 1513.87 0.711009L1513.88 0.69102Z" fill="url(#paint22_linear_244_752)"/>
<path d="M1493.61 36.051C1494.47 37.791 1495.91 39.251 1496.63 41.041C1497.23 40.881 1497.79 40.381 1498.45 40.211C1499.21 40.021 1500.01 40.031 1500.76 40.201C1503.63 40.861 1505.1 43.361 1505.27 45.821C1505.3 46.251 1504.8 46.461 1504.45 46.151C1502.32 44.251 1500.56 47.381 1500.33 48.821C1500.06 50.491 1500.11 52.211 1500.21 53.901C1500.4 57.251 1501.63 60.251 1503.25 63.101C1503.83 63.911 1504.4 64.731 1504.95 65.571C1504.82 64.961 1504.71 64.351 1504.62 63.731C1504.33 61.661 1503.99 59.151 1504.84 57.171C1506.15 54.141 1509.94 52.861 1512.81 54.441C1515.57 55.961 1516.99 59.621 1515.24 62.431C1514.99 62.831 1514.67 63.181 1514.3 63.471C1513.44 64.141 1512.3 64.441 1511.22 64.281C1510.23 64.131 1509.05 63.491 1508.69 62.501C1508.49 61.941 1508.48 61.131 1508.78 60.601C1508.98 60.251 1509.3 59.971 1509.68 59.821C1510.39 59.541 1510.91 59.951 1511.59 59.901C1513.93 59.731 1512.87 57.791 1512.15 57.211C1511.66 56.821 1511.05 56.631 1510.44 56.561C1504.35 55.821 1505.5 63.581 1506.51 67.281C1506.7 67.991 1506.93 68.701 1507.17 69.401C1507.28 69.621 1507.39 69.841 1507.5 70.061C1508.45 70.381 1509.38 70.741 1510.3 71.141C1511.02 71.331 1511.74 71.511 1512.46 71.661C1516.22 72.421 1524.04 73.041 1522.89 67.021C1522.78 66.421 1522.55 65.821 1522.13 65.361C1521.5 64.681 1519.49 63.761 1519.48 66.101C1519.48 66.781 1519.92 67.281 1519.69 68.001C1519.57 68.391 1519.31 68.721 1518.97 68.951C1518.46 69.281 1517.65 69.331 1517.08 69.171C1516.07 68.881 1515.35 67.741 1515.13 66.771C1514.89 65.701 1515.13 64.551 1515.73 63.651C1515.99 63.261 1516.32 62.921 1516.7 62.641C1519.38 60.701 1523.14 61.871 1524.83 64.531C1526.59 67.291 1525.57 71.161 1522.64 72.671C1520.72 73.651 1518.19 73.481 1516.11 73.331C1515.49 73.291 1514.87 73.221 1514.25 73.131C1515.12 73.621 1515.98 74.131 1516.83 74.661C1519.79 76.081 1522.86 77.111 1526.22 77.081C1527.91 77.061 1529.63 77.001 1531.28 76.621C1532.71 76.291 1535.71 74.331 1533.67 72.331C1533.33 72.001 1533.52 71.481 1533.95 71.491C1536.42 71.491 1539.01 72.801 1539.86 75.611C1540.08 76.351 1540.14 77.151 1540.01 77.921C1539.89 78.591 1539.42 79.181 1539.31 79.791C1541.15 80.381 1542.7 81.721 1544.49 82.471C1545.36 82.831 1546.29 83.851 1545.02 84.411C1539.15 87.011 1532.74 84.721 1526.91 83.261C1526.3 83.111 1523.95 82.211 1523.42 82.551C1522.95 82.861 1522.74 84.621 1522.33 85.171C1521.42 86.411 1519.92 87.341 1518.41 87.611C1517.23 87.831 1515.94 87.611 1514.99 86.881C1514.87 86.781 1514.74 86.671 1514.7 86.521C1514.58 86.121 1515.03 85.811 1515.38 85.591C1519.04 83.281 1516.75 78.451 1513.9 76.631C1512.34 75.631 1510.73 74.651 1509.08 73.811C1509.66 75.481 1510.09 77.191 1510.32 78.951C1510.88 83.221 1509.77 87.961 1506.46 90.721C1505.19 91.781 1503.66 92.491 1502.04 92.881C1501.25 93.071 1500.45 93.181 1499.64 93.221C1494.05 93.491 1488.16 89.601 1487.37 84.061C1487.29 83.491 1487.27 82.911 1487.31 82.341C1487.18 81.661 1487.1 80.981 1487.09 80.291C1487.07 79.481 1487.13 78.671 1487.27 77.871C1487.55 76.231 1488.15 74.661 1489.12 73.321C1491.65 69.831 1496.3 68.411 1500.6 68.671C1501.57 68.731 1502.53 68.861 1503.49 69.031C1502.85 68.071 1502.18 67.131 1501.5 66.211C1499.49 63.491 1494.52 61.521 1492.46 65.331C1492.26 65.701 1491.98 66.171 1491.58 66.071C1491.43 66.031 1491.31 65.921 1491.21 65.801C1490.42 64.901 1490.11 63.631 1490.25 62.441C1490.42 60.911 1491.24 59.351 1492.43 58.361C1492.95 57.921 1494.7 57.591 1494.97 57.101C1495.28 56.551 1494.22 54.271 1494.03 53.671C1492.18 47.951 1489.47 41.711 1491.67 35.681C1492.14 34.381 1493.22 35.241 1493.64 36.081L1493.61 36.051ZM1496.95 90.281C1498.25 90.401 1499.58 90.431 1500.87 90.221C1502.34 89.971 1503.77 89.321 1504.78 88.211C1506 86.861 1506.75 85.131 1507.23 83.401C1508.31 79.491 1507.27 75.751 1505.41 72.231C1504.29 71.861 1503.15 71.581 1501.98 71.441C1499.38 71.131 1496.59 71.561 1494.41 73.081C1490.31 75.941 1487.68 82.571 1490.75 87.021C1491.39 87.951 1492.16 88.821 1493.14 89.371C1493.62 89.641 1494.13 89.8209 1494.66 89.951C1495.4 90.131 1496.18 90.221 1496.95 90.291V90.281Z" fill="url(#paint23_linear_244_752)"/>
<path d="M134.5 15H1444.5" stroke="#BA9979" stroke-width="2" stroke-linecap="round"/>
</g>
<defs>
<linearGradient id="paint0_linear_244_752" x1="-236.449" y1="185.701" x2="817.171" y2="-411.069" gradientUnits="userSpaceOnUse">
<stop stop-color="#EEDEBC"/>
<stop offset="0.06" stop-color="#DDC5A3"/>
<stop offset="0.14" stop-color="#C9A885"/>
<stop offset="0.26" stop-color="#9A7A5F"/>
<stop offset="0.36" stop-color="#C9A885"/>
<stop offset="0.49" stop-color="#EEDEBC"/>
<stop offset="0.54" stop-color="#DDC5A3"/>
<stop offset="0.61" stop-color="#C9A885"/>
<stop offset="0.72" stop-color="#9A7A5F"/>
<stop offset="0.84" stop-color="#C9A885"/>
<stop offset="1" stop-color="#EEDEBC"/>
</linearGradient>
<linearGradient id="paint1_linear_244_752" x1="-240.599" y1="178.371" x2="813.021" y2="-418.399" gradientUnits="userSpaceOnUse">
<stop stop-color="#EEDEBC"/>
<stop offset="0.06" stop-color="#DDC5A3"/>
<stop offset="0.14" stop-color="#C9A885"/>
<stop offset="0.26" stop-color="#9A7A5F"/>
<stop offset="0.36" stop-color="#C9A885"/>
<stop offset="0.49" stop-color="#EEDEBC"/>
<stop offset="0.54" stop-color="#DDC5A3"/>
<stop offset="0.61" stop-color="#C9A885"/>
<stop offset="0.72" stop-color="#9A7A5F"/>
<stop offset="0.84" stop-color="#C9A885"/>
<stop offset="1" stop-color="#EEDEBC"/>
</linearGradient>
<linearGradient id="paint2_linear_244_752" x1="-233.709" y1="190.531" x2="819.902" y2="-406.239" gradientUnits="userSpaceOnUse">
<stop stop-color="#EEDEBC"/>
<stop offset="0.06" stop-color="#DDC5A3"/>
<stop offset="0.14" stop-color="#C9A885"/>
<stop offset="0.26" stop-color="#9A7A5F"/>
<stop offset="0.36" stop-color="#C9A885"/>
<stop offset="0.49" stop-color="#EEDEBC"/>
<stop offset="0.54" stop-color="#DDC5A3"/>
<stop offset="0.61" stop-color="#C9A885"/>
<stop offset="0.72" stop-color="#9A7A5F"/>
<stop offset="0.84" stop-color="#C9A885"/>
<stop offset="1" stop-color="#EEDEBC"/>
</linearGradient>
<linearGradient id="paint3_linear_244_752" x1="-224.209" y1="207.301" x2="829.401" y2="-389.459" gradientUnits="userSpaceOnUse">
<stop stop-color="#EEDEBC"/>
<stop offset="0.06" stop-color="#DDC5A3"/>
<stop offset="0.14" stop-color="#C9A885"/>
<stop offset="0.26" stop-color="#9A7A5F"/>
<stop offset="0.36" stop-color="#C9A885"/>
<stop offset="0.49" stop-color="#EEDEBC"/>
<stop offset="0.54" stop-color="#DDC5A3"/>
<stop offset="0.61" stop-color="#C9A885"/>
<stop offset="0.72" stop-color="#9A7A5F"/>
<stop offset="0.84" stop-color="#C9A885"/>
<stop offset="1" stop-color="#EEDEBC"/>
</linearGradient>
<linearGradient id="paint4_linear_244_752" x1="-229.229" y1="198.441" x2="824.382" y2="-398.328" gradientUnits="userSpaceOnUse">
<stop stop-color="#EEDEBC"/>
<stop offset="0.06" stop-color="#DDC5A3"/>
<stop offset="0.14" stop-color="#C9A885"/>
<stop offset="0.26" stop-color="#9A7A5F"/>
<stop offset="0.36" stop-color="#C9A885"/>
<stop offset="0.49" stop-color="#EEDEBC"/>
<stop offset="0.54" stop-color="#DDC5A3"/>
<stop offset="0.61" stop-color="#C9A885"/>
<stop offset="0.72" stop-color="#9A7A5F"/>
<stop offset="0.84" stop-color="#C9A885"/>
<stop offset="1" stop-color="#EEDEBC"/>
</linearGradient>
<linearGradient id="paint5_linear_244_752" x1="-246.949" y1="167.171" x2="806.672" y2="-429.599" gradientUnits="userSpaceOnUse">
<stop stop-color="#EEDEBC"/>
<stop offset="0.06" stop-color="#DDC5A3"/>
<stop offset="0.14" stop-color="#C9A885"/>
<stop offset="0.26" stop-color="#9A7A5F"/>
<stop offset="0.36" stop-color="#C9A885"/>
<stop offset="0.49" stop-color="#EEDEBC"/>
<stop offset="0.54" stop-color="#DDC5A3"/>
<stop offset="0.61" stop-color="#C9A885"/>
<stop offset="0.72" stop-color="#9A7A5F"/>
<stop offset="0.84" stop-color="#C9A885"/>
<stop offset="1" stop-color="#EEDEBC"/>
</linearGradient>
<linearGradient id="paint6_linear_244_752" x1="-253.089" y1="156.321" x2="800.53" y2="-440.45" gradientUnits="userSpaceOnUse">
<stop stop-color="#EEDEBC"/>
<stop offset="0.06" stop-color="#DDC5A3"/>
<stop offset="0.14" stop-color="#C9A885"/>
<stop offset="0.26" stop-color="#9A7A5F"/>
<stop offset="0.36" stop-color="#C9A885"/>
<stop offset="0.49" stop-color="#EEDEBC"/>
<stop offset="0.54" stop-color="#DDC5A3"/>
<stop offset="0.61" stop-color="#C9A885"/>
<stop offset="0.72" stop-color="#9A7A5F"/>
<stop offset="0.84" stop-color="#C9A885"/>
<stop offset="1" stop-color="#EEDEBC"/>
</linearGradient>
<linearGradient id="paint7_linear_244_752" x1="-214.459" y1="224.521" x2="839.161" y2="-372.239" gradientUnits="userSpaceOnUse">
<stop stop-color="#EEDEBC"/>
<stop offset="0.06" stop-color="#DDC5A3"/>
<stop offset="0.14" stop-color="#C9A885"/>
<stop offset="0.26" stop-color="#9A7A5F"/>
<stop offset="0.36" stop-color="#C9A885"/>
<stop offset="0.49" stop-color="#EEDEBC"/>
<stop offset="0.54" stop-color="#DDC5A3"/>
<stop offset="0.61" stop-color="#C9A885"/>
<stop offset="0.72" stop-color="#9A7A5F"/>
<stop offset="0.84" stop-color="#C9A885"/>
<stop offset="1" stop-color="#EEDEBC"/>
</linearGradient>
<linearGradient id="paint8_linear_244_752" x1="-218.689" y1="217.061" x2="834.931" y2="-379.709" gradientUnits="userSpaceOnUse">
<stop stop-color="#EEDEBC"/>
<stop offset="0.06" stop-color="#DDC5A3"/>
<stop offset="0.14" stop-color="#C9A885"/>
<stop offset="0.26" stop-color="#9A7A5F"/>
<stop offset="0.36" stop-color="#C9A885"/>
<stop offset="0.49" stop-color="#EEDEBC"/>
<stop offset="0.54" stop-color="#DDC5A3"/>
<stop offset="0.61" stop-color="#C9A885"/>
<stop offset="0.72" stop-color="#9A7A5F"/>
<stop offset="0.84" stop-color="#C9A885"/>
<stop offset="1" stop-color="#EEDEBC"/>
</linearGradient>
<linearGradient id="paint9_linear_244_752" x1="-221.529" y1="212.031" x2="832.08" y2="-384.729" gradientUnits="userSpaceOnUse">
<stop stop-color="#EEDEBC"/>
<stop offset="0.06" stop-color="#DDC5A3"/>
<stop offset="0.14" stop-color="#C9A885"/>
<stop offset="0.26" stop-color="#9A7A5F"/>
<stop offset="0.36" stop-color="#C9A885"/>
<stop offset="0.49" stop-color="#EEDEBC"/>
<stop offset="0.54" stop-color="#DDC5A3"/>
<stop offset="0.61" stop-color="#C9A885"/>
<stop offset="0.72" stop-color="#9A7A5F"/>
<stop offset="0.84" stop-color="#C9A885"/>
<stop offset="1" stop-color="#EEDEBC"/>
</linearGradient>
<linearGradient id="paint10_linear_244_752" x1="-230.659" y1="195.921" x2="822.951" y2="-400.849" gradientUnits="userSpaceOnUse">
<stop stop-color="#EEDEBC"/>
<stop offset="0.06" stop-color="#DDC5A3"/>
<stop offset="0.14" stop-color="#C9A885"/>
<stop offset="0.26" stop-color="#9A7A5F"/>
<stop offset="0.36" stop-color="#C9A885"/>
<stop offset="0.49" stop-color="#EEDEBC"/>
<stop offset="0.54" stop-color="#DDC5A3"/>
<stop offset="0.61" stop-color="#C9A885"/>
<stop offset="0.72" stop-color="#9A7A5F"/>
<stop offset="0.84" stop-color="#C9A885"/>
<stop offset="1" stop-color="#EEDEBC"/>
</linearGradient>
<linearGradient id="paint11_linear_244_752" x1="-210.079" y1="232.261" x2="843.541" y2="-364.509" gradientUnits="userSpaceOnUse">
<stop stop-color="#EEDEBC"/>
<stop offset="0.06" stop-color="#DDC5A3"/>
<stop offset="0.14" stop-color="#C9A885"/>
<stop offset="0.26" stop-color="#9A7A5F"/>
<stop offset="0.36" stop-color="#C9A885"/>
<stop offset="0.49" stop-color="#EEDEBC"/>
<stop offset="0.54" stop-color="#DDC5A3"/>
<stop offset="0.61" stop-color="#C9A885"/>
<stop offset="0.72" stop-color="#9A7A5F"/>
<stop offset="0.84" stop-color="#C9A885"/>
<stop offset="1" stop-color="#EEDEBC"/>
</linearGradient>
<linearGradient id="paint12_linear_244_752" x1="1817.45" y1="185.701" x2="763.829" y2="-411.069" gradientUnits="userSpaceOnUse">
<stop stop-color="#EEDEBC"/>
<stop offset="0.06" stop-color="#DDC5A3"/>
<stop offset="0.14" stop-color="#C9A885"/>
<stop offset="0.26" stop-color="#9A7A5F"/>
<stop offset="0.36" stop-color="#C9A885"/>
<stop offset="0.49" stop-color="#EEDEBC"/>
<stop offset="0.54" stop-color="#DDC5A3"/>
<stop offset="0.61" stop-color="#C9A885"/>
<stop offset="0.72" stop-color="#9A7A5F"/>
<stop offset="0.84" stop-color="#C9A885"/>
<stop offset="1" stop-color="#EEDEBC"/>
</linearGradient>
<linearGradient id="paint13_linear_244_752" x1="1821.6" y1="178.371" x2="767.979" y2="-418.399" gradientUnits="userSpaceOnUse">
<stop stop-color="#EEDEBC"/>
<stop offset="0.06" stop-color="#DDC5A3"/>
<stop offset="0.14" stop-color="#C9A885"/>
<stop offset="0.26" stop-color="#9A7A5F"/>
<stop offset="0.36" stop-color="#C9A885"/>
<stop offset="0.49" stop-color="#EEDEBC"/>
<stop offset="0.54" stop-color="#DDC5A3"/>
<stop offset="0.61" stop-color="#C9A885"/>
<stop offset="0.72" stop-color="#9A7A5F"/>
<stop offset="0.84" stop-color="#C9A885"/>
<stop offset="1" stop-color="#EEDEBC"/>
</linearGradient>
<linearGradient id="paint14_linear_244_752" x1="1814.71" y1="190.531" x2="761.099" y2="-406.239" gradientUnits="userSpaceOnUse">
<stop stop-color="#EEDEBC"/>
<stop offset="0.06" stop-color="#DDC5A3"/>
<stop offset="0.14" stop-color="#C9A885"/>
<stop offset="0.26" stop-color="#9A7A5F"/>
<stop offset="0.36" stop-color="#C9A885"/>
<stop offset="0.49" stop-color="#EEDEBC"/>
<stop offset="0.54" stop-color="#DDC5A3"/>
<stop offset="0.61" stop-color="#C9A885"/>
<stop offset="0.72" stop-color="#9A7A5F"/>
<stop offset="0.84" stop-color="#C9A885"/>
<stop offset="1" stop-color="#EEDEBC"/>
</linearGradient>
<linearGradient id="paint15_linear_244_752" x1="1805.21" y1="207.301" x2="751.599" y2="-389.459" gradientUnits="userSpaceOnUse">
<stop stop-color="#EEDEBC"/>
<stop offset="0.06" stop-color="#DDC5A3"/>
<stop offset="0.14" stop-color="#C9A885"/>
<stop offset="0.26" stop-color="#9A7A5F"/>
<stop offset="0.36" stop-color="#C9A885"/>
<stop offset="0.49" stop-color="#EEDEBC"/>
<stop offset="0.54" stop-color="#DDC5A3"/>
<stop offset="0.61" stop-color="#C9A885"/>
<stop offset="0.72" stop-color="#9A7A5F"/>
<stop offset="0.84" stop-color="#C9A885"/>
<stop offset="1" stop-color="#EEDEBC"/>
</linearGradient>
<linearGradient id="paint16_linear_244_752" x1="1810.23" y1="198.441" x2="756.618" y2="-398.328" gradientUnits="userSpaceOnUse">
<stop stop-color="#EEDEBC"/>
<stop offset="0.06" stop-color="#DDC5A3"/>
<stop offset="0.14" stop-color="#C9A885"/>
<stop offset="0.26" stop-color="#9A7A5F"/>
<stop offset="0.36" stop-color="#C9A885"/>
<stop offset="0.49" stop-color="#EEDEBC"/>
<stop offset="0.54" stop-color="#DDC5A3"/>
<stop offset="0.61" stop-color="#C9A885"/>
<stop offset="0.72" stop-color="#9A7A5F"/>
<stop offset="0.84" stop-color="#C9A885"/>
<stop offset="1" stop-color="#EEDEBC"/>
</linearGradient>
<linearGradient id="paint17_linear_244_752" x1="1827.95" y1="167.171" x2="774.329" y2="-429.599" gradientUnits="userSpaceOnUse">
<stop stop-color="#EEDEBC"/>
<stop offset="0.06" stop-color="#DDC5A3"/>
<stop offset="0.14" stop-color="#C9A885"/>
<stop offset="0.26" stop-color="#9A7A5F"/>
<stop offset="0.36" stop-color="#C9A885"/>
<stop offset="0.49" stop-color="#EEDEBC"/>
<stop offset="0.54" stop-color="#DDC5A3"/>
<stop offset="0.61" stop-color="#C9A885"/>
<stop offset="0.72" stop-color="#9A7A5F"/>
<stop offset="0.84" stop-color="#C9A885"/>
<stop offset="1" stop-color="#EEDEBC"/>
</linearGradient>
<linearGradient id="paint18_linear_244_752" x1="1834.09" y1="156.321" x2="780.47" y2="-440.45" gradientUnits="userSpaceOnUse">
<stop stop-color="#EEDEBC"/>
<stop offset="0.06" stop-color="#DDC5A3"/>
<stop offset="0.14" stop-color="#C9A885"/>
<stop offset="0.26" stop-color="#9A7A5F"/>
<stop offset="0.36" stop-color="#C9A885"/>
<stop offset="0.49" stop-color="#EEDEBC"/>
<stop offset="0.54" stop-color="#DDC5A3"/>
<stop offset="0.61" stop-color="#C9A885"/>
<stop offset="0.72" stop-color="#9A7A5F"/>
<stop offset="0.84" stop-color="#C9A885"/>
<stop offset="1" stop-color="#EEDEBC"/>
</linearGradient>
<linearGradient id="paint19_linear_244_752" x1="1795.46" y1="224.521" x2="741.839" y2="-372.239" gradientUnits="userSpaceOnUse">
<stop stop-color="#EEDEBC"/>
<stop offset="0.06" stop-color="#DDC5A3"/>
<stop offset="0.14" stop-color="#C9A885"/>
<stop offset="0.26" stop-color="#9A7A5F"/>
<stop offset="0.36" stop-color="#C9A885"/>
<stop offset="0.49" stop-color="#EEDEBC"/>
<stop offset="0.54" stop-color="#DDC5A3"/>
<stop offset="0.61" stop-color="#C9A885"/>
<stop offset="0.72" stop-color="#9A7A5F"/>
<stop offset="0.84" stop-color="#C9A885"/>
<stop offset="1" stop-color="#EEDEBC"/>
</linearGradient>
<linearGradient id="paint20_linear_244_752" x1="1799.69" y1="217.061" x2="746.069" y2="-379.709" gradientUnits="userSpaceOnUse">
<stop stop-color="#EEDEBC"/>
<stop offset="0.06" stop-color="#DDC5A3"/>
<stop offset="0.14" stop-color="#C9A885"/>
<stop offset="0.26" stop-color="#9A7A5F"/>
<stop offset="0.36" stop-color="#C9A885"/>
<stop offset="0.49" stop-color="#EEDEBC"/>
<stop offset="0.54" stop-color="#DDC5A3"/>
<stop offset="0.61" stop-color="#C9A885"/>
<stop offset="0.72" stop-color="#9A7A5F"/>
<stop offset="0.84" stop-color="#C9A885"/>
<stop offset="1" stop-color="#EEDEBC"/>
</linearGradient>
<linearGradient id="paint21_linear_244_752" x1="1802.53" y1="212.031" x2="748.92" y2="-384.729" gradientUnits="userSpaceOnUse">
<stop stop-color="#EEDEBC"/>
<stop offset="0.06" stop-color="#DDC5A3"/>
<stop offset="0.14" stop-color="#C9A885"/>
<stop offset="0.26" stop-color="#9A7A5F"/>
<stop offset="0.36" stop-color="#C9A885"/>
<stop offset="0.49" stop-color="#EEDEBC"/>
<stop offset="0.54" stop-color="#DDC5A3"/>
<stop offset="0.61" stop-color="#C9A885"/>
<stop offset="0.72" stop-color="#9A7A5F"/>
<stop offset="0.84" stop-color="#C9A885"/>
<stop offset="1" stop-color="#EEDEBC"/>
</linearGradient>
<linearGradient id="paint22_linear_244_752" x1="1811.66" y1="195.921" x2="758.049" y2="-400.849" gradientUnits="userSpaceOnUse">
<stop stop-color="#EEDEBC"/>
<stop offset="0.06" stop-color="#DDC5A3"/>
<stop offset="0.14" stop-color="#C9A885"/>
<stop offset="0.26" stop-color="#9A7A5F"/>
<stop offset="0.36" stop-color="#C9A885"/>
<stop offset="0.49" stop-color="#EEDEBC"/>
<stop offset="0.54" stop-color="#DDC5A3"/>
<stop offset="0.61" stop-color="#C9A885"/>
<stop offset="0.72" stop-color="#9A7A5F"/>
<stop offset="0.84" stop-color="#C9A885"/>
<stop offset="1" stop-color="#EEDEBC"/>
</linearGradient>
<linearGradient id="paint23_linear_244_752" x1="1791.08" y1="232.261" x2="737.459" y2="-364.509" gradientUnits="userSpaceOnUse">
<stop stop-color="#EEDEBC"/>
<stop offset="0.06" stop-color="#DDC5A3"/>
<stop offset="0.14" stop-color="#C9A885"/>
<stop offset="0.26" stop-color="#9A7A5F"/>
<stop offset="0.36" stop-color="#C9A885"/>
<stop offset="0.49" stop-color="#EEDEBC"/>
<stop offset="0.54" stop-color="#DDC5A3"/>
<stop offset="0.61" stop-color="#C9A885"/>
<stop offset="0.72" stop-color="#9A7A5F"/>
<stop offset="0.84" stop-color="#C9A885"/>
<stop offset="1" stop-color="#EEDEBC"/>
</linearGradient>
<clipPath id="clip0_244_752">
<rect width="1581" height="126.296" fill="white"/>
</clipPath>
</defs>
</svg>
