<svg width="345" height="513" viewBox="0 0 345 513" fill="none" xmlns="http://www.w3.org/2000/svg">
<g clip-path="url(#clip0_220_345)">
<g style="mix-blend-mode:color-burn">
<path d="M0.759809 30.1216C1.37773 27.3105 4.51292 26.7331 6.57435 26.6673C8.73201 26.5964 10.7833 25.9177 12.4092 24.6362C18.2338 20.0373 13.4525 13.0527 13.4525 13.0527C13.4525 13.0527 14.9821 22.2 8.90928 23.7195C8.90928 23.7195 4.82188 24.9503 0.997861 21.496C0.997861 21.496 1.61578 24.1348 4.26474 24.9097C2.7402 25.32 0.536952 26.3482 0.759809 30.1266V30.1216Z" fill="url(#paint0_linear_220_345)"/>
<path d="M34.8268 1.27674C31.9549 1.42363 30.866 4.41701 30.4608 6.44298C30.0353 8.56012 29.0274 10.4696 27.4927 11.8624C21.9973 16.8514 15.894 10.9862 15.894 10.9862C15.894 10.9862 24.6665 13.9999 27.1635 8.26129C27.1635 8.26129 29.0477 4.4322 26.2721 0.0915527C26.2721 0.0915527 28.7742 1.13493 29.1034 3.87506C29.7568 2.43662 31.1344 0.435966 34.8268 1.27674Z" fill="url(#paint1_linear_220_345)"/>
<path d="M15.7998 24.1143C18.1297 22.8075 17.8511 18.7809 17.2737 15.8331C17.2028 15.4786 17.1268 15.1392 17.0559 14.8252C17.3497 14.9518 17.6688 15.0835 17.998 15.2C20.809 16.2535 24.7445 17.2007 26.4159 15.119C26.9173 18.8771 23.4124 19.6673 18.7425 16.8157C20.7786 21.9009 19.4212 25.2235 15.7998 24.1092V24.1143Z" fill="url(#paint2_linear_220_345)"/>
<path d="M30.3162 19.9004C27.9864 21.2071 28.2649 25.2338 28.8423 28.1815C28.9132 28.5361 28.9892 28.8754 29.0601 29.1895C28.7664 29.0628 28.4473 28.9312 28.118 28.8147C25.307 27.7612 21.3716 26.814 19.7001 28.8957C19.1987 25.1375 22.7036 24.3474 27.3735 27.1989C25.3374 22.1138 26.6948 18.7912 30.3162 19.9054V19.9004Z" fill="url(#paint3_linear_220_345)"/>
<path d="M22.9612 19.9257C24.2173 20.9437 24.5971 23.4306 24.5971 23.4306C24.5971 23.4306 22.2065 22.6455 21.4113 21.2426C20.8187 20.1941 22.0292 19.171 22.9662 19.9257H22.9612Z" fill="url(#paint4_linear_220_345)"/>
<path d="M14.9097 1.77832C12.5799 3.08507 12.8584 7.11168 13.4358 10.0595C13.5067 10.414 13.5827 10.7534 13.6536 11.0674C13.3599 10.9408 13.0408 10.8091 12.7116 10.6926C9.90051 9.63908 5.96507 8.69194 4.29364 10.7736C3.79221 7.01545 7.29714 6.22532 11.967 9.07687C9.9309 3.99168 11.2883 0.669089 14.9097 1.78337V1.77832Z" fill="url(#paint5_linear_220_345)"/>
<path d="M6.79637 4.53373C5.54027 3.51568 5.1604 1.02881 5.1604 1.02881C5.1604 1.02881 7.55105 1.81388 8.34624 3.21686C8.93884 4.2653 7.72832 5.28841 6.79131 4.53373H6.79637Z" fill="url(#paint6_linear_220_345)"/>
<path d="M19.9866 47.8891C19.8246 47.5902 19.6068 47.3167 19.3434 47.0787C18.7356 46.5266 17.8999 46.1923 17.0743 46.1822C16.3196 46.172 15.3776 46.4709 15.0433 47.104C14.8559 47.4636 14.7951 48.0157 14.9825 48.4057C15.1091 48.6691 15.332 48.897 15.6105 49.0388C16.1272 49.3123 16.5526 49.0894 17.0642 49.2009C18.8217 49.5757 17.8898 50.7811 17.3073 51.0952C16.9122 51.3079 16.4361 51.3636 15.9702 51.3433C11.3155 51.1559 12.7033 46.015 13.7163 43.6143C14.7495 41.1628 16.4361 38.9191 17.1148 36.336C17.4694 34.9887 17.3833 33.1653 16.2487 32.0713C16.1221 32.2232 16.0005 32.3701 15.8739 32.5221C15.803 32.6943 15.727 32.8665 15.646 33.0387C15.9347 33.9554 15.8739 35.0596 15.7979 35.8193C15.6004 37.7592 14.7039 39.5319 13.8581 41.254C13.1338 42.7279 12.4551 44.2119 12.0398 45.8074C11.6852 47.18 11.2547 48.8463 11.7663 50.2898C12.5513 52.4931 15.337 53.7948 17.6112 53.0452C19.7992 52.326 21.1212 49.9961 19.9816 47.8941L19.9866 47.8891Z" fill="url(#paint7_linear_220_345)"/>
<path d="M0.349993 30.0606C-0.0248116 31.4788 0.203111 33.135 1.29207 34.3151C2.38103 35.4953 4.43233 35.9866 5.70362 35.1407C6.97492 34.2949 6.81284 32.0967 5.2883 31.4534C4.44752 31.0989 3.41428 31.2255 2.67986 30.6988C2.05687 30.248 1.86947 29.4275 2.09233 28.7792C2.31012 28.1309 2.85713 27.6294 3.46492 27.2445C8.06895 24.3524 14.3697 27.8675 15.3371 32.745C16.2184 37.1819 13.0579 40.7172 9.83154 43.7865C8.12973 45.4073 4.23986 46.1823 2.93817 43.3611C2.81155 43.0876 2.62921 42.7381 2.32025 42.7584C2.20376 42.7685 2.10752 42.8293 2.02142 42.9002C1.36298 43.4219 1.04895 44.2525 1.06921 45.0781C1.0996 46.1367 1.61116 47.2864 2.44181 48.0968C2.80649 48.4513 4.10311 48.8717 4.28038 49.2415C4.47791 49.6467 3.5257 51.08 3.3383 51.47C1.55545 55.1523 -0.916241 59.0826 0.344927 63.4284C0.618434 64.3654 1.4896 63.9045 1.86441 63.3777C2.62921 62.2938 3.81947 61.4632 4.48298 60.3236C4.92363 60.4958 5.31363 60.906 5.80492 61.0934C6.36207 61.3061 6.96986 61.3922 7.55232 61.3619C9.7657 61.2403 11.0471 59.7107 11.3409 58.0545C11.3915 57.7658 11.0269 57.5632 10.7382 57.7354C9.00089 58.7838 7.88155 56.4641 7.80051 55.4511C7.7144 54.2862 7.86635 53.1263 8.05375 51.9867C8.4235 49.7328 9.55804 47.8334 10.9712 46.0759C13.8835 43.2497 16.416 39.9726 17.3783 36.1284C18.0874 33.2869 17.5657 29.939 15.246 27.6953C14.3545 26.8342 13.2453 26.1758 12.05 25.7301C11.4675 25.5123 10.8648 25.3451 10.257 25.2286C6.04298 24.4132 1.33259 26.3885 0.360123 30.0656L0.349993 30.0606Z" fill="url(#paint8_linear_220_345)"/>
<path d="M51.8278 19.9866C51.529 19.8246 51.2554 19.6068 51.0174 19.3434C50.4653 18.7356 50.131 17.8999 50.1209 17.0743C50.1108 16.3196 50.4096 15.3775 51.0427 15.0433C51.4023 14.8559 51.9544 14.7951 52.3444 14.9825C52.6078 15.1091 52.8357 15.332 52.9775 15.6105C53.251 16.1272 53.0282 16.5526 53.1396 17.0642C53.5144 18.8217 54.7199 17.8897 55.0339 17.3073C55.2466 16.9122 55.3023 16.4361 55.2821 15.9701C55.0947 11.3155 49.9538 12.7033 47.553 13.7162C45.1016 14.7495 42.8578 16.4361 40.2747 17.1148C38.9274 17.4694 37.104 17.3833 36.01 16.2487C36.162 16.1221 36.3088 16.0005 36.4608 15.8739C36.633 15.803 36.8052 15.727 36.9774 15.646C37.8942 15.9347 38.9983 15.879 39.7581 15.7979C41.6979 15.6004 43.4706 14.7039 45.1927 13.8581C46.6666 13.1338 48.1506 12.4551 49.7461 12.0398C51.1187 11.6852 52.7851 11.2547 54.2286 11.7663C56.4318 12.5513 57.7335 15.337 56.9839 17.6112C56.2647 19.7992 53.9348 21.1212 51.8329 19.9816L51.8278 19.9866Z" fill="url(#paint9_linear_220_345)"/>
<path d="M33.9971 0.349997C35.4102 -0.0248079 37.0715 0.203107 38.2517 1.29207C39.4318 2.38103 39.9231 4.43233 39.0772 5.70363C38.2314 6.97493 36.0332 6.81285 35.39 5.2883C35.0354 4.44753 35.162 3.41428 34.6353 2.67987C34.1845 2.05688 33.364 1.86948 32.7157 2.09233C32.0674 2.31013 31.5659 2.85713 31.181 3.46493C28.2889 8.06895 31.804 14.3697 36.6815 15.3371C41.1184 16.2184 44.6537 13.0579 47.7231 9.83155C49.3438 8.12973 50.1188 4.23986 47.2976 2.93817C47.0241 2.81155 46.6746 2.62921 46.6949 2.32025C46.705 2.20375 46.7658 2.10752 46.8367 2.02142C47.3584 1.36298 48.189 1.04895 49.0146 1.06921C50.0732 1.0996 51.2229 1.61117 52.0333 2.44182C52.3879 2.80649 52.8083 4.1031 53.178 4.28037C53.5832 4.47791 55.0166 3.52571 55.4066 3.3383C59.0888 1.55545 63.0192 -0.916241 67.3649 0.344927C68.3019 0.618433 67.841 1.4896 67.3142 1.86441C66.2303 2.62921 65.3997 3.81948 64.2601 4.48298C64.4323 4.92363 64.8425 5.31362 65.0299 5.80492C65.2427 6.36206 65.3288 6.96986 65.2984 7.55233C65.1768 9.7657 63.6472 11.0471 61.991 11.3409C61.7023 11.3915 61.4997 11.0269 61.6719 10.7382C62.7203 9.00089 60.4006 7.88154 59.3876 7.80051C58.2227 7.7144 57.0628 7.86635 55.9232 8.05375C53.6693 8.42349 51.77 9.55804 50.0124 10.9712C47.1862 13.8835 43.9092 16.416 40.0649 17.3783C37.2235 18.0874 33.8756 17.5657 31.6318 15.246C30.7657 14.3545 30.1123 13.2453 29.6666 12.05C29.4488 11.4675 29.2817 10.8648 29.1652 10.257C28.3497 6.04298 30.325 1.33259 34.0022 0.360121L33.9971 0.349997Z" fill="url(#paint10_linear_220_345)"/>
<path d="M44.2637 18.2595C43.8281 19.1408 43.0988 19.8803 42.7341 20.7869C42.4302 20.7059 42.1466 20.4526 41.8123 20.3665C41.4274 20.2703 41.0222 20.2753 40.6423 20.3614C39.1887 20.6957 38.4441 21.962 38.358 23.208C38.3428 23.4257 38.5961 23.5321 38.7733 23.3751C39.8522 22.4127 40.7436 23.9981 40.8601 24.7274C40.9968 25.5733 40.9715 26.4444 40.9209 27.3004C40.8246 28.9972 40.2016 30.5166 39.3811 31.9602C39.0874 32.3704 38.7987 32.7857 38.5201 33.2112C38.5859 32.9022 38.6416 32.5933 38.6872 32.2792C38.8341 31.2308 39.0063 29.9595 38.5758 28.9566C37.9123 27.422 35.9927 26.7737 34.5391 27.5739C33.1411 28.3438 32.4219 30.1975 33.3083 31.6208C33.4349 31.8234 33.597 32.0007 33.7844 32.1476C34.22 32.4869 34.7974 32.6388 35.3444 32.5578C35.8458 32.4818 36.4435 32.1577 36.6258 31.6563C36.7271 31.3726 36.7322 30.9624 36.5802 30.6939C36.4789 30.5166 36.3168 30.3748 36.1244 30.2989C35.7648 30.157 35.5014 30.3647 35.157 30.3394C33.9718 30.2533 34.5087 29.2707 34.8733 28.9769C35.1215 28.7794 35.4305 28.6831 35.7394 28.6477C38.824 28.2729 38.2415 32.2033 37.73 34.0773C37.6337 34.4369 37.5172 34.7965 37.3957 35.1511C37.34 35.2625 37.2842 35.3739 37.2285 35.4853C36.7474 35.6474 36.2763 35.8297 35.8104 36.0323C35.4457 36.1286 35.081 36.2198 34.7163 36.2957C32.8119 36.6807 28.8511 36.9947 29.4336 33.9456C29.4893 33.6417 29.6058 33.3378 29.8185 33.1048C30.1376 32.7604 31.1557 32.2944 31.1607 33.4796C31.1607 33.824 30.9379 34.0773 31.0544 34.442C31.1152 34.6395 31.2469 34.8066 31.4191 34.9231C31.6774 35.0903 32.0876 35.1156 32.3763 35.0346C32.8879 34.8877 33.2526 34.3103 33.364 33.819C33.4855 33.277 33.364 32.6946 33.0601 32.2387C32.9284 32.0412 32.7613 31.869 32.5688 31.7272C31.2114 30.7446 29.307 31.3372 28.451 32.6844C27.5596 34.0824 28.0762 36.0425 29.5602 36.8073C30.5327 37.3036 31.8141 37.2175 32.8676 37.1416C33.1817 37.1213 33.4957 37.0859 33.8097 37.0403C33.3691 37.2885 32.9335 37.5468 32.503 37.8152C31.0037 38.5344 29.4488 39.0561 27.747 39.0409C26.891 39.0308 26.0198 39.0004 25.1841 38.8079C24.4598 38.6408 22.9404 37.6481 23.9736 36.6351C24.1458 36.4679 24.0496 36.2046 23.8318 36.2096C22.5808 36.2096 21.2689 36.8731 20.8384 38.2964C20.727 38.6712 20.6966 39.0764 20.7624 39.4664C20.8232 39.8057 21.0613 40.1046 21.117 40.4135C20.185 40.7124 19.4 41.3911 18.4934 41.7709C18.0527 41.9533 17.5817 42.4699 18.2249 42.7535C21.198 44.0704 24.4446 42.9105 27.3975 42.1711C27.7065 42.0951 28.8967 41.6392 29.1652 41.8114C29.4032 41.9684 29.5096 42.8599 29.7172 43.1384C30.1782 43.7665 30.9379 44.2375 31.7027 44.3743C32.3004 44.4857 32.9537 44.3743 33.4349 44.0046C33.4957 43.9539 33.5615 43.8982 33.5818 43.8222C33.6426 43.6196 33.4146 43.4626 33.2374 43.3512C31.3836 42.1812 32.5435 39.7348 33.987 38.813C34.7771 38.3065 35.5926 37.8101 36.4283 37.3847C36.1345 38.2305 35.9167 39.0966 35.8002 39.9881C35.5166 42.1508 36.0788 44.5516 37.7553 45.9495C38.3985 46.4864 39.1735 46.846 39.994 47.0435C40.3941 47.1397 40.7993 47.1955 41.2096 47.2157C44.0409 47.3525 47.0241 45.3822 47.4242 42.5762C47.4648 42.2875 47.4749 41.9938 47.4546 41.7051C47.5205 41.3607 47.561 41.0163 47.5661 40.6668C47.5762 40.2565 47.5458 39.8462 47.4749 39.441C47.3331 38.6104 47.0292 37.8152 46.5379 37.1365C45.2564 35.3689 42.9013 34.6496 40.7233 34.7813C40.232 34.8117 39.7458 34.8775 39.2596 34.9637C39.5837 34.4774 39.9231 34.0013 40.2675 33.5353C41.2855 32.1577 43.8028 31.1599 44.8462 33.0896C44.9475 33.277 45.0893 33.5151 45.2919 33.4644C45.3679 33.4442 45.4287 33.3885 45.4793 33.3277C45.8794 32.8718 46.0364 32.2286 45.9655 31.6259C45.8794 30.8509 45.4641 30.0608 44.8614 29.5594C44.598 29.3365 43.7116 29.1694 43.5749 28.9212C43.4179 28.6426 43.9548 27.4878 44.051 27.1839C44.988 24.2868 46.3606 21.1263 45.2463 18.0721C45.0083 17.4137 44.4613 17.8492 44.2485 18.2747L44.2637 18.2595ZM42.572 45.7266C41.9136 45.7874 41.24 45.8026 40.5866 45.6962C39.842 45.5696 39.1178 45.2404 38.6062 44.6782C37.9883 43.9944 37.6084 43.1182 37.3653 42.242C36.8183 40.2616 37.345 38.3673 38.2871 36.5844C38.8544 36.397 39.4318 36.2552 40.0244 36.1843C41.3413 36.0273 42.7544 36.2451 43.8585 37.0149C45.9352 38.4635 47.2672 41.8216 45.7123 44.0755C45.3881 44.5465 44.9981 44.9872 44.5018 45.2657C44.2587 45.4025 44.0003 45.4936 43.7319 45.5595C43.3571 45.6506 42.962 45.6962 42.572 45.7317V45.7266Z" fill="url(#paint11_linear_220_345)"/>
<path d="M7.5 65C7.22348 65 7 68.3892 7 72.5826V505.417C7 509.611 7.22348 513 7.5 513C7.77652 513 8 509.611 8 505.417V72.5826C8 68.3892 7.77652 65 7.5 65Z" fill="url(#paint12_linear_220_345)"/>
</g>
<path d="M344.006 30.1216C343.388 27.3105 340.253 26.7331 338.191 26.6673C336.034 26.5964 333.982 25.9177 332.356 24.6362C326.532 20.0373 331.313 13.0527 331.313 13.0527C331.313 13.0527 329.783 22.2 335.856 23.7195C335.856 23.7195 339.944 24.9503 343.768 21.496C343.768 21.496 343.15 24.1348 340.501 24.9097C342.025 25.32 344.229 26.3482 344.006 30.1266V30.1216Z" fill="url(#paint13_linear_220_345)"/>
<path d="M309.939 1.27674C312.811 1.42363 313.9 4.41701 314.305 6.44298C314.73 8.56012 315.738 10.4696 317.273 11.8624C322.768 16.8514 328.872 10.9862 328.872 10.9862C328.872 10.9862 320.099 13.9999 317.602 8.26129C317.602 8.26129 315.718 4.4322 318.494 0.0915527C318.494 0.0915527 315.991 1.13493 315.662 3.87506C315.009 2.43662 313.631 0.435966 309.939 1.27674Z" fill="url(#paint14_linear_220_345)"/>
<path d="M328.966 24.1143C326.636 22.8075 326.915 18.7809 327.492 15.8331C327.563 15.4786 327.639 15.1392 327.71 14.8252C327.416 14.9518 327.097 15.0835 326.768 15.2C323.957 16.2535 320.021 17.2007 318.35 15.119C317.848 18.8771 321.353 19.6673 326.023 16.8157C323.987 21.9009 325.344 25.2235 328.966 24.1092V24.1143Z" fill="url(#paint15_linear_220_345)"/>
<path d="M314.449 19.9004C316.779 21.2071 316.501 25.2338 315.923 28.1815C315.852 28.5361 315.776 28.8754 315.706 29.1895C315.999 29.0628 316.318 28.9312 316.648 28.8147C319.459 27.7612 323.394 26.814 325.065 28.8957C325.567 25.1375 322.062 24.3474 317.392 27.1989C319.428 22.1138 318.071 18.7912 314.449 19.9054V19.9004Z" fill="url(#paint16_linear_220_345)"/>
<path d="M321.804 19.9257C320.548 20.9437 320.168 23.4306 320.168 23.4306C320.168 23.4306 322.559 22.6455 323.354 21.2426C323.947 20.1941 322.736 19.171 321.799 19.9257H321.804Z" fill="url(#paint17_linear_220_345)"/>
<path d="M329.856 1.77832C332.186 3.08507 331.907 7.11168 331.33 10.0595C331.259 10.414 331.183 10.7534 331.112 11.0674C331.406 10.9408 331.725 10.8091 332.054 10.6926C334.865 9.63908 338.801 8.69194 340.472 10.7736C340.973 7.01545 337.468 6.22532 332.799 9.07687C334.835 3.99168 333.477 0.669089 329.856 1.78337V1.77832Z" fill="url(#paint18_linear_220_345)"/>
<path d="M337.969 4.53373C339.225 3.51568 339.605 1.02881 339.605 1.02881C339.605 1.02881 337.215 1.81388 336.419 3.21686C335.827 4.2653 337.037 5.28841 337.974 4.53373H337.969Z" fill="url(#paint19_linear_220_345)"/>
<path d="M324.779 47.8891C324.941 47.5902 325.159 47.3167 325.422 47.0787C326.03 46.5266 326.866 46.1923 327.691 46.1822C328.446 46.172 329.388 46.4709 329.722 47.104C329.91 47.4636 329.971 48.0157 329.783 48.4057C329.657 48.6691 329.434 48.897 329.155 49.0388C328.638 49.3123 328.213 49.0894 327.701 49.2009C325.944 49.5757 326.876 50.7811 327.458 51.0952C327.853 51.3079 328.329 51.3636 328.795 51.3433C333.45 51.1559 332.062 46.015 331.049 43.6143C330.016 41.1628 328.329 38.9191 327.651 36.336C327.296 34.9887 327.382 33.1653 328.517 32.0713C328.644 32.2232 328.765 32.3701 328.892 32.5221C328.963 32.6943 329.039 32.8665 329.12 33.0387C328.831 33.9554 328.892 35.0596 328.968 35.8193C329.165 37.7592 330.062 39.5319 330.908 41.254C331.632 42.7279 332.311 44.2119 332.726 45.8074C333.08 47.18 333.511 48.8463 332.999 50.2898C332.214 52.4931 329.429 53.7948 327.154 53.0452C324.966 52.326 323.644 49.9961 324.784 47.8941L324.779 47.8891Z" fill="url(#paint20_linear_220_345)"/>
<path d="M344.416 30.0606C344.79 31.4788 344.563 33.135 343.474 34.3151C342.385 35.4953 340.333 35.9866 339.062 35.1407C337.791 34.2949 337.953 32.0967 339.477 31.4534C340.318 31.0989 341.351 31.2255 342.086 30.6988C342.709 30.248 342.896 29.4275 342.673 28.7792C342.456 28.1309 341.908 27.6294 341.301 27.2445C336.697 24.3524 330.396 27.8675 329.429 32.745C328.547 37.1819 331.708 40.7172 334.934 43.7865C336.636 45.4073 340.526 46.1823 341.827 43.3611C341.954 43.0876 342.136 42.7381 342.445 42.7584C342.562 42.7685 342.658 42.8293 342.744 42.9002C343.403 43.4219 343.717 44.2525 343.696 45.0781C343.666 46.1367 343.154 47.2864 342.324 48.0968C341.959 48.4513 340.663 48.8717 340.485 49.2415C340.288 49.6467 341.24 51.08 341.427 51.47C343.21 55.1523 345.682 59.0826 344.421 63.4284C344.147 64.3654 343.276 63.9045 342.901 63.3777C342.136 62.2938 340.946 61.4632 340.283 60.3236C339.842 60.4958 339.452 60.906 338.961 61.0934C338.404 61.3061 337.796 61.3922 337.213 61.3619C335 61.2403 333.718 59.7107 333.425 58.0545C333.374 57.7658 333.739 57.5632 334.027 57.7354C335.765 58.7838 336.884 56.4641 336.965 55.4511C337.051 54.2862 336.899 53.1263 336.712 51.9867C336.342 49.7328 335.208 47.8334 333.794 46.0759C330.882 43.2497 328.35 39.9726 327.387 36.1284C326.678 33.2869 327.2 29.939 329.52 27.6953C330.411 26.8342 331.52 26.1758 332.716 25.7301C333.298 25.5123 333.901 25.3451 334.509 25.2286C338.723 24.4132 343.433 26.3885 344.406 30.0656L344.416 30.0606Z" fill="url(#paint21_linear_220_345)"/>
<path d="M292.938 19.9866C293.237 19.8246 293.51 19.6068 293.748 19.3434C294.3 18.7356 294.635 17.8999 294.645 17.0743C294.655 16.3196 294.356 15.3775 293.723 15.0433C293.363 14.8559 292.811 14.7951 292.421 14.9825C292.158 15.1091 291.93 15.332 291.788 15.6105C291.515 16.1272 291.737 16.5526 291.626 17.0642C291.251 18.8217 290.046 17.8897 289.732 17.3073C289.519 16.9122 289.463 16.4361 289.484 15.9701C289.671 11.3155 294.812 12.7033 297.213 13.7162C299.664 14.7495 301.908 16.4361 304.491 17.1148C305.838 17.4694 307.662 17.3833 308.756 16.2487C308.604 16.1221 308.457 16.0005 308.305 15.8739C308.133 15.803 307.96 15.727 307.788 15.646C306.871 15.9347 305.767 15.879 305.008 15.7979C303.068 15.6004 301.295 14.7039 299.573 13.8581C298.099 13.1338 296.615 12.4551 295.02 12.0398C293.647 11.6852 291.981 11.2547 290.537 11.7663C288.334 12.5513 287.032 15.337 287.782 17.6112C288.501 19.7992 290.831 21.1212 292.933 19.9816L292.938 19.9866Z" fill="url(#paint22_linear_220_345)"/>
<path d="M310.769 0.349997C309.355 -0.0248079 307.694 0.203107 306.514 1.29207C305.334 2.38103 304.843 4.43233 305.688 5.70363C306.534 6.97493 308.732 6.81285 309.376 5.2883C309.73 4.44753 309.604 3.41428 310.13 2.67987C310.581 2.05688 311.402 1.86948 312.05 2.09233C312.698 2.31013 313.2 2.85713 313.585 3.46493C316.477 8.06895 312.962 14.3697 308.084 15.3371C303.647 16.2184 300.112 13.0579 297.043 9.83155C295.422 8.12973 294.647 4.23986 297.468 2.93817C297.742 2.81155 298.091 2.62921 298.071 2.32025C298.061 2.20375 298 2.10752 297.929 2.02142C297.407 1.36298 296.577 1.04895 295.751 1.06921C294.692 1.0996 293.543 1.61117 292.732 2.44182C292.378 2.80649 291.957 4.1031 291.588 4.28037C291.182 4.47791 289.749 3.52571 289.359 3.3383C285.677 1.55545 281.746 -0.916241 277.401 0.344927C276.464 0.618433 276.925 1.4896 277.451 1.86441C278.535 2.62921 279.366 3.81948 280.506 4.48298C280.333 4.92363 279.923 5.31362 279.736 5.80492C279.523 6.36206 279.437 6.96986 279.467 7.55233C279.589 9.7657 281.118 11.0471 282.775 11.3409C283.063 11.3915 283.266 11.0269 283.094 10.7382C282.045 9.00089 284.365 7.88154 285.378 7.80051C286.543 7.7144 287.703 7.86635 288.842 8.05375C291.096 8.42349 292.996 9.55804 294.753 10.9712C297.579 13.8835 300.856 16.416 304.701 17.3783C307.542 18.0874 310.89 17.5657 313.134 15.246C314 14.3545 314.653 13.2453 315.099 12.05C315.317 11.4675 315.484 10.8648 315.6 10.257C316.416 6.04298 314.441 1.33259 310.763 0.360121L310.769 0.349997Z" fill="url(#paint23_linear_220_345)"/>
<path d="M300.502 18.2595C300.937 19.1408 301.667 19.8803 302.032 20.7869C302.335 20.7059 302.619 20.4526 302.953 20.3665C303.338 20.2703 303.743 20.2753 304.123 20.3614C305.577 20.6957 306.322 21.962 306.408 23.208C306.423 23.4257 306.17 23.5321 305.992 23.3751C304.913 22.4127 304.022 23.9981 303.906 24.7274C303.769 25.5733 303.794 26.4444 303.845 27.3004C303.941 28.9972 304.564 30.5166 305.384 31.9602C305.678 32.3704 305.967 32.7857 306.246 33.2112C306.18 32.9022 306.124 32.5933 306.078 32.2792C305.932 31.2308 305.759 29.9595 306.19 28.9566C306.853 27.422 308.773 26.7737 310.227 27.5739C311.624 28.3438 312.344 30.1975 311.457 31.6208C311.331 31.8234 311.169 32.0007 310.981 32.1476C310.546 32.4869 309.968 32.6388 309.421 32.5578C308.92 32.4818 308.322 32.1577 308.14 31.6563C308.039 31.3726 308.033 30.9624 308.185 30.6939C308.287 30.5166 308.449 30.3748 308.641 30.2989C309.001 30.157 309.264 30.3647 309.609 30.3394C310.794 30.2533 310.257 29.2707 309.892 28.9769C309.644 28.7794 309.335 28.6831 309.026 28.6477C305.942 28.2729 306.524 32.2033 307.036 34.0773C307.132 34.4369 307.248 34.7965 307.37 35.1511C307.426 35.2625 307.481 35.3739 307.537 35.4853C308.018 35.6474 308.489 35.8297 308.955 36.0323C309.32 36.1286 309.685 36.2198 310.049 36.2957C311.954 36.6807 315.914 36.9947 315.332 33.9456C315.276 33.6417 315.16 33.3378 314.947 33.1048C314.628 32.7604 313.61 32.2944 313.605 33.4796C313.605 33.824 313.828 34.0773 313.711 34.442C313.65 34.6395 313.519 34.8066 313.347 34.9231C313.088 35.0903 312.678 35.1156 312.389 35.0346C311.878 34.8877 311.513 34.3103 311.402 33.819C311.28 33.277 311.402 32.6946 311.706 32.2387C311.837 32.0412 312.004 31.869 312.197 31.7272C313.554 30.7446 315.459 31.3372 316.315 32.6844C317.206 34.0824 316.689 36.0425 315.205 36.8073C314.233 37.3036 312.952 37.2175 311.898 37.1416C311.584 37.1213 311.27 37.0859 310.956 37.0403C311.397 37.2885 311.832 37.5468 312.263 37.8152C313.762 38.5344 315.317 39.0561 317.019 39.0409C317.875 39.0308 318.746 39.0004 319.581 38.8079C320.306 38.6408 321.825 37.6481 320.792 36.6351C320.62 36.4679 320.716 36.2046 320.934 36.2096C322.185 36.2096 323.497 36.8731 323.927 38.2964C324.039 38.6712 324.069 39.0764 324.003 39.4664C323.942 39.8057 323.704 40.1046 323.649 40.4135C324.581 40.7124 325.366 41.3911 326.272 41.7709C326.713 41.9533 327.184 42.4699 326.541 42.7535C323.568 44.0704 320.321 42.9105 317.368 42.1711C317.059 42.0951 315.869 41.6392 315.6 41.8114C315.362 41.9684 315.256 42.8599 315.048 43.1384C314.587 43.7665 313.828 44.2375 313.063 44.3743C312.465 44.4857 311.812 44.3743 311.331 44.0046C311.27 43.9539 311.204 43.8982 311.184 43.8222C311.123 43.6196 311.351 43.4626 311.528 43.3512C313.382 42.1812 312.222 39.7348 310.779 38.813C309.989 38.3065 309.173 37.8101 308.337 37.3847C308.631 38.2305 308.849 39.0966 308.965 39.9881C309.249 42.1508 308.687 44.5516 307.01 45.9495C306.367 46.4864 305.592 46.846 304.772 47.0435C304.372 47.1397 303.966 47.1955 303.556 47.2157C300.725 47.3525 297.742 45.3822 297.341 42.5762C297.301 42.2875 297.291 41.9938 297.311 41.7051C297.245 41.3607 297.205 41.0163 297.2 40.6668C297.189 40.2565 297.22 39.8462 297.291 39.441C297.433 38.6104 297.736 37.8152 298.228 37.1365C299.509 35.3689 301.864 34.6496 304.042 34.7813C304.534 34.8117 305.02 34.8775 305.506 34.9637C305.182 34.4774 304.843 34.0013 304.498 33.5353C303.48 32.1577 300.963 31.1599 299.919 33.0896C299.818 33.277 299.676 33.5151 299.474 33.4644C299.398 33.4442 299.337 33.3885 299.286 33.3277C298.886 32.8718 298.729 32.2286 298.8 31.6259C298.886 30.8509 299.302 30.0608 299.904 29.5594C300.168 29.3365 301.054 29.1694 301.191 28.9212C301.348 28.6426 300.811 27.4878 300.715 27.1839C299.778 24.2868 298.405 21.1263 299.519 18.0721C299.757 17.4137 300.304 17.8492 300.517 18.2747L300.502 18.2595ZM302.194 45.7266C302.852 45.7874 303.526 45.8026 304.179 45.6962C304.924 45.5696 305.648 45.2404 306.159 44.6782C306.777 43.9944 307.157 43.1182 307.4 42.242C307.947 40.2616 307.421 38.3673 306.479 36.5844C305.911 36.397 305.334 36.2552 304.741 36.1843C303.424 36.0273 302.011 36.2451 300.907 37.0149C298.83 38.4635 297.498 41.8216 299.053 44.0755C299.377 44.5465 299.767 44.9872 300.264 45.2657C300.507 45.4025 300.765 45.4936 301.034 45.5595C301.409 45.6506 301.804 45.6962 302.194 45.7317V45.7266Z" fill="url(#paint24_linear_220_345)"/>
<path d="M339.5 65C339.777 65 340 68.3892 340 72.5826V505.417C340 509.611 339.777 513 339.5 513C339.223 513 339 509.611 339 505.417V72.5826C339 68.3892 339.223 65 339.5 65Z" fill="url(#paint25_linear_220_345)"/>
<path d="M68 8H277" stroke="#BA9979" stroke-width="1.01299" stroke-linecap="round"/>
</g>
<defs>
<linearGradient id="paint0_linear_220_345" x1="-119.755" y1="94.0562" x2="413.896" y2="-208.204" gradientUnits="userSpaceOnUse">
<stop stop-color="#EEDEBC"/>
<stop offset="0.06" stop-color="#DDC5A3"/>
<stop offset="0.14" stop-color="#C9A885"/>
<stop offset="0.26" stop-color="#9A7A5F"/>
<stop offset="0.36" stop-color="#C9A885"/>
<stop offset="0.49" stop-color="#EEDEBC"/>
<stop offset="0.54" stop-color="#DDC5A3"/>
<stop offset="0.61" stop-color="#C9A885"/>
<stop offset="0.72" stop-color="#9A7A5F"/>
<stop offset="0.84" stop-color="#C9A885"/>
<stop offset="1" stop-color="#EEDEBC"/>
</linearGradient>
<linearGradient id="paint1_linear_220_345" x1="-121.857" y1="90.3435" x2="411.794" y2="-211.916" gradientUnits="userSpaceOnUse">
<stop stop-color="#EEDEBC"/>
<stop offset="0.06" stop-color="#DDC5A3"/>
<stop offset="0.14" stop-color="#C9A885"/>
<stop offset="0.26" stop-color="#9A7A5F"/>
<stop offset="0.36" stop-color="#C9A885"/>
<stop offset="0.49" stop-color="#EEDEBC"/>
<stop offset="0.54" stop-color="#DDC5A3"/>
<stop offset="0.61" stop-color="#C9A885"/>
<stop offset="0.72" stop-color="#9A7A5F"/>
<stop offset="0.84" stop-color="#C9A885"/>
<stop offset="1" stop-color="#EEDEBC"/>
</linearGradient>
<linearGradient id="paint2_linear_220_345" x1="-118.37" y1="96.5023" x2="415.276" y2="-205.758" gradientUnits="userSpaceOnUse">
<stop stop-color="#EEDEBC"/>
<stop offset="0.06" stop-color="#DDC5A3"/>
<stop offset="0.14" stop-color="#C9A885"/>
<stop offset="0.26" stop-color="#9A7A5F"/>
<stop offset="0.36" stop-color="#C9A885"/>
<stop offset="0.49" stop-color="#EEDEBC"/>
<stop offset="0.54" stop-color="#DDC5A3"/>
<stop offset="0.61" stop-color="#C9A885"/>
<stop offset="0.72" stop-color="#9A7A5F"/>
<stop offset="0.84" stop-color="#C9A885"/>
<stop offset="1" stop-color="#EEDEBC"/>
</linearGradient>
<linearGradient id="paint3_linear_220_345" x1="-113.558" y1="104.996" x2="420.088" y2="-197.258" gradientUnits="userSpaceOnUse">
<stop stop-color="#EEDEBC"/>
<stop offset="0.06" stop-color="#DDC5A3"/>
<stop offset="0.14" stop-color="#C9A885"/>
<stop offset="0.26" stop-color="#9A7A5F"/>
<stop offset="0.36" stop-color="#C9A885"/>
<stop offset="0.49" stop-color="#EEDEBC"/>
<stop offset="0.54" stop-color="#DDC5A3"/>
<stop offset="0.61" stop-color="#C9A885"/>
<stop offset="0.72" stop-color="#9A7A5F"/>
<stop offset="0.84" stop-color="#C9A885"/>
<stop offset="1" stop-color="#EEDEBC"/>
</linearGradient>
<linearGradient id="paint4_linear_220_345" x1="-116.102" y1="100.509" x2="417.545" y2="-201.751" gradientUnits="userSpaceOnUse">
<stop stop-color="#EEDEBC"/>
<stop offset="0.06" stop-color="#DDC5A3"/>
<stop offset="0.14" stop-color="#C9A885"/>
<stop offset="0.26" stop-color="#9A7A5F"/>
<stop offset="0.36" stop-color="#C9A885"/>
<stop offset="0.49" stop-color="#EEDEBC"/>
<stop offset="0.54" stop-color="#DDC5A3"/>
<stop offset="0.61" stop-color="#C9A885"/>
<stop offset="0.72" stop-color="#9A7A5F"/>
<stop offset="0.84" stop-color="#C9A885"/>
<stop offset="1" stop-color="#EEDEBC"/>
</linearGradient>
<linearGradient id="paint5_linear_220_345" x1="-125.075" y1="84.6711" x2="408.577" y2="-217.589" gradientUnits="userSpaceOnUse">
<stop stop-color="#EEDEBC"/>
<stop offset="0.06" stop-color="#DDC5A3"/>
<stop offset="0.14" stop-color="#C9A885"/>
<stop offset="0.26" stop-color="#9A7A5F"/>
<stop offset="0.36" stop-color="#C9A885"/>
<stop offset="0.49" stop-color="#EEDEBC"/>
<stop offset="0.54" stop-color="#DDC5A3"/>
<stop offset="0.61" stop-color="#C9A885"/>
<stop offset="0.72" stop-color="#9A7A5F"/>
<stop offset="0.84" stop-color="#C9A885"/>
<stop offset="1" stop-color="#EEDEBC"/>
</linearGradient>
<linearGradient id="paint6_linear_220_345" x1="-128.184" y1="79.1755" x2="405.467" y2="-223.085" gradientUnits="userSpaceOnUse">
<stop stop-color="#EEDEBC"/>
<stop offset="0.06" stop-color="#DDC5A3"/>
<stop offset="0.14" stop-color="#C9A885"/>
<stop offset="0.26" stop-color="#9A7A5F"/>
<stop offset="0.36" stop-color="#C9A885"/>
<stop offset="0.49" stop-color="#EEDEBC"/>
<stop offset="0.54" stop-color="#DDC5A3"/>
<stop offset="0.61" stop-color="#C9A885"/>
<stop offset="0.72" stop-color="#9A7A5F"/>
<stop offset="0.84" stop-color="#C9A885"/>
<stop offset="1" stop-color="#EEDEBC"/>
</linearGradient>
<linearGradient id="paint7_linear_220_345" x1="-108.622" y1="113.718" x2="425.029" y2="-188.537" gradientUnits="userSpaceOnUse">
<stop stop-color="#EEDEBC"/>
<stop offset="0.06" stop-color="#DDC5A3"/>
<stop offset="0.14" stop-color="#C9A885"/>
<stop offset="0.26" stop-color="#9A7A5F"/>
<stop offset="0.36" stop-color="#C9A885"/>
<stop offset="0.49" stop-color="#EEDEBC"/>
<stop offset="0.54" stop-color="#DDC5A3"/>
<stop offset="0.61" stop-color="#C9A885"/>
<stop offset="0.72" stop-color="#9A7A5F"/>
<stop offset="0.84" stop-color="#C9A885"/>
<stop offset="1" stop-color="#EEDEBC"/>
</linearGradient>
<linearGradient id="paint8_linear_220_345" x1="-110.764" y1="109.94" x2="422.887" y2="-192.32" gradientUnits="userSpaceOnUse">
<stop stop-color="#EEDEBC"/>
<stop offset="0.06" stop-color="#DDC5A3"/>
<stop offset="0.14" stop-color="#C9A885"/>
<stop offset="0.26" stop-color="#9A7A5F"/>
<stop offset="0.36" stop-color="#C9A885"/>
<stop offset="0.49" stop-color="#EEDEBC"/>
<stop offset="0.54" stop-color="#DDC5A3"/>
<stop offset="0.61" stop-color="#C9A885"/>
<stop offset="0.72" stop-color="#9A7A5F"/>
<stop offset="0.84" stop-color="#C9A885"/>
<stop offset="1" stop-color="#EEDEBC"/>
</linearGradient>
<linearGradient id="paint9_linear_220_345" x1="-112.2" y1="107.392" x2="421.446" y2="-194.863" gradientUnits="userSpaceOnUse">
<stop stop-color="#EEDEBC"/>
<stop offset="0.06" stop-color="#DDC5A3"/>
<stop offset="0.14" stop-color="#C9A885"/>
<stop offset="0.26" stop-color="#9A7A5F"/>
<stop offset="0.36" stop-color="#C9A885"/>
<stop offset="0.49" stop-color="#EEDEBC"/>
<stop offset="0.54" stop-color="#DDC5A3"/>
<stop offset="0.61" stop-color="#C9A885"/>
<stop offset="0.72" stop-color="#9A7A5F"/>
<stop offset="0.84" stop-color="#C9A885"/>
<stop offset="1" stop-color="#EEDEBC"/>
</linearGradient>
<linearGradient id="paint10_linear_220_345" x1="-116.826" y1="99.2327" x2="416.82" y2="-203.027" gradientUnits="userSpaceOnUse">
<stop stop-color="#EEDEBC"/>
<stop offset="0.06" stop-color="#DDC5A3"/>
<stop offset="0.14" stop-color="#C9A885"/>
<stop offset="0.26" stop-color="#9A7A5F"/>
<stop offset="0.36" stop-color="#C9A885"/>
<stop offset="0.49" stop-color="#EEDEBC"/>
<stop offset="0.54" stop-color="#DDC5A3"/>
<stop offset="0.61" stop-color="#C9A885"/>
<stop offset="0.72" stop-color="#9A7A5F"/>
<stop offset="0.84" stop-color="#C9A885"/>
<stop offset="1" stop-color="#EEDEBC"/>
</linearGradient>
<linearGradient id="paint11_linear_220_345" x1="-106.403" y1="117.639" x2="427.249" y2="-184.621" gradientUnits="userSpaceOnUse">
<stop stop-color="#EEDEBC"/>
<stop offset="0.06" stop-color="#DDC5A3"/>
<stop offset="0.14" stop-color="#C9A885"/>
<stop offset="0.26" stop-color="#9A7A5F"/>
<stop offset="0.36" stop-color="#C9A885"/>
<stop offset="0.49" stop-color="#EEDEBC"/>
<stop offset="0.54" stop-color="#DDC5A3"/>
<stop offset="0.61" stop-color="#C9A885"/>
<stop offset="0.72" stop-color="#9A7A5F"/>
<stop offset="0.84" stop-color="#C9A885"/>
<stop offset="1" stop-color="#EEDEBC"/>
</linearGradient>
<linearGradient id="paint12_linear_220_345" x1="-67.1364" y1="930.096" x2="459.262" y2="910.435" gradientUnits="userSpaceOnUse">
<stop stop-color="#EEDEBC"/>
<stop offset="0.06" stop-color="#DDC5A3"/>
<stop offset="0.14" stop-color="#C9A885"/>
<stop offset="0.26" stop-color="#9A7A5F"/>
<stop offset="0.36" stop-color="#C9A885"/>
<stop offset="0.49" stop-color="#EEDEBC"/>
<stop offset="0.54" stop-color="#DDC5A3"/>
<stop offset="0.61" stop-color="#C9A885"/>
<stop offset="0.72" stop-color="#9A7A5F"/>
<stop offset="0.84" stop-color="#C9A885"/>
<stop offset="1" stop-color="#EEDEBC"/>
</linearGradient>
<linearGradient id="paint13_linear_220_345" x1="464.521" y1="94.0562" x2="-69.1306" y2="-208.204" gradientUnits="userSpaceOnUse">
<stop stop-color="#EEDEBC"/>
<stop offset="0.06" stop-color="#DDC5A3"/>
<stop offset="0.14" stop-color="#C9A885"/>
<stop offset="0.26" stop-color="#9A7A5F"/>
<stop offset="0.36" stop-color="#C9A885"/>
<stop offset="0.49" stop-color="#EEDEBC"/>
<stop offset="0.54" stop-color="#DDC5A3"/>
<stop offset="0.61" stop-color="#C9A885"/>
<stop offset="0.72" stop-color="#9A7A5F"/>
<stop offset="0.84" stop-color="#C9A885"/>
<stop offset="1" stop-color="#EEDEBC"/>
</linearGradient>
<linearGradient id="paint14_linear_220_345" x1="466.623" y1="90.3435" x2="-67.0287" y2="-211.916" gradientUnits="userSpaceOnUse">
<stop stop-color="#EEDEBC"/>
<stop offset="0.06" stop-color="#DDC5A3"/>
<stop offset="0.14" stop-color="#C9A885"/>
<stop offset="0.26" stop-color="#9A7A5F"/>
<stop offset="0.36" stop-color="#C9A885"/>
<stop offset="0.49" stop-color="#EEDEBC"/>
<stop offset="0.54" stop-color="#DDC5A3"/>
<stop offset="0.61" stop-color="#C9A885"/>
<stop offset="0.72" stop-color="#9A7A5F"/>
<stop offset="0.84" stop-color="#C9A885"/>
<stop offset="1" stop-color="#EEDEBC"/>
</linearGradient>
<linearGradient id="paint15_linear_220_345" x1="463.136" y1="96.5023" x2="-70.5106" y2="-205.758" gradientUnits="userSpaceOnUse">
<stop stop-color="#EEDEBC"/>
<stop offset="0.06" stop-color="#DDC5A3"/>
<stop offset="0.14" stop-color="#C9A885"/>
<stop offset="0.26" stop-color="#9A7A5F"/>
<stop offset="0.36" stop-color="#C9A885"/>
<stop offset="0.49" stop-color="#EEDEBC"/>
<stop offset="0.54" stop-color="#DDC5A3"/>
<stop offset="0.61" stop-color="#C9A885"/>
<stop offset="0.72" stop-color="#9A7A5F"/>
<stop offset="0.84" stop-color="#C9A885"/>
<stop offset="1" stop-color="#EEDEBC"/>
</linearGradient>
<linearGradient id="paint16_linear_220_345" x1="458.324" y1="104.996" x2="-75.3226" y2="-197.258" gradientUnits="userSpaceOnUse">
<stop stop-color="#EEDEBC"/>
<stop offset="0.06" stop-color="#DDC5A3"/>
<stop offset="0.14" stop-color="#C9A885"/>
<stop offset="0.26" stop-color="#9A7A5F"/>
<stop offset="0.36" stop-color="#C9A885"/>
<stop offset="0.49" stop-color="#EEDEBC"/>
<stop offset="0.54" stop-color="#DDC5A3"/>
<stop offset="0.61" stop-color="#C9A885"/>
<stop offset="0.72" stop-color="#9A7A5F"/>
<stop offset="0.84" stop-color="#C9A885"/>
<stop offset="1" stop-color="#EEDEBC"/>
</linearGradient>
<linearGradient id="paint17_linear_220_345" x1="460.867" y1="100.509" x2="-72.7795" y2="-201.751" gradientUnits="userSpaceOnUse">
<stop stop-color="#EEDEBC"/>
<stop offset="0.06" stop-color="#DDC5A3"/>
<stop offset="0.14" stop-color="#C9A885"/>
<stop offset="0.26" stop-color="#9A7A5F"/>
<stop offset="0.36" stop-color="#C9A885"/>
<stop offset="0.49" stop-color="#EEDEBC"/>
<stop offset="0.54" stop-color="#DDC5A3"/>
<stop offset="0.61" stop-color="#C9A885"/>
<stop offset="0.72" stop-color="#9A7A5F"/>
<stop offset="0.84" stop-color="#C9A885"/>
<stop offset="1" stop-color="#EEDEBC"/>
</linearGradient>
<linearGradient id="paint18_linear_220_345" x1="469.84" y1="84.6711" x2="-63.8111" y2="-217.589" gradientUnits="userSpaceOnUse">
<stop stop-color="#EEDEBC"/>
<stop offset="0.06" stop-color="#DDC5A3"/>
<stop offset="0.14" stop-color="#C9A885"/>
<stop offset="0.26" stop-color="#9A7A5F"/>
<stop offset="0.36" stop-color="#C9A885"/>
<stop offset="0.49" stop-color="#EEDEBC"/>
<stop offset="0.54" stop-color="#DDC5A3"/>
<stop offset="0.61" stop-color="#C9A885"/>
<stop offset="0.72" stop-color="#9A7A5F"/>
<stop offset="0.84" stop-color="#C9A885"/>
<stop offset="1" stop-color="#EEDEBC"/>
</linearGradient>
<linearGradient id="paint19_linear_220_345" x1="472.95" y1="79.1755" x2="-60.7012" y2="-223.085" gradientUnits="userSpaceOnUse">
<stop stop-color="#EEDEBC"/>
<stop offset="0.06" stop-color="#DDC5A3"/>
<stop offset="0.14" stop-color="#C9A885"/>
<stop offset="0.26" stop-color="#9A7A5F"/>
<stop offset="0.36" stop-color="#C9A885"/>
<stop offset="0.49" stop-color="#EEDEBC"/>
<stop offset="0.54" stop-color="#DDC5A3"/>
<stop offset="0.61" stop-color="#C9A885"/>
<stop offset="0.72" stop-color="#9A7A5F"/>
<stop offset="0.84" stop-color="#C9A885"/>
<stop offset="1" stop-color="#EEDEBC"/>
</linearGradient>
<linearGradient id="paint20_linear_220_345" x1="453.388" y1="113.718" x2="-80.2636" y2="-188.537" gradientUnits="userSpaceOnUse">
<stop stop-color="#EEDEBC"/>
<stop offset="0.06" stop-color="#DDC5A3"/>
<stop offset="0.14" stop-color="#C9A885"/>
<stop offset="0.26" stop-color="#9A7A5F"/>
<stop offset="0.36" stop-color="#C9A885"/>
<stop offset="0.49" stop-color="#EEDEBC"/>
<stop offset="0.54" stop-color="#DDC5A3"/>
<stop offset="0.61" stop-color="#C9A885"/>
<stop offset="0.72" stop-color="#9A7A5F"/>
<stop offset="0.84" stop-color="#C9A885"/>
<stop offset="1" stop-color="#EEDEBC"/>
</linearGradient>
<linearGradient id="paint21_linear_220_345" x1="455.53" y1="109.94" x2="-78.1212" y2="-192.32" gradientUnits="userSpaceOnUse">
<stop stop-color="#EEDEBC"/>
<stop offset="0.06" stop-color="#DDC5A3"/>
<stop offset="0.14" stop-color="#C9A885"/>
<stop offset="0.26" stop-color="#9A7A5F"/>
<stop offset="0.36" stop-color="#C9A885"/>
<stop offset="0.49" stop-color="#EEDEBC"/>
<stop offset="0.54" stop-color="#DDC5A3"/>
<stop offset="0.61" stop-color="#C9A885"/>
<stop offset="0.72" stop-color="#9A7A5F"/>
<stop offset="0.84" stop-color="#C9A885"/>
<stop offset="1" stop-color="#EEDEBC"/>
</linearGradient>
<linearGradient id="paint22_linear_220_345" x1="456.966" y1="107.392" x2="-76.6802" y2="-194.863" gradientUnits="userSpaceOnUse">
<stop stop-color="#EEDEBC"/>
<stop offset="0.06" stop-color="#DDC5A3"/>
<stop offset="0.14" stop-color="#C9A885"/>
<stop offset="0.26" stop-color="#9A7A5F"/>
<stop offset="0.36" stop-color="#C9A885"/>
<stop offset="0.49" stop-color="#EEDEBC"/>
<stop offset="0.54" stop-color="#DDC5A3"/>
<stop offset="0.61" stop-color="#C9A885"/>
<stop offset="0.72" stop-color="#9A7A5F"/>
<stop offset="0.84" stop-color="#C9A885"/>
<stop offset="1" stop-color="#EEDEBC"/>
</linearGradient>
<linearGradient id="paint23_linear_220_345" x1="461.592" y1="99.2327" x2="-72.0542" y2="-203.027" gradientUnits="userSpaceOnUse">
<stop stop-color="#EEDEBC"/>
<stop offset="0.06" stop-color="#DDC5A3"/>
<stop offset="0.14" stop-color="#C9A885"/>
<stop offset="0.26" stop-color="#9A7A5F"/>
<stop offset="0.36" stop-color="#C9A885"/>
<stop offset="0.49" stop-color="#EEDEBC"/>
<stop offset="0.54" stop-color="#DDC5A3"/>
<stop offset="0.61" stop-color="#C9A885"/>
<stop offset="0.72" stop-color="#9A7A5F"/>
<stop offset="0.84" stop-color="#C9A885"/>
<stop offset="1" stop-color="#EEDEBC"/>
</linearGradient>
<linearGradient id="paint24_linear_220_345" x1="451.168" y1="117.639" x2="-82.4829" y2="-184.621" gradientUnits="userSpaceOnUse">
<stop stop-color="#EEDEBC"/>
<stop offset="0.06" stop-color="#DDC5A3"/>
<stop offset="0.14" stop-color="#C9A885"/>
<stop offset="0.26" stop-color="#9A7A5F"/>
<stop offset="0.36" stop-color="#C9A885"/>
<stop offset="0.49" stop-color="#EEDEBC"/>
<stop offset="0.54" stop-color="#DDC5A3"/>
<stop offset="0.61" stop-color="#C9A885"/>
<stop offset="0.72" stop-color="#9A7A5F"/>
<stop offset="0.84" stop-color="#C9A885"/>
<stop offset="1" stop-color="#EEDEBC"/>
</linearGradient>
<linearGradient id="paint25_linear_220_345" x1="414.136" y1="930.096" x2="-112.262" y2="910.435" gradientUnits="userSpaceOnUse">
<stop stop-color="#EEDEBC"/>
<stop offset="0.06" stop-color="#DDC5A3"/>
<stop offset="0.14" stop-color="#C9A885"/>
<stop offset="0.26" stop-color="#9A7A5F"/>
<stop offset="0.36" stop-color="#C9A885"/>
<stop offset="0.49" stop-color="#EEDEBC"/>
<stop offset="0.54" stop-color="#DDC5A3"/>
<stop offset="0.61" stop-color="#C9A885"/>
<stop offset="0.72" stop-color="#9A7A5F"/>
<stop offset="0.84" stop-color="#C9A885"/>
<stop offset="1" stop-color="#EEDEBC"/>
</linearGradient>
<clipPath id="clip0_220_345">
<rect width="344.766" height="513" fill="white" transform="matrix(-1 0 0 1 344.766 0)"/>
</clipPath>
</defs>
</svg>
