<svg width="1581" height="127" viewBox="0 0 1581 127" fill="none" xmlns="http://www.w3.org/2000/svg">
<g clip-path="url(#clip0_244_837)">
<path d="M1579.51 66.8254C1578.29 72.3754 1572.1 73.5154 1568.03 73.6454C1563.77 73.7854 1559.72 75.1254 1556.51 77.6554C1545.01 86.7354 1554.45 100.525 1554.45 100.525C1554.45 100.525 1551.43 82.4654 1563.42 79.4654C1563.42 79.4654 1571.49 77.0354 1579.04 83.8554C1579.04 83.8554 1577.82 78.6454 1572.59 77.1154C1575.6 76.3054 1579.95 74.2754 1579.51 66.8154V66.8254Z" fill="url(#paint0_linear_244_837)"/>
<path d="M1512.25 123.775C1517.92 123.485 1520.07 117.575 1520.87 113.575C1521.71 109.395 1523.7 105.625 1526.73 102.875C1537.58 93.0255 1549.63 104.605 1549.63 104.605C1549.63 104.605 1532.31 98.6555 1527.38 109.985C1527.38 109.985 1523.66 117.545 1529.14 126.115C1529.14 126.115 1524.2 124.055 1523.55 118.645C1522.26 121.485 1519.54 125.435 1512.25 123.775Z" fill="url(#paint1_linear_244_837)"/>
<path d="M1549.81 78.6854C1545.21 81.2654 1545.76 89.2154 1546.9 95.0354C1547.04 95.7354 1547.19 96.4054 1547.33 97.0254C1546.75 96.7754 1546.12 96.5154 1545.47 96.2854C1539.92 94.2054 1532.15 92.3354 1528.85 96.4454C1527.86 89.0254 1534.78 87.4654 1544 93.0954C1539.98 83.0554 1542.66 76.4954 1549.81 78.6954V78.6854Z" fill="url(#paint2_linear_244_837)"/>
<path d="M1521.15 87.0054C1525.75 84.4254 1525.2 76.4754 1524.06 70.6554C1523.92 69.9554 1523.77 69.2854 1523.63 68.6654C1524.21 68.9154 1524.84 69.1754 1525.49 69.4054C1531.04 71.4854 1538.81 73.3554 1542.11 69.2454C1543.1 76.6654 1536.18 78.2254 1526.96 72.5954C1530.98 82.6354 1528.3 89.1954 1521.15 86.9954V87.0054Z" fill="url(#paint3_linear_244_837)"/>
<path d="M1535.67 86.9554C1533.19 84.9454 1532.44 80.0354 1532.44 80.0354C1532.44 80.0354 1537.16 81.5854 1538.73 84.3554C1539.9 86.4254 1537.51 88.4454 1535.66 86.9554H1535.67Z" fill="url(#paint4_linear_244_837)"/>
<path d="M1551.57 122.785C1556.17 120.205 1555.62 112.255 1554.48 106.435C1554.34 105.735 1554.19 105.065 1554.05 104.445C1554.63 104.695 1555.26 104.955 1555.91 105.185C1561.46 107.265 1569.23 109.135 1572.53 105.025C1573.52 112.445 1566.6 114.005 1557.38 108.375C1561.4 118.415 1558.72 124.975 1551.57 122.775V122.785Z" fill="url(#paint5_linear_244_837)"/>
<path d="M1567.59 117.345C1570.07 119.355 1570.82 124.265 1570.82 124.265C1570.82 124.265 1566.1 122.715 1564.53 119.945C1563.36 117.875 1565.75 115.855 1567.6 117.345H1567.59Z" fill="url(#paint6_linear_244_837)"/>
<path d="M1541.54 31.7454C1541.86 32.3354 1542.29 32.8754 1542.81 33.3454C1544.01 34.4354 1545.66 35.0954 1547.29 35.1154C1548.78 35.1354 1550.64 34.5453 1551.3 33.2953C1551.67 32.5854 1551.79 31.4953 1551.42 30.7253C1551.17 30.2053 1550.73 29.7553 1550.18 29.4753C1549.16 28.9353 1548.32 29.3754 1547.31 29.1554C1543.84 28.4154 1545.68 26.0353 1546.83 25.4153C1547.61 24.9953 1548.55 24.8854 1549.47 24.9254C1558.66 25.2954 1555.92 35.4454 1553.92 40.1854C1551.88 45.0254 1548.55 49.4554 1547.21 54.5554C1546.51 57.2154 1546.68 60.8153 1548.92 62.9753C1549.17 62.6753 1549.41 62.3854 1549.66 62.0854C1549.8 61.7454 1549.95 61.4053 1550.11 61.0653C1549.54 59.2553 1549.66 57.0753 1549.81 55.5753C1550.2 51.7453 1551.97 48.2454 1553.64 44.8454C1555.07 41.9354 1556.41 39.0053 1557.23 35.8553C1557.93 33.1453 1558.78 29.8553 1557.77 27.0053C1556.22 22.6553 1550.72 20.0853 1546.23 21.5653C1541.91 22.9853 1539.3 27.5854 1541.55 31.7354L1541.54 31.7454Z" fill="url(#paint7_linear_244_837)"/>
<path d="M1580.31 66.9454C1581.05 64.1454 1580.6 60.8754 1578.45 58.5454C1576.3 56.2154 1572.25 55.2454 1569.74 56.9154C1567.23 58.5854 1567.55 62.9254 1570.56 64.1954C1572.22 64.8954 1574.26 64.6454 1575.71 65.6854C1576.94 66.5754 1577.31 68.1954 1576.87 69.4754C1576.44 70.7554 1575.36 71.7454 1574.16 72.5054C1565.07 78.2154 1552.63 71.2754 1550.72 61.6454C1548.98 52.8854 1555.22 45.9054 1561.59 39.8454C1564.95 36.6454 1572.63 35.1154 1575.2 40.6854C1575.45 41.2254 1575.81 41.9154 1576.42 41.8754C1576.65 41.8554 1576.84 41.7354 1577.01 41.5954C1578.31 40.5654 1578.93 38.9254 1578.89 37.2954C1578.83 35.2054 1577.82 32.9354 1576.18 31.3354C1575.46 30.6354 1572.9 29.8054 1572.55 29.0754C1572.16 28.2754 1574.04 25.4454 1574.41 24.6754C1577.93 17.4054 1582.81 9.64537 1580.32 1.06537C1579.78 -0.78463 1578.06 0.125374 1577.32 1.16537C1575.81 3.30537 1573.46 4.94537 1572.15 7.19537C1571.28 6.85538 1570.51 6.04539 1569.54 5.67538C1568.44 5.25539 1567.24 5.08539 1566.09 5.14539C1561.72 5.38538 1559.19 8.40539 1558.61 11.6754C1558.51 12.2454 1559.23 12.6454 1559.8 12.3054C1563.23 10.2354 1565.44 14.8154 1565.6 16.8154C1565.77 19.1154 1565.47 21.4054 1565.1 23.6554C1564.37 28.1054 1562.13 31.8554 1559.34 35.3254C1553.59 40.9054 1548.59 47.3754 1546.69 54.9654C1545.29 60.5754 1546.32 67.1854 1550.9 71.6154C1552.66 73.3154 1554.85 74.6154 1557.21 75.4954C1558.36 75.9254 1559.55 76.2554 1560.75 76.4854C1569.07 78.0954 1578.37 74.1954 1580.29 66.9354L1580.31 66.9454Z" fill="url(#paint8_linear_244_837)"/>
<path d="M1478.68 86.8353C1479.27 87.1553 1479.81 87.5853 1480.28 88.1053C1481.37 89.3053 1482.03 90.9553 1482.05 92.5853C1482.07 94.0753 1481.48 95.9353 1480.23 96.5953C1479.52 96.9653 1478.43 97.0853 1477.66 96.7153C1477.14 96.4653 1476.69 96.0253 1476.41 95.4753C1475.87 94.4553 1476.31 93.6153 1476.09 92.6053C1475.35 89.1353 1472.97 90.9753 1472.35 92.1253C1471.93 92.9053 1471.82 93.8453 1471.86 94.7653C1472.23 103.955 1482.38 101.215 1487.12 99.2153C1491.96 97.1753 1496.39 93.8453 1501.49 92.5053C1504.15 91.8053 1507.75 91.9753 1509.91 94.2153C1509.61 94.4653 1509.32 94.7053 1509.02 94.9553C1508.68 95.0953 1508.34 95.2453 1508 95.4053C1506.19 94.8353 1504.01 94.9453 1502.51 95.1053C1498.68 95.4953 1495.18 97.2653 1491.78 98.9353C1488.87 100.365 1485.94 101.705 1482.79 102.525C1480.08 103.225 1476.79 104.075 1473.94 103.065C1469.59 101.515 1467.02 96.0153 1468.5 91.5253C1469.92 87.2053 1474.52 84.5953 1478.67 86.8453L1478.68 86.8353Z" fill="url(#paint9_linear_244_837)"/>
<path d="M1513.88 125.605C1511.09 126.345 1507.81 125.895 1505.48 123.745C1503.15 121.595 1502.18 117.545 1503.85 115.035C1505.52 112.525 1509.86 112.845 1511.13 115.855C1511.83 117.515 1511.58 119.555 1512.62 121.005C1513.51 122.235 1515.13 122.605 1516.41 122.165C1517.69 121.735 1518.68 120.655 1519.44 119.455C1525.15 110.365 1518.21 97.9254 1508.58 96.0154C1499.82 94.2754 1492.84 100.515 1486.78 106.885C1483.58 110.245 1482.05 117.925 1487.62 120.495C1488.16 120.745 1488.85 121.105 1488.81 121.715C1488.79 121.945 1488.67 122.135 1488.53 122.305C1487.5 123.605 1485.86 124.225 1484.23 124.185C1482.14 124.125 1479.87 123.115 1478.27 121.475C1477.57 120.755 1476.74 118.195 1476.01 117.845C1475.21 117.455 1472.38 119.335 1471.61 119.705C1464.34 123.225 1456.58 128.105 1448 125.615C1446.15 125.075 1447.06 123.355 1448.1 122.615C1450.24 121.105 1451.88 118.755 1454.13 117.445C1453.79 116.575 1452.98 115.805 1452.61 114.835C1452.19 113.735 1452.02 112.535 1452.08 111.385C1452.32 107.015 1455.34 104.485 1458.61 103.905C1459.18 103.805 1459.58 104.525 1459.24 105.095C1457.17 108.525 1461.75 110.735 1463.75 110.895C1466.05 111.065 1468.34 110.765 1470.59 110.395C1475.04 109.665 1478.79 107.425 1482.26 104.635C1487.84 98.8854 1494.31 93.8854 1501.9 91.9854C1507.51 90.5854 1514.12 91.6154 1518.55 96.1954C1520.26 97.9554 1521.55 100.145 1522.43 102.505C1522.86 103.655 1523.19 104.845 1523.42 106.045C1525.03 114.365 1521.13 123.665 1513.87 125.585L1513.88 125.605Z" fill="url(#paint10_linear_244_837)"/>
<path d="M1493.61 90.2454C1494.47 88.5054 1495.91 87.0454 1496.63 85.2554C1497.23 85.4154 1497.79 85.9154 1498.45 86.0854C1499.21 86.2754 1500.01 86.2654 1500.76 86.0954C1503.63 85.4354 1505.1 82.9354 1505.27 80.4754C1505.3 80.0454 1504.8 79.8354 1504.45 80.1454C1502.32 82.0454 1500.56 78.9154 1500.33 77.4754C1500.06 75.8054 1500.11 74.0854 1500.21 72.3954C1500.4 69.0454 1501.63 66.0454 1503.25 63.1954C1503.83 62.3854 1504.4 61.5654 1504.95 60.7254C1504.82 61.3354 1504.71 61.9454 1504.62 62.5654C1504.33 64.6354 1503.99 67.1454 1504.84 69.1254C1506.15 72.1554 1509.94 73.4354 1512.81 71.8554C1515.57 70.3354 1516.99 66.6754 1515.24 63.8654C1514.99 63.4654 1514.67 63.1154 1514.3 62.8254C1513.44 62.1554 1512.3 61.8554 1511.22 62.0154C1510.23 62.1654 1509.05 62.8054 1508.69 63.7954C1508.49 64.3554 1508.48 65.1654 1508.78 65.6954C1508.98 66.0454 1509.3 66.3254 1509.68 66.4754C1510.39 66.7554 1510.91 66.3454 1511.59 66.3954C1513.93 66.5654 1512.87 68.5054 1512.15 69.0854C1511.66 69.4754 1511.05 69.6654 1510.44 69.7354C1504.35 70.4754 1505.5 62.7154 1506.51 59.0154C1506.7 58.3054 1506.93 57.5954 1507.17 56.8954C1507.28 56.6754 1507.39 56.4554 1507.5 56.2354C1508.45 55.9154 1509.38 55.5554 1510.3 55.1554C1511.02 54.9654 1511.74 54.7854 1512.46 54.6354C1516.22 53.8754 1524.04 53.2554 1522.89 59.2754C1522.78 59.8754 1522.55 60.4754 1522.13 60.9354C1521.5 61.6154 1519.49 62.5354 1519.48 60.1954C1519.48 59.5154 1519.92 59.0154 1519.69 58.2954C1519.57 57.9054 1519.31 57.5754 1518.97 57.3454C1518.46 57.0154 1517.65 56.9654 1517.08 57.1254C1516.07 57.4154 1515.35 58.5554 1515.13 59.5254C1514.89 60.5954 1515.13 61.7454 1515.73 62.6454C1515.99 63.0354 1516.32 63.3754 1516.7 63.6554C1519.38 65.5954 1523.14 64.4254 1524.83 61.7654C1526.59 59.0054 1525.57 55.1354 1522.64 53.6254C1520.72 52.6454 1518.19 52.8154 1516.11 52.9654C1515.49 53.0054 1514.87 53.0754 1514.25 53.1654C1515.12 52.6754 1515.98 52.1654 1516.83 51.6354C1519.79 50.2154 1522.86 49.1854 1526.22 49.2154C1527.91 49.2354 1529.63 49.2954 1531.28 49.6754C1532.71 50.0054 1535.71 51.9654 1533.67 53.9654C1533.33 54.2954 1533.52 54.8154 1533.95 54.8054C1536.42 54.8054 1539.01 53.4954 1539.86 50.6854C1540.08 49.9454 1540.14 49.1454 1540.01 48.3754C1539.89 47.7054 1539.42 47.1154 1539.31 46.5054C1541.15 45.9154 1542.7 44.5754 1544.49 43.8254C1545.36 43.4654 1546.29 42.4454 1545.02 41.8854C1539.15 39.2854 1532.74 41.5754 1526.91 43.0354C1526.3 43.1854 1523.95 44.0854 1523.42 43.7454C1522.95 43.4354 1522.74 41.6754 1522.33 41.1254C1521.42 39.8854 1519.92 38.9554 1518.41 38.6854C1517.23 38.4654 1515.94 38.6854 1514.99 39.4154C1514.87 39.5154 1514.74 39.6254 1514.7 39.7754C1514.58 40.1754 1515.03 40.4854 1515.38 40.7054C1519.04 43.0154 1516.75 47.8454 1513.9 49.6654C1512.34 50.6654 1510.73 51.6454 1509.08 52.4854C1509.66 50.8154 1510.09 49.1054 1510.32 47.3454C1510.88 43.0754 1509.77 38.3354 1506.46 35.5754C1505.19 34.5154 1503.66 33.8054 1502.04 33.4154C1501.25 33.2254 1500.45 33.1154 1499.64 33.0754C1494.05 32.8054 1488.16 36.6954 1487.37 42.2354C1487.29 42.8054 1487.27 43.3854 1487.31 43.9554C1487.18 44.6354 1487.1 45.3154 1487.09 46.0054C1487.07 46.8154 1487.13 47.6254 1487.27 48.4254C1487.55 50.0654 1488.15 51.6354 1489.12 52.9754C1491.65 56.4654 1496.3 57.8854 1500.6 57.6254C1501.57 57.5654 1502.53 57.4354 1503.49 57.2654C1502.85 58.2254 1502.18 59.1654 1501.5 60.0854C1499.49 62.8054 1494.52 64.7754 1492.46 60.9654C1492.26 60.5954 1491.98 60.1254 1491.58 60.2254C1491.43 60.2654 1491.31 60.3754 1491.21 60.4954C1490.42 61.3954 1490.11 62.6654 1490.25 63.8554C1490.42 65.3854 1491.24 66.9454 1492.43 67.9354C1492.95 68.3754 1494.7 68.7054 1494.97 69.1954C1495.28 69.7454 1494.22 72.0254 1494.03 72.6254C1492.18 78.3454 1489.47 84.5854 1491.67 90.6154C1492.14 91.9154 1493.22 91.0554 1493.64 90.2154L1493.61 90.2454ZM1496.95 36.0154C1498.25 35.8954 1499.58 35.8654 1500.87 36.0754C1502.34 36.3254 1503.77 36.9754 1504.78 38.0854C1506 39.4354 1506.75 41.1654 1507.23 42.8954C1508.31 46.8054 1507.27 50.5454 1505.41 54.0654C1504.29 54.4354 1503.15 54.7154 1501.98 54.8554C1499.38 55.1654 1496.59 54.7354 1494.41 53.2154C1490.31 50.3554 1487.68 43.7254 1490.75 39.2754C1491.39 38.3454 1492.16 37.4754 1493.14 36.9254C1493.62 36.6554 1494.13 36.4754 1494.66 36.3454C1495.4 36.1654 1496.18 36.0754 1496.95 36.0054V36.0154Z" fill="url(#paint11_linear_244_837)"/>
<path d="M134.5 111.296H1444.5" stroke="#BA9979" stroke-width="2" stroke-linecap="round"/>
<path d="M1.49102 66.8254C2.71102 72.3754 8.90102 73.5154 12.971 73.6454C17.231 73.7854 21.281 75.1254 24.491 77.6554C35.991 86.7354 26.551 100.525 26.551 100.525C26.551 100.525 29.571 82.4654 17.581 79.4654C17.581 79.4654 9.51102 77.0354 1.96102 83.8554C1.96102 83.8554 3.18102 78.6454 8.41102 77.1154C5.40102 76.3054 1.05102 74.2754 1.49102 66.8154V66.8254Z" fill="url(#paint12_linear_244_837)"/>
<path d="M68.751 123.775C63.081 123.485 60.931 117.575 60.131 113.575C59.291 109.395 57.301 105.625 54.271 102.875C43.421 93.0255 31.371 104.605 31.371 104.605C31.371 104.605 48.691 98.6555 53.621 109.985C53.621 109.985 57.341 117.545 51.861 126.115C51.861 126.115 56.801 124.055 57.451 118.645C58.741 121.485 61.461 125.435 68.751 123.775Z" fill="url(#paint13_linear_244_837)"/>
<path d="M31.191 78.6854C35.791 81.2654 35.241 89.2154 34.101 95.0354C33.961 95.7354 33.811 96.4054 33.671 97.0254C34.251 96.7754 34.881 96.5154 35.531 96.2854C41.081 94.2054 48.851 92.3354 52.151 96.4454C53.141 89.0254 46.221 87.4654 37.001 93.0954C41.021 83.0554 38.341 76.4954 31.191 78.6954V78.6854Z" fill="url(#paint14_linear_244_837)"/>
<path d="M59.851 87.0054C55.251 84.4254 55.801 76.4754 56.941 70.6554C57.081 69.9554 57.231 69.2854 57.371 68.6654C56.791 68.9154 56.161 69.1754 55.511 69.4054C49.961 71.4854 42.191 73.3554 38.891 69.2454C37.901 76.6654 44.821 78.2254 54.041 72.5954C50.021 82.6354 52.701 89.1954 59.851 86.9954V87.0054Z" fill="url(#paint15_linear_244_837)"/>
<path d="M45.331 86.9554C47.811 84.9454 48.561 80.0354 48.561 80.0354C48.561 80.0354 43.841 81.5854 42.271 84.3554C41.101 86.4254 43.491 88.4454 45.341 86.9554H45.331Z" fill="url(#paint16_linear_244_837)"/>
<path d="M29.4311 122.785C24.8311 120.205 25.3811 112.255 26.5211 106.435C26.6611 105.735 26.8111 105.065 26.9511 104.445C26.3711 104.695 25.7411 104.955 25.0911 105.185C19.5411 107.265 11.7711 109.135 8.47106 105.025C7.48106 112.445 14.4011 114.005 23.6211 108.375C19.6011 118.415 22.2811 124.975 29.4311 122.775V122.785Z" fill="url(#paint17_linear_244_837)"/>
<path d="M13.411 117.345C10.931 119.355 10.181 124.265 10.181 124.265C10.181 124.265 14.901 122.715 16.471 119.945C17.641 117.875 15.251 115.855 13.401 117.345H13.411Z" fill="url(#paint18_linear_244_837)"/>
<path d="M39.4611 31.7454C39.1411 32.3354 38.7111 32.8754 38.1911 33.3454C36.9911 34.4354 35.3411 35.0954 33.7111 35.1154C32.2211 35.1354 30.3611 34.5453 29.7011 33.2953C29.3311 32.5854 29.2111 31.4953 29.5811 30.7253C29.8311 30.2053 30.2711 29.7553 30.8211 29.4753C31.8411 28.9353 32.6811 29.3754 33.6911 29.1554C37.1611 28.4154 35.3211 26.0353 34.1711 25.4153C33.3911 24.9953 32.4511 24.8854 31.5311 24.9254C22.3411 25.2954 25.0811 35.4454 27.0811 40.1854C29.1211 45.0254 32.4511 49.4554 33.7911 54.5554C34.4911 57.2154 34.3211 60.8153 32.0811 62.9753C31.8311 62.6753 31.5911 62.3854 31.3411 62.0854C31.2011 61.7454 31.0511 61.4053 30.8911 61.0653C31.4611 59.2553 31.3411 57.0753 31.1911 55.5753C30.8011 51.7453 29.0311 48.2454 27.3611 44.8454C25.9311 41.9354 24.5911 39.0053 23.7711 35.8553C23.0711 33.1453 22.2211 29.8553 23.2311 27.0053C24.7811 22.6553 30.2811 20.0853 34.7711 21.5653C39.0911 22.9853 41.7011 27.5854 39.4511 31.7354L39.4611 31.7454Z" fill="url(#paint19_linear_244_837)"/>
<path d="M0.691013 66.9454C-0.0489871 64.1454 0.401013 60.8754 2.55101 58.5454C4.70101 56.2154 8.75101 55.2454 11.261 56.9154C13.771 58.5854 13.451 62.9254 10.441 64.1954C8.78101 64.8954 6.74101 64.6454 5.29101 65.6854C4.06101 66.5754 3.69101 68.1954 4.13101 69.4754C4.56101 70.7554 5.64101 71.7454 6.84101 72.5054C15.931 78.2154 28.371 71.2754 30.281 61.6454C32.021 52.8854 25.781 45.9054 19.411 39.8454C16.051 36.6454 8.37101 35.1154 5.80101 40.6854C5.55101 41.2254 5.19101 41.9154 4.58101 41.8754C4.35101 41.8554 4.16101 41.7354 3.99101 41.5954C2.69101 40.5654 2.07101 38.9254 2.11101 37.2954C2.17101 35.2054 3.18101 32.9354 4.82101 31.3354C5.54101 30.6354 8.10101 29.8054 8.45101 29.0754C8.84101 28.2754 6.96101 25.4454 6.59101 24.6754C3.07101 17.4054 -1.80899 9.64537 0.681011 1.06537C1.22101 -0.78463 2.94101 0.125374 3.68101 1.16537C5.19101 3.30537 7.54101 4.94537 8.85101 7.19537C9.72101 6.85538 10.491 6.04539 11.461 5.67538C12.561 5.25539 13.761 5.08539 14.911 5.14539C19.281 5.38538 21.811 8.40539 22.391 11.6754C22.491 12.2454 21.771 12.6454 21.201 12.3054C17.771 10.2354 15.561 14.8154 15.401 16.8154C15.231 19.1154 15.531 21.4054 15.901 23.6554C16.631 28.1054 18.871 31.8554 21.661 35.3254C27.411 40.9054 32.411 47.3754 34.311 54.9654C35.711 60.5754 34.681 67.1854 30.101 71.6154C28.341 73.3154 26.151 74.6154 23.791 75.4954C22.641 75.9254 21.451 76.2554 20.251 76.4854C11.931 78.0954 2.63101 74.1954 0.711013 66.9354L0.691013 66.9454Z" fill="url(#paint20_linear_244_837)"/>
<path d="M102.321 86.8353C101.731 87.1553 101.191 87.5853 100.721 88.1053C99.6311 89.3053 98.9711 90.9553 98.9511 92.5853C98.9311 94.0753 99.5211 95.9353 100.771 96.5953C101.481 96.9653 102.571 97.0853 103.341 96.7153C103.861 96.4653 104.311 96.0253 104.591 95.4753C105.131 94.4553 104.691 93.6153 104.911 92.6053C105.651 89.1353 108.031 90.9753 108.651 92.1253C109.071 92.9053 109.181 93.8453 109.141 94.7653C108.771 103.955 98.6211 101.215 93.8811 99.2153C89.0411 97.1753 84.6111 93.8453 79.5111 92.5053C76.8511 91.8053 73.2511 91.9753 71.0911 94.2153C71.3911 94.4653 71.6811 94.7053 71.9811 94.9553C72.3211 95.0953 72.6611 95.2453 73.0011 95.4053C74.8111 94.8353 76.9911 94.9453 78.4911 95.1053C82.3211 95.4953 85.8211 97.2653 89.2211 98.9353C92.1311 100.365 95.0611 101.705 98.2111 102.525C100.921 103.225 104.211 104.075 107.061 103.065C111.411 101.515 113.981 96.0153 112.501 91.5253C111.081 87.2053 106.481 84.5953 102.331 86.8453L102.321 86.8353Z" fill="url(#paint21_linear_244_837)"/>
<path d="M67.121 125.605C69.911 126.345 73.191 125.895 75.521 123.745C77.851 121.595 78.821 117.545 77.151 115.035C75.481 112.525 71.141 112.845 69.871 115.855C69.171 117.515 69.421 119.555 68.381 121.005C67.491 122.235 65.871 122.605 64.591 122.165C63.311 121.735 62.321 120.655 61.561 119.455C55.851 110.365 62.791 97.9254 72.421 96.0154C81.181 94.2754 88.161 100.515 94.221 106.885C97.421 110.245 98.951 117.925 93.381 120.495C92.841 120.745 92.151 121.105 92.191 121.715C92.211 121.945 92.331 122.135 92.471 122.305C93.501 123.605 95.141 124.225 96.771 124.185C98.861 124.125 101.131 123.115 102.731 121.475C103.431 120.755 104.261 118.195 104.991 117.845C105.791 117.455 108.621 119.335 109.391 119.705C116.661 123.225 124.421 128.105 133.001 125.615C134.851 125.075 133.941 123.355 132.901 122.615C130.761 121.105 129.121 118.755 126.871 117.445C127.211 116.575 128.021 115.805 128.391 114.835C128.811 113.735 128.981 112.535 128.921 111.385C128.681 107.015 125.661 104.485 122.391 103.905C121.821 103.805 121.421 104.525 121.761 105.095C123.831 108.525 119.251 110.735 117.251 110.895C114.951 111.065 112.661 110.765 110.411 110.395C105.961 109.665 102.211 107.425 98.741 104.635C93.161 98.8854 86.691 93.8854 79.101 91.9854C73.491 90.5854 66.881 91.6154 62.451 96.1954C60.741 97.9554 59.451 100.145 58.571 102.505C58.141 103.655 57.811 104.845 57.581 106.045C55.971 114.365 59.871 123.665 67.131 125.585L67.121 125.605Z" fill="url(#paint22_linear_244_837)"/>
<path d="M87.391 90.2454C86.531 88.5054 85.0911 87.0454 84.3711 85.2554C83.7711 85.4154 83.2111 85.9154 82.5511 86.0854C81.7911 86.2754 80.9911 86.2654 80.2411 86.0954C77.3711 85.4354 75.9011 82.9354 75.7311 80.4754C75.7011 80.0454 76.2011 79.8354 76.5511 80.1454C78.6811 82.0454 80.441 78.9154 80.671 77.4754C80.941 75.8054 80.8911 74.0854 80.7911 72.3954C80.6011 69.0454 79.371 66.0454 77.751 63.1954C77.171 62.3854 76.6011 61.5654 76.0511 60.7254C76.1811 61.3354 76.2911 61.9454 76.3811 62.5654C76.6711 64.6354 77.0111 67.1454 76.1611 69.1254C74.8511 72.1554 71.0611 73.4354 68.1911 71.8554C65.4311 70.3354 64.0111 66.6754 65.7611 63.8654C66.0111 63.4654 66.3311 63.1154 66.7011 62.8254C67.5611 62.1554 68.7011 61.8554 69.7811 62.0154C70.7711 62.1654 71.9511 62.8054 72.3111 63.7954C72.5111 64.3554 72.521 65.1654 72.2211 65.6954C72.021 66.0454 71.7011 66.3254 71.3211 66.4754C70.6111 66.7554 70.0911 66.3454 69.4111 66.3954C67.0711 66.5654 68.1311 68.5054 68.8511 69.0854C69.3411 69.4754 69.9511 69.6654 70.5611 69.7354C76.6511 70.4754 75.5011 62.7154 74.4911 59.0154C74.3011 58.3054 74.0711 57.5954 73.8311 56.8954C73.7211 56.6754 73.611 56.4554 73.501 56.2354C72.551 55.9154 71.6211 55.5554 70.7011 55.1554C69.9811 54.9654 69.2611 54.7854 68.5411 54.6354C64.7811 53.8754 56.9611 53.2554 58.1111 59.2754C58.2211 59.8754 58.4511 60.4754 58.8711 60.9354C59.5011 61.6154 61.5111 62.5354 61.5211 60.1954C61.5211 59.5154 61.0811 59.0154 61.3111 58.2954C61.4311 57.9054 61.6911 57.5754 62.0311 57.3454C62.5411 57.0154 63.3511 56.9654 63.9211 57.1254C64.9311 57.4154 65.6511 58.5554 65.8711 59.5254C66.1111 60.5954 65.8711 61.7454 65.2711 62.6454C65.0111 63.0354 64.6811 63.3754 64.3011 63.6554C61.6211 65.5954 57.8611 64.4254 56.1711 61.7654C54.4111 59.0054 55.4311 55.1354 58.3611 53.6254C60.2811 52.6454 62.8111 52.8154 64.8911 52.9654C65.5111 53.0054 66.1311 53.0754 66.7511 53.1654C65.8811 52.6754 65.0211 52.1654 64.1711 51.6354C61.2111 50.2154 58.1411 49.1854 54.7811 49.2154C53.0911 49.2354 51.3711 49.2954 49.7211 49.6754C48.2911 50.0054 45.2911 51.9654 47.3311 53.9654C47.6711 54.2954 47.4811 54.8154 47.0511 54.8054C44.5811 54.8054 41.9911 53.4954 41.1411 50.6854C40.9211 49.9454 40.8611 49.1454 40.9911 48.3754C41.1111 47.7054 41.5811 47.1154 41.6911 46.5054C39.8511 45.9154 38.3011 44.5754 36.5111 43.8254C35.6411 43.4654 34.7111 42.4454 35.9811 41.8854C41.8511 39.2854 48.2611 41.5754 54.0911 43.0354C54.7011 43.1854 57.0511 44.0854 57.5811 43.7454C58.0511 43.4354 58.2611 41.6754 58.6711 41.1254C59.5811 39.8854 61.0811 38.9554 62.5911 38.6854C63.7711 38.4654 65.0611 38.6854 66.0111 39.4154C66.1311 39.5154 66.2611 39.6254 66.3011 39.7754C66.4211 40.1754 65.9711 40.4854 65.6211 40.7054C61.9611 43.0154 64.2511 47.8454 67.1011 49.6654C68.6611 50.6654 70.271 51.6454 71.921 52.4854C71.341 50.8154 70.9111 49.1054 70.6811 47.3454C70.1211 43.0754 71.2311 38.3354 74.5411 35.5754C75.8111 34.5154 77.3411 33.8054 78.9611 33.4154C79.7511 33.2254 80.551 33.1154 81.361 33.0754C86.951 32.8054 92.8411 36.6954 93.6311 42.2354C93.7111 42.8054 93.7311 43.3854 93.6911 43.9554C93.8211 44.6354 93.9011 45.3154 93.9111 46.0054C93.9311 46.8154 93.8711 47.6254 93.7311 48.4254C93.4511 50.0654 92.8511 51.6354 91.8811 52.9754C89.3511 56.4654 84.7011 57.8854 80.4011 57.6254C79.4311 57.5654 78.4711 57.4354 77.5111 57.2654C78.1511 58.2254 78.821 59.1654 79.501 60.0854C81.511 62.8054 86.4811 64.7754 88.5411 60.9654C88.7411 60.5954 89.021 60.1254 89.421 60.2254C89.571 60.2654 89.6911 60.3754 89.7911 60.4954C90.5811 61.3954 90.891 62.6654 90.751 63.8554C90.5811 65.3854 89.7611 66.9454 88.5711 67.9354C88.0511 68.3754 86.301 68.7054 86.031 69.1954C85.721 69.7454 86.7811 72.0254 86.9711 72.6254C88.821 78.3454 91.5311 84.5854 89.3311 90.6154C88.861 91.9154 87.781 91.0554 87.361 90.2154L87.391 90.2454ZM84.0511 36.0154C82.7511 35.8954 81.4211 35.8654 80.1311 36.0754C78.6611 36.3254 77.231 36.9754 76.2211 38.0854C75.001 39.4354 74.2511 41.1654 73.7711 42.8954C72.6911 46.8054 73.7311 50.5454 75.5911 54.0654C76.7111 54.4354 77.8511 54.7154 79.0211 54.8554C81.6211 55.1654 84.4111 54.7354 86.5911 53.2154C90.6911 50.3554 93.321 43.7254 90.251 39.2754C89.611 38.3454 88.841 37.4754 87.861 36.9254C87.3811 36.6554 86.8711 36.4754 86.3411 36.3454C85.6011 36.1654 84.8211 36.0754 84.0511 36.0054V36.0154Z" fill="url(#paint23_linear_244_837)"/>
</g>
<defs>
<linearGradient id="paint0_linear_244_837" x1="1817.45" y1="-59.4047" x2="763.829" y2="537.365" gradientUnits="userSpaceOnUse">
<stop stop-color="#EEDEBC"/>
<stop offset="0.06" stop-color="#DDC5A3"/>
<stop offset="0.14" stop-color="#C9A885"/>
<stop offset="0.26" stop-color="#9A7A5F"/>
<stop offset="0.36" stop-color="#C9A885"/>
<stop offset="0.49" stop-color="#EEDEBC"/>
<stop offset="0.54" stop-color="#DDC5A3"/>
<stop offset="0.61" stop-color="#C9A885"/>
<stop offset="0.72" stop-color="#9A7A5F"/>
<stop offset="0.84" stop-color="#C9A885"/>
<stop offset="1" stop-color="#EEDEBC"/>
</linearGradient>
<linearGradient id="paint1_linear_244_837" x1="1821.6" y1="-52.0745" x2="767.979" y2="544.696" gradientUnits="userSpaceOnUse">
<stop stop-color="#EEDEBC"/>
<stop offset="0.06" stop-color="#DDC5A3"/>
<stop offset="0.14" stop-color="#C9A885"/>
<stop offset="0.26" stop-color="#9A7A5F"/>
<stop offset="0.36" stop-color="#C9A885"/>
<stop offset="0.49" stop-color="#EEDEBC"/>
<stop offset="0.54" stop-color="#DDC5A3"/>
<stop offset="0.61" stop-color="#C9A885"/>
<stop offset="0.72" stop-color="#9A7A5F"/>
<stop offset="0.84" stop-color="#C9A885"/>
<stop offset="1" stop-color="#EEDEBC"/>
</linearGradient>
<linearGradient id="paint2_linear_244_837" x1="1814.71" y1="-64.2348" x2="761.099" y2="532.535" gradientUnits="userSpaceOnUse">
<stop stop-color="#EEDEBC"/>
<stop offset="0.06" stop-color="#DDC5A3"/>
<stop offset="0.14" stop-color="#C9A885"/>
<stop offset="0.26" stop-color="#9A7A5F"/>
<stop offset="0.36" stop-color="#C9A885"/>
<stop offset="0.49" stop-color="#EEDEBC"/>
<stop offset="0.54" stop-color="#DDC5A3"/>
<stop offset="0.61" stop-color="#C9A885"/>
<stop offset="0.72" stop-color="#9A7A5F"/>
<stop offset="0.84" stop-color="#C9A885"/>
<stop offset="1" stop-color="#EEDEBC"/>
</linearGradient>
<linearGradient id="paint3_linear_244_837" x1="1805.21" y1="-81.0047" x2="751.599" y2="515.755" gradientUnits="userSpaceOnUse">
<stop stop-color="#EEDEBC"/>
<stop offset="0.06" stop-color="#DDC5A3"/>
<stop offset="0.14" stop-color="#C9A885"/>
<stop offset="0.26" stop-color="#9A7A5F"/>
<stop offset="0.36" stop-color="#C9A885"/>
<stop offset="0.49" stop-color="#EEDEBC"/>
<stop offset="0.54" stop-color="#DDC5A3"/>
<stop offset="0.61" stop-color="#C9A885"/>
<stop offset="0.72" stop-color="#9A7A5F"/>
<stop offset="0.84" stop-color="#C9A885"/>
<stop offset="1" stop-color="#EEDEBC"/>
</linearGradient>
<linearGradient id="paint4_linear_244_837" x1="1810.23" y1="-72.1449" x2="756.618" y2="524.625" gradientUnits="userSpaceOnUse">
<stop stop-color="#EEDEBC"/>
<stop offset="0.06" stop-color="#DDC5A3"/>
<stop offset="0.14" stop-color="#C9A885"/>
<stop offset="0.26" stop-color="#9A7A5F"/>
<stop offset="0.36" stop-color="#C9A885"/>
<stop offset="0.49" stop-color="#EEDEBC"/>
<stop offset="0.54" stop-color="#DDC5A3"/>
<stop offset="0.61" stop-color="#C9A885"/>
<stop offset="0.72" stop-color="#9A7A5F"/>
<stop offset="0.84" stop-color="#C9A885"/>
<stop offset="1" stop-color="#EEDEBC"/>
</linearGradient>
<linearGradient id="paint5_linear_244_837" x1="1827.95" y1="-40.8747" x2="774.329" y2="555.895" gradientUnits="userSpaceOnUse">
<stop stop-color="#EEDEBC"/>
<stop offset="0.06" stop-color="#DDC5A3"/>
<stop offset="0.14" stop-color="#C9A885"/>
<stop offset="0.26" stop-color="#9A7A5F"/>
<stop offset="0.36" stop-color="#C9A885"/>
<stop offset="0.49" stop-color="#EEDEBC"/>
<stop offset="0.54" stop-color="#DDC5A3"/>
<stop offset="0.61" stop-color="#C9A885"/>
<stop offset="0.72" stop-color="#9A7A5F"/>
<stop offset="0.84" stop-color="#C9A885"/>
<stop offset="1" stop-color="#EEDEBC"/>
</linearGradient>
<linearGradient id="paint6_linear_244_837" x1="1834.09" y1="-30.0243" x2="780.47" y2="566.746" gradientUnits="userSpaceOnUse">
<stop stop-color="#EEDEBC"/>
<stop offset="0.06" stop-color="#DDC5A3"/>
<stop offset="0.14" stop-color="#C9A885"/>
<stop offset="0.26" stop-color="#9A7A5F"/>
<stop offset="0.36" stop-color="#C9A885"/>
<stop offset="0.49" stop-color="#EEDEBC"/>
<stop offset="0.54" stop-color="#DDC5A3"/>
<stop offset="0.61" stop-color="#C9A885"/>
<stop offset="0.72" stop-color="#9A7A5F"/>
<stop offset="0.84" stop-color="#C9A885"/>
<stop offset="1" stop-color="#EEDEBC"/>
</linearGradient>
<linearGradient id="paint7_linear_244_837" x1="1795.46" y1="-98.2247" x2="741.839" y2="498.535" gradientUnits="userSpaceOnUse">
<stop stop-color="#EEDEBC"/>
<stop offset="0.06" stop-color="#DDC5A3"/>
<stop offset="0.14" stop-color="#C9A885"/>
<stop offset="0.26" stop-color="#9A7A5F"/>
<stop offset="0.36" stop-color="#C9A885"/>
<stop offset="0.49" stop-color="#EEDEBC"/>
<stop offset="0.54" stop-color="#DDC5A3"/>
<stop offset="0.61" stop-color="#C9A885"/>
<stop offset="0.72" stop-color="#9A7A5F"/>
<stop offset="0.84" stop-color="#C9A885"/>
<stop offset="1" stop-color="#EEDEBC"/>
</linearGradient>
<linearGradient id="paint8_linear_244_837" x1="1799.69" y1="-90.7646" x2="746.069" y2="506.005" gradientUnits="userSpaceOnUse">
<stop stop-color="#EEDEBC"/>
<stop offset="0.06" stop-color="#DDC5A3"/>
<stop offset="0.14" stop-color="#C9A885"/>
<stop offset="0.26" stop-color="#9A7A5F"/>
<stop offset="0.36" stop-color="#C9A885"/>
<stop offset="0.49" stop-color="#EEDEBC"/>
<stop offset="0.54" stop-color="#DDC5A3"/>
<stop offset="0.61" stop-color="#C9A885"/>
<stop offset="0.72" stop-color="#9A7A5F"/>
<stop offset="0.84" stop-color="#C9A885"/>
<stop offset="1" stop-color="#EEDEBC"/>
</linearGradient>
<linearGradient id="paint9_linear_244_837" x1="1802.53" y1="-85.7344" x2="748.92" y2="511.026" gradientUnits="userSpaceOnUse">
<stop stop-color="#EEDEBC"/>
<stop offset="0.06" stop-color="#DDC5A3"/>
<stop offset="0.14" stop-color="#C9A885"/>
<stop offset="0.26" stop-color="#9A7A5F"/>
<stop offset="0.36" stop-color="#C9A885"/>
<stop offset="0.49" stop-color="#EEDEBC"/>
<stop offset="0.54" stop-color="#DDC5A3"/>
<stop offset="0.61" stop-color="#C9A885"/>
<stop offset="0.72" stop-color="#9A7A5F"/>
<stop offset="0.84" stop-color="#C9A885"/>
<stop offset="1" stop-color="#EEDEBC"/>
</linearGradient>
<linearGradient id="paint10_linear_244_837" x1="1811.66" y1="-69.6247" x2="758.049" y2="527.145" gradientUnits="userSpaceOnUse">
<stop stop-color="#EEDEBC"/>
<stop offset="0.06" stop-color="#DDC5A3"/>
<stop offset="0.14" stop-color="#C9A885"/>
<stop offset="0.26" stop-color="#9A7A5F"/>
<stop offset="0.36" stop-color="#C9A885"/>
<stop offset="0.49" stop-color="#EEDEBC"/>
<stop offset="0.54" stop-color="#DDC5A3"/>
<stop offset="0.61" stop-color="#C9A885"/>
<stop offset="0.72" stop-color="#9A7A5F"/>
<stop offset="0.84" stop-color="#C9A885"/>
<stop offset="1" stop-color="#EEDEBC"/>
</linearGradient>
<linearGradient id="paint11_linear_244_837" x1="1791.08" y1="-105.965" x2="737.459" y2="490.805" gradientUnits="userSpaceOnUse">
<stop stop-color="#EEDEBC"/>
<stop offset="0.06" stop-color="#DDC5A3"/>
<stop offset="0.14" stop-color="#C9A885"/>
<stop offset="0.26" stop-color="#9A7A5F"/>
<stop offset="0.36" stop-color="#C9A885"/>
<stop offset="0.49" stop-color="#EEDEBC"/>
<stop offset="0.54" stop-color="#DDC5A3"/>
<stop offset="0.61" stop-color="#C9A885"/>
<stop offset="0.72" stop-color="#9A7A5F"/>
<stop offset="0.84" stop-color="#C9A885"/>
<stop offset="1" stop-color="#EEDEBC"/>
</linearGradient>
<linearGradient id="paint12_linear_244_837" x1="-236.449" y1="-59.4047" x2="817.171" y2="537.365" gradientUnits="userSpaceOnUse">
<stop stop-color="#EEDEBC"/>
<stop offset="0.06" stop-color="#DDC5A3"/>
<stop offset="0.14" stop-color="#C9A885"/>
<stop offset="0.26" stop-color="#9A7A5F"/>
<stop offset="0.36" stop-color="#C9A885"/>
<stop offset="0.49" stop-color="#EEDEBC"/>
<stop offset="0.54" stop-color="#DDC5A3"/>
<stop offset="0.61" stop-color="#C9A885"/>
<stop offset="0.72" stop-color="#9A7A5F"/>
<stop offset="0.84" stop-color="#C9A885"/>
<stop offset="1" stop-color="#EEDEBC"/>
</linearGradient>
<linearGradient id="paint13_linear_244_837" x1="-240.599" y1="-52.0745" x2="813.021" y2="544.696" gradientUnits="userSpaceOnUse">
<stop stop-color="#EEDEBC"/>
<stop offset="0.06" stop-color="#DDC5A3"/>
<stop offset="0.14" stop-color="#C9A885"/>
<stop offset="0.26" stop-color="#9A7A5F"/>
<stop offset="0.36" stop-color="#C9A885"/>
<stop offset="0.49" stop-color="#EEDEBC"/>
<stop offset="0.54" stop-color="#DDC5A3"/>
<stop offset="0.61" stop-color="#C9A885"/>
<stop offset="0.72" stop-color="#9A7A5F"/>
<stop offset="0.84" stop-color="#C9A885"/>
<stop offset="1" stop-color="#EEDEBC"/>
</linearGradient>
<linearGradient id="paint14_linear_244_837" x1="-233.709" y1="-64.2348" x2="819.902" y2="532.535" gradientUnits="userSpaceOnUse">
<stop stop-color="#EEDEBC"/>
<stop offset="0.06" stop-color="#DDC5A3"/>
<stop offset="0.14" stop-color="#C9A885"/>
<stop offset="0.26" stop-color="#9A7A5F"/>
<stop offset="0.36" stop-color="#C9A885"/>
<stop offset="0.49" stop-color="#EEDEBC"/>
<stop offset="0.54" stop-color="#DDC5A3"/>
<stop offset="0.61" stop-color="#C9A885"/>
<stop offset="0.72" stop-color="#9A7A5F"/>
<stop offset="0.84" stop-color="#C9A885"/>
<stop offset="1" stop-color="#EEDEBC"/>
</linearGradient>
<linearGradient id="paint15_linear_244_837" x1="-224.209" y1="-81.0047" x2="829.401" y2="515.755" gradientUnits="userSpaceOnUse">
<stop stop-color="#EEDEBC"/>
<stop offset="0.06" stop-color="#DDC5A3"/>
<stop offset="0.14" stop-color="#C9A885"/>
<stop offset="0.26" stop-color="#9A7A5F"/>
<stop offset="0.36" stop-color="#C9A885"/>
<stop offset="0.49" stop-color="#EEDEBC"/>
<stop offset="0.54" stop-color="#DDC5A3"/>
<stop offset="0.61" stop-color="#C9A885"/>
<stop offset="0.72" stop-color="#9A7A5F"/>
<stop offset="0.84" stop-color="#C9A885"/>
<stop offset="1" stop-color="#EEDEBC"/>
</linearGradient>
<linearGradient id="paint16_linear_244_837" x1="-229.229" y1="-72.1449" x2="824.382" y2="524.625" gradientUnits="userSpaceOnUse">
<stop stop-color="#EEDEBC"/>
<stop offset="0.06" stop-color="#DDC5A3"/>
<stop offset="0.14" stop-color="#C9A885"/>
<stop offset="0.26" stop-color="#9A7A5F"/>
<stop offset="0.36" stop-color="#C9A885"/>
<stop offset="0.49" stop-color="#EEDEBC"/>
<stop offset="0.54" stop-color="#DDC5A3"/>
<stop offset="0.61" stop-color="#C9A885"/>
<stop offset="0.72" stop-color="#9A7A5F"/>
<stop offset="0.84" stop-color="#C9A885"/>
<stop offset="1" stop-color="#EEDEBC"/>
</linearGradient>
<linearGradient id="paint17_linear_244_837" x1="-246.949" y1="-40.8747" x2="806.672" y2="555.895" gradientUnits="userSpaceOnUse">
<stop stop-color="#EEDEBC"/>
<stop offset="0.06" stop-color="#DDC5A3"/>
<stop offset="0.14" stop-color="#C9A885"/>
<stop offset="0.26" stop-color="#9A7A5F"/>
<stop offset="0.36" stop-color="#C9A885"/>
<stop offset="0.49" stop-color="#EEDEBC"/>
<stop offset="0.54" stop-color="#DDC5A3"/>
<stop offset="0.61" stop-color="#C9A885"/>
<stop offset="0.72" stop-color="#9A7A5F"/>
<stop offset="0.84" stop-color="#C9A885"/>
<stop offset="1" stop-color="#EEDEBC"/>
</linearGradient>
<linearGradient id="paint18_linear_244_837" x1="-253.089" y1="-30.0243" x2="800.53" y2="566.746" gradientUnits="userSpaceOnUse">
<stop stop-color="#EEDEBC"/>
<stop offset="0.06" stop-color="#DDC5A3"/>
<stop offset="0.14" stop-color="#C9A885"/>
<stop offset="0.26" stop-color="#9A7A5F"/>
<stop offset="0.36" stop-color="#C9A885"/>
<stop offset="0.49" stop-color="#EEDEBC"/>
<stop offset="0.54" stop-color="#DDC5A3"/>
<stop offset="0.61" stop-color="#C9A885"/>
<stop offset="0.72" stop-color="#9A7A5F"/>
<stop offset="0.84" stop-color="#C9A885"/>
<stop offset="1" stop-color="#EEDEBC"/>
</linearGradient>
<linearGradient id="paint19_linear_244_837" x1="-214.459" y1="-98.2247" x2="839.161" y2="498.535" gradientUnits="userSpaceOnUse">
<stop stop-color="#EEDEBC"/>
<stop offset="0.06" stop-color="#DDC5A3"/>
<stop offset="0.14" stop-color="#C9A885"/>
<stop offset="0.26" stop-color="#9A7A5F"/>
<stop offset="0.36" stop-color="#C9A885"/>
<stop offset="0.49" stop-color="#EEDEBC"/>
<stop offset="0.54" stop-color="#DDC5A3"/>
<stop offset="0.61" stop-color="#C9A885"/>
<stop offset="0.72" stop-color="#9A7A5F"/>
<stop offset="0.84" stop-color="#C9A885"/>
<stop offset="1" stop-color="#EEDEBC"/>
</linearGradient>
<linearGradient id="paint20_linear_244_837" x1="-218.689" y1="-90.7646" x2="834.931" y2="506.005" gradientUnits="userSpaceOnUse">
<stop stop-color="#EEDEBC"/>
<stop offset="0.06" stop-color="#DDC5A3"/>
<stop offset="0.14" stop-color="#C9A885"/>
<stop offset="0.26" stop-color="#9A7A5F"/>
<stop offset="0.36" stop-color="#C9A885"/>
<stop offset="0.49" stop-color="#EEDEBC"/>
<stop offset="0.54" stop-color="#DDC5A3"/>
<stop offset="0.61" stop-color="#C9A885"/>
<stop offset="0.72" stop-color="#9A7A5F"/>
<stop offset="0.84" stop-color="#C9A885"/>
<stop offset="1" stop-color="#EEDEBC"/>
</linearGradient>
<linearGradient id="paint21_linear_244_837" x1="-221.529" y1="-85.7344" x2="832.08" y2="511.026" gradientUnits="userSpaceOnUse">
<stop stop-color="#EEDEBC"/>
<stop offset="0.06" stop-color="#DDC5A3"/>
<stop offset="0.14" stop-color="#C9A885"/>
<stop offset="0.26" stop-color="#9A7A5F"/>
<stop offset="0.36" stop-color="#C9A885"/>
<stop offset="0.49" stop-color="#EEDEBC"/>
<stop offset="0.54" stop-color="#DDC5A3"/>
<stop offset="0.61" stop-color="#C9A885"/>
<stop offset="0.72" stop-color="#9A7A5F"/>
<stop offset="0.84" stop-color="#C9A885"/>
<stop offset="1" stop-color="#EEDEBC"/>
</linearGradient>
<linearGradient id="paint22_linear_244_837" x1="-230.659" y1="-69.6247" x2="822.951" y2="527.145" gradientUnits="userSpaceOnUse">
<stop stop-color="#EEDEBC"/>
<stop offset="0.06" stop-color="#DDC5A3"/>
<stop offset="0.14" stop-color="#C9A885"/>
<stop offset="0.26" stop-color="#9A7A5F"/>
<stop offset="0.36" stop-color="#C9A885"/>
<stop offset="0.49" stop-color="#EEDEBC"/>
<stop offset="0.54" stop-color="#DDC5A3"/>
<stop offset="0.61" stop-color="#C9A885"/>
<stop offset="0.72" stop-color="#9A7A5F"/>
<stop offset="0.84" stop-color="#C9A885"/>
<stop offset="1" stop-color="#EEDEBC"/>
</linearGradient>
<linearGradient id="paint23_linear_244_837" x1="-210.079" y1="-105.965" x2="843.541" y2="490.805" gradientUnits="userSpaceOnUse">
<stop stop-color="#EEDEBC"/>
<stop offset="0.06" stop-color="#DDC5A3"/>
<stop offset="0.14" stop-color="#C9A885"/>
<stop offset="0.26" stop-color="#9A7A5F"/>
<stop offset="0.36" stop-color="#C9A885"/>
<stop offset="0.49" stop-color="#EEDEBC"/>
<stop offset="0.54" stop-color="#DDC5A3"/>
<stop offset="0.61" stop-color="#C9A885"/>
<stop offset="0.72" stop-color="#9A7A5F"/>
<stop offset="0.84" stop-color="#C9A885"/>
<stop offset="1" stop-color="#EEDEBC"/>
</linearGradient>
<clipPath id="clip0_244_837">
<rect width="1581" height="126.296" fill="white"/>
</clipPath>
</defs>
</svg>
