<svg width="40" height="41" viewBox="0 0 40 41" fill="none" xmlns="http://www.w3.org/2000/svg">
  <path
    d="M19.0127 25.2639V14.7235C19.0127 13.7228 18.5902 13.3226 17.5228 13.3226H14.8321C13.7647 13.3226 13.3422 13.7228 13.3422 14.7235V25.2639C13.3422 26.2646 13.7647 26.6648 14.8321 26.6648H17.5228C18.5902 26.6648 19.0127 26.2646 19.0127 25.2639Z"
    fill="#000" />
  <path
    d="M26.6845 25.2639V14.7235C26.6845 13.7228 26.262 13.3226 25.1946 13.3226H22.5039C21.4439 13.3226 21.014 13.7228 21.014 14.7235V25.2639C21.014 26.2646 21.4365 26.6648 22.5039 26.6648H25.1946C26.262 26.6648 26.6845 26.2646 26.6845 25.2639Z"
    fill="#000" />
  <circle cx="20" cy="20.1758" r="19.2995" stroke="#000" stroke-width="1.40094" />
</svg>